<svg width="1584" height="396" viewBox="0 0 1584 396" fill="none" xmlns="http://www.w3.org/2000/svg">
<rect width="1584" height="396" fill="#121214"/>
<path d="M1343.24 33.8896C1343.22 34.4053 1343.16 34.9238 1343.06 35.4453C1342.96 35.9668 1342.81 36.4355 1342.62 36.8516C1342.42 37.2676 1342.16 37.6074 1341.84 37.8711C1341.53 38.1289 1341.15 38.2578 1340.71 38.2578C1340.52 38.2578 1340.35 38.2314 1340.19 38.1787C1340.03 38.126 1339.89 38.0469 1339.77 37.9414C1339.67 37.8594 1339.59 37.7656 1339.51 37.6602C1339.44 37.5547 1339.37 37.4375 1339.32 37.3086C1339.24 37.4316 1339.15 37.5459 1339.05 37.6514C1338.95 37.751 1338.84 37.8418 1338.73 37.9238C1338.58 38.0293 1338.43 38.1113 1338.26 38.1699C1338.09 38.2227 1337.92 38.249 1337.73 38.249C1337.41 38.249 1337.12 38.1729 1336.88 38.0205C1336.64 37.8623 1336.44 37.6367 1336.3 37.3438C1336.14 37.0625 1336.04 36.7227 1335.98 36.3242C1335.92 35.9199 1335.92 35.4746 1335.96 34.9883C1336.02 34.3672 1336.13 33.8076 1336.3 33.3096C1336.46 32.8057 1336.67 32.3779 1336.94 32.0264C1337.2 31.6748 1337.51 31.4053 1337.86 31.2178C1338.21 31.0244 1338.6 30.9277 1339.04 30.9277C1339.47 30.9277 1339.82 31.001 1340.09 31.1475C1340.37 31.2881 1340.6 31.4551 1340.77 31.6484L1340.38 36.1924C1340.37 36.3916 1340.38 36.5498 1340.4 36.667C1340.42 36.7842 1340.46 36.875 1340.51 36.9395C1340.56 37.0039 1340.62 37.0449 1340.68 37.0625C1340.75 37.0801 1340.83 37.0889 1340.9 37.0889C1341.08 37.0889 1341.24 37.0098 1341.38 36.8516C1341.52 36.6875 1341.65 36.4648 1341.75 36.1836C1341.85 35.9023 1341.93 35.5684 1341.98 35.1816C1342.04 34.7949 1342.06 34.376 1342.06 33.9248C1342.08 33.1982 1342.03 32.5596 1341.89 32.0088C1341.76 31.458 1341.55 30.998 1341.27 30.6289C1340.99 30.2598 1340.64 29.9814 1340.22 29.7939C1339.8 29.6064 1339.32 29.5127 1338.77 29.5127C1338.19 29.5127 1337.66 29.6445 1337.18 29.9082C1336.71 30.166 1336.31 30.5322 1335.96 31.0068C1335.6 31.4932 1335.31 32.0762 1335.11 32.7559C1334.9 33.4297 1334.79 34.1709 1334.77 34.9795C1334.74 35.7705 1334.79 36.4678 1334.93 37.0713C1335.07 37.6689 1335.29 38.1699 1335.59 38.5742C1335.89 38.9844 1336.27 39.2949 1336.73 39.5059C1337.19 39.7109 1337.73 39.8135 1338.33 39.8135C1338.51 39.8135 1338.69 39.8018 1338.88 39.7783C1339.07 39.749 1339.25 39.7109 1339.44 39.6641C1339.62 39.6172 1339.79 39.5645 1339.95 39.5059C1340.12 39.4414 1340.27 39.3711 1340.4 39.2949L1340.68 40.4111C1340.53 40.5225 1340.36 40.6191 1340.16 40.7012C1339.97 40.7832 1339.77 40.8506 1339.56 40.9033C1339.35 40.9619 1339.13 41.0029 1338.92 41.0264C1338.7 41.0557 1338.5 41.0703 1338.31 41.0703C1337.45 41.0703 1336.71 40.9268 1336.08 40.6396C1335.47 40.3467 1334.96 39.9336 1334.56 39.4004C1334.17 38.873 1333.88 38.2344 1333.69 37.4844C1333.51 36.7344 1333.44 35.8994 1333.47 34.9795C1333.5 34.0537 1333.66 33.1777 1333.93 32.3516C1334.21 31.5195 1334.59 30.7988 1335.07 30.1895C1335.53 29.5918 1336.09 29.123 1336.73 28.7832C1337.37 28.4375 1338.07 28.2646 1338.84 28.2646C1339.54 28.2646 1340.17 28.3994 1340.73 28.6689C1341.28 28.9385 1341.75 29.3193 1342.14 29.8115C1342.52 30.3037 1342.8 30.8955 1342.98 31.5869C1343.18 32.2783 1343.26 33.0459 1343.24 33.8896ZM1337.3 34.9883C1337.28 35.2988 1337.28 35.5771 1337.31 35.8232C1337.34 36.0693 1337.38 36.2744 1337.45 36.4385C1337.51 36.6143 1337.6 36.7461 1337.7 36.834C1337.81 36.916 1337.94 36.957 1338.08 36.957C1338.21 36.957 1338.33 36.9395 1338.45 36.9043C1338.57 36.8633 1338.69 36.7959 1338.79 36.7021C1338.86 36.6436 1338.92 36.5762 1338.99 36.5C1339.05 36.418 1339.11 36.3242 1339.16 36.2188L1339.17 36.1133L1339.5 32.2285C1339.46 32.2109 1339.4 32.1963 1339.34 32.1846C1339.28 32.1729 1339.21 32.167 1339.13 32.167C1338.85 32.167 1338.61 32.2314 1338.4 32.3604C1338.19 32.4834 1338.01 32.668 1337.86 32.9141C1337.71 33.1543 1337.59 33.4502 1337.5 33.8018C1337.41 34.1475 1337.34 34.543 1337.3 34.9883ZM1353.32 41H1344.73V39.541L1348.9 35.0059C1349.25 34.625 1349.54 34.2852 1349.77 33.9863C1350 33.6816 1350.19 33.4033 1350.34 33.1514C1350.48 32.8994 1350.58 32.665 1350.64 32.4482C1350.7 32.2256 1350.74 32.0029 1350.74 31.7803C1350.74 31.4814 1350.69 31.209 1350.6 30.9629C1350.52 30.7168 1350.39 30.5059 1350.22 30.3301C1350.05 30.1543 1349.84 30.0166 1349.6 29.917C1349.37 29.8174 1349.1 29.7676 1348.81 29.7676C1348.44 29.7676 1348.11 29.8203 1347.84 29.9258C1347.56 30.0312 1347.33 30.1807 1347.15 30.374C1346.96 30.5791 1346.82 30.8281 1346.73 31.1211C1346.63 31.4082 1346.59 31.7363 1346.59 32.1055H1344.48C1344.48 31.5488 1344.58 31.0244 1344.79 30.5322C1344.99 30.0342 1345.28 29.6006 1345.67 29.2314C1346.04 28.8623 1346.5 28.5693 1347.04 28.3525C1347.58 28.1357 1348.19 28.0273 1348.86 28.0273C1349.48 28.0273 1350.04 28.1182 1350.53 28.2998C1351.03 28.4814 1351.45 28.7334 1351.79 29.0557C1352.12 29.3779 1352.38 29.7646 1352.56 30.2158C1352.73 30.6611 1352.82 31.1533 1352.82 31.6924C1352.82 32.0967 1352.75 32.4893 1352.62 32.8701C1352.49 33.2451 1352.31 33.6172 1352.08 33.9863C1351.85 34.3555 1351.57 34.7275 1351.25 35.1025C1350.93 35.4775 1350.58 35.8643 1350.21 36.2627L1347.36 39.3037H1353.32V41ZM1364.19 36.1221C1364.19 36.9424 1364.1 37.6689 1363.9 38.3018C1363.71 38.9287 1363.44 39.4531 1363.08 39.875C1362.73 40.3086 1362.3 40.6367 1361.78 40.8594C1361.27 41.0762 1360.69 41.1846 1360.04 41.1846C1359.4 41.1846 1358.82 41.0762 1358.3 40.8594C1357.79 40.6367 1357.35 40.3086 1356.99 39.875C1356.63 39.4531 1356.35 38.9287 1356.16 38.3018C1355.97 37.6689 1355.88 36.9424 1355.88 36.1221V33.0898C1355.88 32.2695 1355.97 31.5459 1356.16 30.9189C1356.35 30.2861 1356.63 29.7529 1356.99 29.3193C1357.34 28.8916 1357.78 28.5693 1358.29 28.3525C1358.8 28.1299 1359.38 28.0186 1360.03 28.0186C1360.68 28.0186 1361.26 28.1299 1361.77 28.3525C1362.28 28.5693 1362.72 28.8916 1363.08 29.3193C1363.44 29.7529 1363.71 30.2861 1363.9 30.9189C1364.1 31.5459 1364.19 32.2695 1364.19 33.0898V36.1221ZM1357.99 35.375L1362.06 32.29C1362.03 31.833 1361.97 31.4375 1361.86 31.1035C1361.76 30.7695 1361.62 30.4971 1361.43 30.2861C1361.27 30.0986 1361.07 29.958 1360.83 29.8643C1360.59 29.7705 1360.33 29.7236 1360.03 29.7236C1359.7 29.7236 1359.42 29.7793 1359.17 29.8906C1358.93 30.002 1358.72 30.166 1358.56 30.3828C1358.37 30.6289 1358.22 30.9482 1358.13 31.3408C1358.03 31.7275 1357.99 32.1846 1357.99 32.7119V34.4346C1357.99 34.6572 1357.99 34.8271 1357.99 34.9443C1357.99 35.0615 1357.99 35.2051 1357.99 35.375ZM1362.07 36.4736V34.8564C1362.07 34.71 1362.07 34.5576 1362.07 34.3994C1362.07 34.2412 1362.07 34.0771 1362.07 33.9072L1358 36.9746C1358.03 37.3789 1358.1 37.7363 1358.19 38.0469C1358.29 38.3574 1358.42 38.6152 1358.58 38.8203C1358.75 39.043 1358.95 39.21 1359.19 39.3213C1359.44 39.4326 1359.72 39.4883 1360.04 39.4883C1360.36 39.4883 1360.64 39.4355 1360.88 39.3301C1361.12 39.2188 1361.32 39.0576 1361.49 38.8467C1361.69 38.6006 1361.83 38.2783 1361.92 37.8799C1362.02 37.4814 1362.07 37.0127 1362.07 36.4736ZM1374.94 41H1366.35V39.541L1370.52 35.0059C1370.87 34.625 1371.16 34.2852 1371.39 33.9863C1371.62 33.6816 1371.82 33.4033 1371.96 33.1514C1372.1 32.8994 1372.2 32.665 1372.26 32.4482C1372.33 32.2256 1372.36 32.0029 1372.36 31.7803C1372.36 31.4814 1372.31 31.209 1372.23 30.9629C1372.14 30.7168 1372.01 30.5059 1371.84 30.3301C1371.67 30.1543 1371.46 30.0166 1371.22 29.917C1370.99 29.8174 1370.73 29.7676 1370.43 29.7676C1370.06 29.7676 1369.73 29.8203 1369.46 29.9258C1369.18 30.0312 1368.95 30.1807 1368.77 30.374C1368.58 30.5791 1368.44 30.8281 1368.35 31.1211C1368.26 31.4082 1368.21 31.7363 1368.21 32.1055H1366.1C1366.1 31.5488 1366.2 31.0244 1366.41 30.5322C1366.61 30.0342 1366.91 29.6006 1367.29 29.2314C1367.66 28.8623 1368.12 28.5693 1368.66 28.3525C1369.2 28.1357 1369.81 28.0273 1370.48 28.0273C1371.1 28.0273 1371.66 28.1182 1372.16 28.2998C1372.65 28.4814 1373.07 28.7334 1373.41 29.0557C1373.75 29.3779 1374 29.7646 1374.18 30.2158C1374.35 30.6611 1374.44 31.1533 1374.44 31.6924C1374.44 32.0967 1374.37 32.4893 1374.24 32.8701C1374.11 33.2451 1373.93 33.6172 1373.7 33.9863C1373.47 34.3555 1373.19 34.7275 1372.87 35.1025C1372.55 35.4775 1372.21 35.8643 1371.83 36.2627L1368.98 39.3037H1374.94V41ZM1377.92 34.6543L1378.61 28.2031H1385.49V30.0664H1380.36L1380.02 33.1338C1380.23 33.0107 1380.51 32.8936 1380.85 32.7822C1381.19 32.6709 1381.59 32.6152 1382.03 32.6152C1382.64 32.6152 1383.18 32.7148 1383.65 32.9141C1384.13 33.1133 1384.54 33.3975 1384.87 33.7666C1385.2 34.1416 1385.45 34.5957 1385.63 35.1289C1385.8 35.6562 1385.89 36.251 1385.89 36.9131C1385.89 37.499 1385.81 38.0527 1385.64 38.5742C1385.47 39.0898 1385.22 39.541 1384.87 39.9277C1384.53 40.3145 1384.1 40.6191 1383.58 40.8418C1383.06 41.0645 1382.44 41.1758 1381.74 41.1758C1381.2 41.1758 1380.68 41.0996 1380.19 40.9473C1379.7 40.7891 1379.26 40.5547 1378.88 40.2441C1378.5 39.9395 1378.18 39.5615 1377.94 39.1104C1377.7 38.6533 1377.56 38.1289 1377.53 37.5371H1379.57C1379.65 38.1641 1379.88 38.6445 1380.26 38.9785C1380.65 39.3125 1381.14 39.4795 1381.74 39.4795C1382.09 39.4795 1382.39 39.415 1382.65 39.2861C1382.91 39.1572 1383.12 38.9756 1383.3 38.7412C1383.46 38.5127 1383.59 38.2373 1383.67 37.915C1383.75 37.5869 1383.79 37.2324 1383.79 36.8516C1383.79 36.4824 1383.74 36.1455 1383.64 35.8408C1383.55 35.5303 1383.41 35.2607 1383.21 35.0322C1383.02 34.8037 1382.78 34.6279 1382.49 34.5049C1382.2 34.376 1381.87 34.3115 1381.49 34.3115C1381.24 34.3115 1381.02 34.332 1380.83 34.373C1380.65 34.4141 1380.49 34.4668 1380.35 34.5312C1380.2 34.6016 1380.07 34.6836 1379.94 34.7773C1379.83 34.8652 1379.71 34.9619 1379.6 35.0674L1377.92 34.6543ZM1407.18 36.2275H1400.1V34.5225H1407.18V36.2275ZM1420.7 41V28.2031H1423.86C1424.41 28.2031 1424.93 28.2676 1425.42 28.3965C1425.9 28.5195 1426.35 28.6924 1426.74 28.915C1427.18 29.1436 1427.56 29.4307 1427.9 29.7764C1428.24 30.1221 1428.52 30.5088 1428.75 30.9365C1428.98 31.3818 1429.16 31.8711 1429.29 32.4043C1429.42 32.9375 1429.49 33.5059 1429.49 34.1094V35.1113C1429.49 35.6914 1429.42 36.2422 1429.3 36.7637C1429.18 37.2793 1429.01 37.751 1428.79 38.1787C1428.58 38.5947 1428.31 38.9727 1428 39.3125C1427.7 39.6523 1427.36 39.9424 1426.98 40.1826C1426.56 40.4463 1426.09 40.6484 1425.58 40.7891C1425.07 40.9297 1424.52 41 1423.93 41H1420.7ZM1422.83 29.9258V39.2861H1423.93C1424.31 39.2861 1424.65 39.2422 1424.96 39.1543C1425.28 39.0605 1425.56 38.9287 1425.81 38.7588C1426.07 38.583 1426.3 38.3633 1426.5 38.0996C1426.7 37.8301 1426.87 37.5225 1427 37.1768C1427.11 36.8838 1427.2 36.5645 1427.25 36.2188C1427.31 35.873 1427.34 35.5039 1427.34 35.1113V34.0918C1427.34 33.7051 1427.31 33.3389 1427.25 32.9932C1427.2 32.6475 1427.11 32.3281 1427 32.0352C1426.86 31.6777 1426.67 31.3555 1426.44 31.0684C1426.2 30.7754 1425.92 30.5381 1425.6 30.3564C1425.37 30.2217 1425.1 30.1191 1424.81 30.0488C1424.52 29.9727 1424.2 29.9316 1423.86 29.9258H1422.83ZM1437.82 38.0557H1433.8L1432.93 41H1430.73L1434.9 28.2031H1436.77L1440.87 41H1438.68L1437.82 38.0557ZM1434.34 36.2451H1437.3L1435.83 31.1826L1434.34 36.2451ZM1450.68 41H1448.56L1444.4 32.1934L1444.39 41H1442.26V28.2031H1444.4L1448.53 36.9746L1448.55 28.2031H1450.68V41ZM1453.54 28.2031H1461.08V29.9521H1458.35V39.2598H1461.08V41H1453.54V39.2598H1456.21V29.9521H1453.54V28.2031ZM1466.34 39.2598H1472.45V41H1464.22V28.2031H1466.34V39.2598ZM1483.52 35.4541C1483.52 35.9697 1483.47 36.4678 1483.38 36.9482C1483.29 37.4287 1483.16 37.8828 1482.99 38.3105C1482.81 38.7383 1482.59 39.1338 1482.32 39.4971C1482.05 39.8545 1481.74 40.1621 1481.39 40.4199C1481.05 40.6543 1480.67 40.8389 1480.25 40.9736C1479.84 41.1084 1479.39 41.1758 1478.9 41.1758C1478.39 41.1758 1477.92 41.1055 1477.49 40.9648C1477.07 40.8184 1476.69 40.6191 1476.36 40.3672C1476.02 40.1094 1475.72 39.7988 1475.46 39.4355C1475.21 39.0723 1475 38.6738 1474.83 38.2402C1474.67 37.8242 1474.54 37.3818 1474.46 36.9131C1474.38 36.4385 1474.34 35.9521 1474.34 35.4541V33.7666C1474.34 33.2451 1474.38 32.7412 1474.47 32.2549C1474.56 31.7686 1474.69 31.3086 1474.86 30.875C1475.03 30.459 1475.24 30.0781 1475.49 29.7324C1475.74 29.3809 1476.04 29.0762 1476.38 28.8184C1476.7 28.5664 1477.08 28.373 1477.49 28.2383C1477.91 28.0977 1478.38 28.0273 1478.88 28.0273C1479.39 28.0273 1479.86 28.0977 1480.29 28.2383C1480.71 28.3789 1481.1 28.5752 1481.44 28.8271C1481.78 29.0791 1482.07 29.375 1482.33 29.7148C1482.58 30.0547 1482.79 30.4268 1482.96 30.8311C1483.15 31.2646 1483.29 31.7305 1483.38 32.2285C1483.47 32.7207 1483.52 33.2334 1483.52 33.7666V35.4541ZM1481.39 33.749C1481.39 33.4268 1481.37 33.1104 1481.33 32.7998C1481.3 32.4893 1481.25 32.1934 1481.17 31.9121C1481.09 31.5898 1480.97 31.2969 1480.82 31.0332C1480.68 30.7637 1480.51 30.5352 1480.3 30.3477C1480.12 30.1836 1479.92 30.0547 1479.68 29.9609C1479.45 29.8672 1479.18 29.8203 1478.88 29.8203C1478.59 29.8203 1478.34 29.8672 1478.11 29.9609C1477.88 30.0488 1477.68 30.1719 1477.51 30.3301C1477.3 30.5234 1477.13 30.7549 1476.99 31.0244C1476.85 31.2881 1476.74 31.584 1476.67 31.9121C1476.6 32.1934 1476.54 32.4922 1476.51 32.8086C1476.48 33.1191 1476.46 33.4326 1476.46 33.749V35.4541C1476.46 35.7646 1476.48 36.0723 1476.51 36.377C1476.54 36.6816 1476.59 36.9746 1476.66 37.2559C1476.73 37.5723 1476.84 37.8682 1476.96 38.1436C1477.1 38.4131 1477.26 38.6416 1477.45 38.8291C1477.63 39.0049 1477.84 39.1455 1478.07 39.251C1478.31 39.3506 1478.59 39.4004 1478.9 39.4004C1479.2 39.4004 1479.47 39.3506 1479.71 39.251C1479.95 39.1514 1480.16 39.0166 1480.34 38.8467C1480.54 38.6533 1480.71 38.4248 1480.85 38.1611C1480.99 37.8916 1481.1 37.5957 1481.18 37.2734C1481.25 36.9922 1481.3 36.6992 1481.33 36.3945C1481.37 36.084 1481.39 35.7705 1481.39 35.4541V33.749ZM1496.37 41V28.2031H1499.54C1500.09 28.2031 1500.6 28.2676 1501.09 28.3965C1501.58 28.5195 1502.02 28.6924 1502.42 28.915C1502.85 29.1436 1503.24 29.4307 1503.57 29.7764C1503.91 30.1221 1504.19 30.5088 1504.42 30.9365C1504.66 31.3818 1504.84 31.8711 1504.97 32.4043C1505.1 32.9375 1505.16 33.5059 1505.16 34.1094V35.1113C1505.16 35.6914 1505.1 36.2422 1504.98 36.7637C1504.86 37.2793 1504.69 37.751 1504.47 38.1787C1504.25 38.5947 1503.99 38.9727 1503.67 39.3125C1503.37 39.6523 1503.03 39.9424 1502.66 40.1826C1502.23 40.4463 1501.76 40.6484 1501.25 40.7891C1500.74 40.9297 1500.19 41 1499.61 41H1496.37ZM1498.51 29.9258V39.2861H1499.61C1499.98 39.2861 1500.32 39.2422 1500.63 39.1543C1500.95 39.0605 1501.23 38.9287 1501.49 38.7588C1501.74 38.583 1501.97 38.3633 1502.17 38.0996C1502.38 37.8301 1502.54 37.5225 1502.67 37.1768C1502.78 36.8838 1502.87 36.5645 1502.93 36.2188C1502.99 35.873 1503.02 35.5039 1503.02 35.1113V34.0918C1503.02 33.7051 1502.99 33.3389 1502.93 32.9932C1502.87 32.6475 1502.78 32.3281 1502.67 32.0352C1502.53 31.6777 1502.34 31.3555 1502.11 31.0684C1501.88 30.7754 1501.6 30.5381 1501.28 30.3564C1501.04 30.2217 1500.78 30.1191 1500.48 30.0488C1500.19 29.9727 1499.88 29.9316 1499.54 29.9258H1498.51ZM1515.95 35.4541C1515.95 35.9697 1515.91 36.4678 1515.81 36.9482C1515.72 37.4287 1515.6 37.8828 1515.43 38.3105C1515.24 38.7383 1515.02 39.1338 1514.75 39.4971C1514.48 39.8545 1514.17 40.1621 1513.82 40.4199C1513.48 40.6543 1513.1 40.8389 1512.68 40.9736C1512.27 41.1084 1511.82 41.1758 1511.33 41.1758C1510.82 41.1758 1510.35 41.1055 1509.92 40.9648C1509.5 40.8184 1509.12 40.6191 1508.79 40.3672C1508.45 40.1094 1508.15 39.7988 1507.89 39.4355C1507.64 39.0723 1507.43 38.6738 1507.26 38.2402C1507.1 37.8242 1506.97 37.3818 1506.89 36.9131C1506.81 36.4385 1506.77 35.9521 1506.77 35.4541V33.7666C1506.77 33.2451 1506.81 32.7412 1506.9 32.2549C1506.99 31.7686 1507.12 31.3086 1507.3 30.875C1507.47 30.459 1507.67 30.0781 1507.92 29.7324C1508.17 29.3809 1508.47 29.0762 1508.81 28.8184C1509.14 28.5664 1509.51 28.373 1509.92 28.2383C1510.35 28.0977 1510.81 28.0273 1511.31 28.0273C1511.82 28.0273 1512.29 28.0977 1512.72 28.2383C1513.15 28.3789 1513.53 28.5752 1513.87 28.8271C1514.21 29.0791 1514.51 29.375 1514.76 29.7148C1515.01 30.0547 1515.22 30.4268 1515.39 30.8311C1515.58 31.2646 1515.72 31.7305 1515.81 32.2285C1515.91 32.7207 1515.95 33.2334 1515.95 33.7666V35.4541ZM1513.83 33.749C1513.82 33.4268 1513.8 33.1104 1513.76 32.7998C1513.74 32.4893 1513.68 32.1934 1513.61 31.9121C1513.52 31.5898 1513.4 31.2969 1513.25 31.0332C1513.11 30.7637 1512.94 30.5352 1512.74 30.3477C1512.55 30.1836 1512.35 30.0547 1512.11 29.9609C1511.88 29.8672 1511.61 29.8203 1511.31 29.8203C1511.03 29.8203 1510.77 29.8672 1510.54 29.9609C1510.31 30.0488 1510.11 30.1719 1509.94 30.3301C1509.74 30.5234 1509.56 30.7549 1509.42 31.0244C1509.28 31.2881 1509.17 31.584 1509.1 31.9121C1509.03 32.1934 1508.97 32.4922 1508.94 32.8086C1508.91 33.1191 1508.9 33.4326 1508.9 33.749V35.4541C1508.9 35.7646 1508.91 36.0723 1508.94 36.377C1508.97 36.6816 1509.02 36.9746 1509.09 37.2559C1509.17 37.5723 1509.27 37.8682 1509.4 38.1436C1509.53 38.4131 1509.69 38.6416 1509.88 38.8291C1510.06 39.0049 1510.27 39.1455 1510.5 39.251C1510.74 39.3506 1511.02 39.4004 1511.33 39.4004C1511.63 39.4004 1511.9 39.3506 1512.14 39.251C1512.38 39.1514 1512.6 39.0166 1512.77 38.8467C1512.98 38.6533 1513.15 38.4248 1513.28 38.1611C1513.42 37.8916 1513.53 37.5957 1513.62 37.2734C1513.69 36.9922 1513.74 36.6992 1513.76 36.3945C1513.8 36.084 1513.82 35.7705 1513.83 35.4541V33.749ZM1526.35 41H1524.23L1520.08 32.1934L1520.07 41H1517.93V28.2031H1520.08L1524.21 36.9746L1524.22 28.2031H1526.35V41ZM1535.11 38.0557H1531.1L1530.23 41H1528.03L1532.2 28.2031H1534.07L1538.16 41H1535.97L1535.11 38.0557ZM1531.63 36.2451H1534.59L1533.13 31.1826L1531.63 36.2451ZM1548.79 29.9521H1544.84V41H1542.74V29.9521H1538.82V28.2031H1548.79V29.9521ZM1559.2 35.4541C1559.2 35.9697 1559.15 36.4678 1559.05 36.9482C1558.97 37.4287 1558.84 37.8828 1558.67 38.3105C1558.49 38.7383 1558.26 39.1338 1557.99 39.4971C1557.72 39.8545 1557.41 40.1621 1557.06 40.4199C1556.72 40.6543 1556.34 40.8389 1555.93 40.9736C1555.52 41.1084 1555.06 41.1758 1554.57 41.1758C1554.06 41.1758 1553.59 41.1055 1553.17 40.9648C1552.74 40.8184 1552.37 40.6191 1552.03 40.3672C1551.69 40.1094 1551.39 39.7988 1551.14 39.4355C1550.88 39.0723 1550.67 38.6738 1550.5 38.2402C1550.34 37.8242 1550.22 37.3818 1550.13 36.9131C1550.05 36.4385 1550.01 35.9521 1550.01 35.4541V33.7666C1550.01 33.2451 1550.05 32.7412 1550.14 32.2549C1550.23 31.7686 1550.36 31.3086 1550.54 30.875C1550.71 30.459 1550.92 30.0781 1551.16 29.7324C1551.41 29.3809 1551.71 29.0762 1552.05 28.8184C1552.38 28.5664 1552.75 28.373 1553.17 28.2383C1553.59 28.0977 1554.05 28.0273 1554.55 28.0273C1555.06 28.0273 1555.53 28.0977 1555.96 28.2383C1556.39 28.3789 1556.77 28.5752 1557.11 28.8271C1557.45 29.0791 1557.75 29.375 1558 29.7148C1558.25 30.0547 1558.46 30.4268 1558.63 30.8311C1558.82 31.2646 1558.96 31.7305 1559.05 32.2285C1559.15 32.7207 1559.2 33.2334 1559.2 33.7666V35.4541ZM1557.07 33.749C1557.06 33.4268 1557.04 33.1104 1557.01 32.7998C1556.98 32.4893 1556.92 32.1934 1556.85 31.9121C1556.76 31.5898 1556.64 31.2969 1556.5 31.0332C1556.36 30.7637 1556.18 30.5352 1555.98 30.3477C1555.8 30.1836 1555.59 30.0547 1555.35 29.9609C1555.12 29.8672 1554.85 29.8203 1554.55 29.8203C1554.27 29.8203 1554.01 29.8672 1553.78 29.9609C1553.55 30.0488 1553.35 30.1719 1553.18 30.3301C1552.98 30.5234 1552.81 30.7549 1552.67 31.0244C1552.52 31.2881 1552.42 31.584 1552.34 31.9121C1552.27 32.1934 1552.22 32.4922 1552.18 32.8086C1552.15 33.1191 1552.14 33.4326 1552.14 33.749V35.4541C1552.14 35.7646 1552.15 36.0723 1552.18 36.377C1552.21 36.6816 1552.26 36.9746 1552.33 37.2559C1552.41 37.5723 1552.51 37.8682 1552.64 38.1436C1552.77 38.4131 1552.93 38.6416 1553.12 38.8291C1553.3 39.0049 1553.51 39.1455 1553.75 39.251C1553.99 39.3506 1554.26 39.4004 1554.57 39.4004C1554.87 39.4004 1555.14 39.3506 1555.38 39.251C1555.63 39.1514 1555.84 39.0166 1556.01 38.8467C1556.22 38.6533 1556.39 38.4248 1556.52 38.1611C1556.66 37.8916 1556.78 37.5957 1556.86 37.2734C1556.93 36.9922 1556.98 36.6992 1557.01 36.3945C1557.04 36.084 1557.06 35.7705 1557.07 35.4541V33.749Z" fill="#F7F8FF"/>
<path d="M1340.79 64.0547H1336.99L1336.08 67H1334.63L1338.3 55.625H1339.52L1343.12 67H1341.69L1340.79 64.0547ZM1337.38 62.7969H1340.41L1338.91 57.8594L1337.38 62.7969ZM1346.6 65.7734H1352.16V67H1345.16V55.625H1346.6V65.7734ZM1356.21 65.7734H1361.77V67H1354.77V55.625H1356.21V65.7734ZM1377.56 62.3594H1375.29V67H1373.85V55.625H1377.19C1377.72 55.6354 1378.22 55.7109 1378.69 55.8516C1379.16 55.9922 1379.57 56.2031 1379.92 56.4844C1380.27 56.7656 1380.54 57.1198 1380.74 57.5469C1380.95 57.9688 1381.05 58.4661 1381.05 59.0391C1381.05 59.4089 1380.99 59.7474 1380.88 60.0547C1380.78 60.362 1380.63 60.6406 1380.45 60.8906C1380.26 61.1406 1380.03 61.362 1379.77 61.5547C1379.51 61.7474 1379.23 61.9115 1378.91 62.0469L1381.33 66.9062L1381.32 67H1379.8L1377.56 62.3594ZM1375.29 61.1719H1377.23C1377.55 61.1667 1377.85 61.1172 1378.14 61.0234C1378.43 60.9245 1378.68 60.7839 1378.9 60.6016C1379.11 60.4193 1379.28 60.1979 1379.41 59.9375C1379.53 59.6719 1379.59 59.3672 1379.59 59.0234C1379.59 58.6589 1379.53 58.3411 1379.41 58.0703C1379.29 57.7943 1379.13 57.5625 1378.91 57.375C1378.7 57.1927 1378.45 57.0547 1378.15 56.9609C1377.86 56.8672 1377.54 56.8177 1377.19 56.8125H1375.29V61.1719ZM1383.41 55.625H1390.28V56.8828H1387.55V65.75H1390.28V67H1383.41V65.75H1386.07V56.8828H1383.41V55.625ZM1400.38 65.5078C1400.2 65.7161 1400.01 65.9062 1399.81 66.0781C1399.61 66.2448 1399.41 66.3906 1399.2 66.5156C1398.83 66.7344 1398.44 66.8958 1398.02 67C1397.59 67.1094 1397.15 67.1615 1396.69 67.1562C1396.22 67.151 1395.79 67.0807 1395.39 66.9453C1395 66.8047 1394.65 66.612 1394.34 66.3672C1394.02 66.1276 1393.75 65.8438 1393.52 65.5156C1393.28 65.1875 1393.09 64.8307 1392.93 64.4453C1392.77 64.0651 1392.65 63.6667 1392.56 63.25C1392.48 62.8281 1392.44 62.4036 1392.44 61.9766V60.6562C1392.44 60.2344 1392.48 59.8151 1392.55 59.3984C1392.62 58.9766 1392.73 58.5729 1392.88 58.1875C1393.02 57.8021 1393.2 57.4453 1393.42 57.1172C1393.64 56.7839 1393.9 56.4948 1394.21 56.25C1394.51 56.0104 1394.86 55.8203 1395.24 55.6797C1395.63 55.5391 1396.06 55.4688 1396.54 55.4688C1397.07 55.4688 1397.56 55.5521 1398.01 55.7188C1398.46 55.8802 1398.85 56.112 1399.18 56.4141C1399.51 56.7214 1399.78 57.0911 1399.98 57.5234C1400.19 57.9505 1400.31 58.4297 1400.36 58.9609H1398.93C1398.87 58.6328 1398.78 58.3307 1398.66 58.0547C1398.54 57.7734 1398.39 57.5339 1398.2 57.3359C1398 57.138 1397.76 56.9844 1397.49 56.875C1397.22 56.7604 1396.91 56.7031 1396.55 56.7031C1396.2 56.7031 1395.9 56.763 1395.63 56.8828C1395.37 56.9974 1395.14 57.1536 1394.94 57.3516C1394.74 57.5495 1394.58 57.7812 1394.45 58.0469C1394.32 58.3073 1394.21 58.5833 1394.12 58.875C1394.04 59.1667 1393.98 59.4635 1393.95 59.7656C1393.91 60.0677 1393.89 60.3594 1393.89 60.6406V61.9766C1393.9 62.263 1393.92 62.5599 1393.96 62.8672C1394.01 63.1693 1394.08 63.4661 1394.17 63.7578C1394.27 64.0495 1394.39 64.3255 1394.53 64.5859C1394.68 64.8464 1394.85 65.0755 1395.06 65.2734C1395.27 65.4714 1395.5 65.6302 1395.77 65.75C1396.04 65.8646 1396.35 65.9245 1396.7 65.9297C1396.89 65.9349 1397.1 65.9271 1397.31 65.9062C1397.53 65.8854 1397.74 65.8438 1397.95 65.7812C1398.15 65.7188 1398.34 65.6354 1398.52 65.5312C1398.69 65.4219 1398.84 65.2812 1398.96 65.1094L1398.98 62.5547H1396.66V61.3359H1400.35L1400.38 65.5078ZM1409.76 67H1408.39V61.7422H1403.73V67H1402.37V55.625H1403.73V60.5156H1408.39V55.625H1409.76V67ZM1419.91 56.8594H1416.39V67H1414.98V56.8594H1411.47V55.625H1419.91V56.8594ZM1427.8 64.125C1427.8 63.776 1427.72 63.4818 1427.55 63.2422C1427.4 63.0026 1427.2 62.7995 1426.95 62.6328C1426.7 62.4714 1426.42 62.3359 1426.12 62.2266C1425.82 62.1172 1425.53 62.0182 1425.26 61.9297C1424.86 61.7995 1424.45 61.6432 1424.03 61.4609C1423.62 61.2734 1423.24 61.0495 1422.91 60.7891C1422.56 60.5234 1422.28 60.2109 1422.06 59.8516C1421.85 59.487 1421.74 59.0599 1421.74 58.5703C1421.74 58.0807 1421.85 57.6432 1422.06 57.2578C1422.28 56.8724 1422.57 56.5469 1422.91 56.2812C1423.26 56.0156 1423.66 55.8151 1424.1 55.6797C1424.54 55.5391 1424.99 55.4688 1425.44 55.4688C1425.93 55.4688 1426.41 55.5521 1426.87 55.7188C1427.33 55.8802 1427.73 56.1094 1428.09 56.4062C1428.44 56.7031 1428.72 57.0625 1428.94 57.4844C1429.15 57.9062 1429.26 58.3776 1429.27 58.8984H1427.79C1427.75 58.5703 1427.67 58.2734 1427.55 58.0078C1427.43 57.737 1427.27 57.5052 1427.07 57.3125C1426.87 57.1198 1426.64 56.9714 1426.36 56.8672C1426.09 56.7578 1425.78 56.7031 1425.44 56.7031C1425.16 56.7031 1424.89 56.7422 1424.62 56.8203C1424.36 56.8984 1424.13 57.0156 1423.93 57.1719C1423.72 57.3281 1423.55 57.5208 1423.43 57.75C1423.31 57.9792 1423.25 58.2448 1423.25 58.5469C1423.26 58.875 1423.34 59.1536 1423.5 59.3828C1423.66 59.6068 1423.87 59.7969 1424.12 59.9531C1424.36 60.1094 1424.63 60.2396 1424.91 60.3438C1425.21 60.4479 1425.48 60.5391 1425.73 60.6172C1426.16 60.7474 1426.58 60.9062 1427 61.0938C1427.42 61.276 1427.81 61.5104 1428.16 61.7969C1428.5 62.0625 1428.78 62.388 1428.98 62.7734C1429.2 63.1589 1429.3 63.6042 1429.3 64.1094C1429.3 64.6198 1429.19 65.0651 1428.96 65.4453C1428.74 65.8255 1428.45 66.1406 1428.09 66.3906C1427.73 66.6458 1427.32 66.8385 1426.87 66.9688C1426.41 67.0938 1425.96 67.1562 1425.51 67.1562C1424.97 67.1562 1424.43 67.0651 1423.91 66.8828C1423.39 66.7005 1422.93 66.4375 1422.55 66.0938C1422.2 65.7969 1421.93 65.4505 1421.73 65.0547C1421.53 64.6536 1421.42 64.2083 1421.41 63.7188H1422.88C1422.93 64.0729 1423.03 64.388 1423.17 64.6641C1423.32 64.9349 1423.51 65.1641 1423.73 65.3516C1423.96 65.5443 1424.23 65.6901 1424.52 65.7891C1424.83 65.8828 1425.15 65.9297 1425.51 65.9297C1425.79 65.9297 1426.07 65.8958 1426.34 65.8281C1426.61 65.7552 1426.86 65.6432 1427.07 65.4922C1427.28 65.3464 1427.46 65.1615 1427.59 64.9375C1427.73 64.7083 1427.8 64.4375 1427.8 64.125ZM1444.83 62.3594H1442.55V67H1441.12V55.625H1444.45C1444.98 55.6354 1445.48 55.7109 1445.95 55.8516C1446.42 55.9922 1446.83 56.2031 1447.19 56.4844C1447.54 56.7656 1447.81 57.1198 1448.01 57.5469C1448.21 57.9688 1448.31 58.4661 1448.31 59.0391C1448.31 59.4089 1448.26 59.7474 1448.15 60.0547C1448.04 60.362 1447.9 60.6406 1447.71 60.8906C1447.52 61.1406 1447.3 61.362 1447.04 61.5547C1446.78 61.7474 1446.49 61.9115 1446.18 62.0469L1448.59 66.9062L1448.59 67H1447.06L1444.83 62.3594ZM1442.55 61.1719H1444.49C1444.82 61.1667 1445.12 61.1172 1445.41 61.0234C1445.69 60.9245 1445.95 60.7839 1446.16 60.6016C1446.38 60.4193 1446.55 60.1979 1446.67 59.9375C1446.8 59.6719 1446.86 59.3672 1446.86 59.0234C1446.86 58.6589 1446.8 58.3411 1446.68 58.0703C1446.56 57.7943 1446.39 57.5625 1446.18 57.375C1445.97 57.1927 1445.71 57.0547 1445.41 56.9609C1445.12 56.8672 1444.8 56.8177 1444.45 56.8125H1442.55V61.1719ZM1456.93 61.7422H1452.18V65.7734H1457.72V67H1450.73V55.625H1457.65V56.8594H1452.18V60.5156H1456.93V61.7422ZM1466.23 64.125C1466.23 63.776 1466.15 63.4818 1465.99 63.2422C1465.84 63.0026 1465.63 62.7995 1465.38 62.6328C1465.13 62.4714 1464.86 62.3359 1464.55 62.2266C1464.26 62.1172 1463.97 62.0182 1463.7 61.9297C1463.29 61.7995 1462.89 61.6432 1462.47 61.4609C1462.06 61.2734 1461.68 61.0495 1461.34 60.7891C1461 60.5234 1460.72 60.2109 1460.5 59.8516C1460.29 59.487 1460.18 59.0599 1460.18 58.5703C1460.18 58.0807 1460.29 57.6432 1460.5 57.2578C1460.72 56.8724 1461 56.5469 1461.35 56.2812C1461.7 56.0156 1462.1 55.8151 1462.54 55.6797C1462.98 55.5391 1463.43 55.4688 1463.88 55.4688C1464.37 55.4688 1464.85 55.5521 1465.3 55.7188C1465.76 55.8802 1466.17 56.1094 1466.52 56.4062C1466.88 56.7031 1467.16 57.0625 1467.38 57.4844C1467.59 57.9062 1467.7 58.3776 1467.71 58.8984H1466.23C1466.18 58.5703 1466.1 58.2734 1465.98 58.0078C1465.86 57.737 1465.71 57.5052 1465.51 57.3125C1465.31 57.1198 1465.07 56.9714 1464.8 56.8672C1464.53 56.7578 1464.22 56.7031 1463.88 56.7031C1463.6 56.7031 1463.33 56.7422 1463.06 56.8203C1462.8 56.8984 1462.57 57.0156 1462.37 57.1719C1462.16 57.3281 1461.99 57.5208 1461.87 57.75C1461.75 57.9792 1461.69 58.2448 1461.69 58.5469C1461.69 58.875 1461.78 59.1536 1461.94 59.3828C1462.1 59.6068 1462.3 59.7969 1462.55 59.9531C1462.8 60.1094 1463.07 60.2396 1463.35 60.3438C1463.64 60.4479 1463.92 60.5391 1464.17 60.6172C1464.59 60.7474 1465.02 60.9062 1465.44 61.0938C1465.86 61.276 1466.24 61.5104 1466.59 61.7969C1466.94 62.0625 1467.21 62.388 1467.42 62.7734C1467.64 63.1589 1467.74 63.6042 1467.74 64.1094C1467.74 64.6198 1467.63 65.0651 1467.4 65.4453C1467.17 65.8255 1466.88 66.1406 1466.52 66.3906C1466.16 66.6458 1465.76 66.8385 1465.3 66.9688C1464.85 67.0938 1464.4 67.1562 1463.95 67.1562C1463.4 67.1562 1462.87 67.0651 1462.34 66.8828C1461.82 66.7005 1461.37 66.4375 1460.98 66.0938C1460.64 65.7969 1460.37 65.4505 1460.16 65.0547C1459.97 64.6536 1459.86 64.2083 1459.84 63.7188H1461.32C1461.37 64.0729 1461.46 64.388 1461.61 64.6641C1461.76 64.9349 1461.94 65.1641 1462.17 65.3516C1462.4 65.5443 1462.66 65.6901 1462.96 65.7891C1463.26 65.8828 1463.59 65.9297 1463.95 65.9297C1464.23 65.9297 1464.5 65.8958 1464.77 65.8281C1465.05 65.7552 1465.29 65.6432 1465.51 65.4922C1465.72 65.3464 1465.9 65.1615 1466.03 64.9375C1466.17 64.7083 1466.23 64.4375 1466.23 64.125ZM1476.15 61.7422H1471.4V65.7734H1476.94V67H1469.95V55.625H1476.87V56.8594H1471.4V60.5156H1476.15V61.7422ZM1483.27 62.3594H1480.99V67H1479.55V55.625H1482.89C1483.42 55.6354 1483.92 55.7109 1484.39 55.8516C1484.86 55.9922 1485.27 56.2031 1485.62 56.4844C1485.97 56.7656 1486.25 57.1198 1486.45 57.5469C1486.65 57.9688 1486.75 58.4661 1486.75 59.0391C1486.75 59.4089 1486.7 59.7474 1486.59 60.0547C1486.48 60.362 1486.34 60.6406 1486.15 60.8906C1485.96 61.1406 1485.74 61.362 1485.48 61.5547C1485.22 61.7474 1484.93 61.9115 1484.62 62.0469L1487.03 66.9062L1487.02 67H1485.5L1483.27 62.3594ZM1480.99 61.1719H1482.93C1483.25 61.1667 1483.56 61.1172 1483.84 61.0234C1484.13 60.9245 1484.38 60.7839 1484.6 60.6016C1484.82 60.4193 1484.98 60.1979 1485.11 59.9375C1485.23 59.6719 1485.3 59.3672 1485.3 59.0234C1485.3 58.6589 1485.24 58.3411 1485.12 58.0703C1485 57.7943 1484.83 57.5625 1484.62 57.375C1484.4 57.1927 1484.15 57.0547 1483.85 56.9609C1483.56 56.8672 1483.24 56.8177 1482.89 56.8125H1480.99V61.1719ZM1491.9 67L1488.3 55.625H1489.85L1492.35 64.1172L1492.52 64.6719L1492.69 64.1016L1495.2 55.625H1496.74L1493.16 67H1491.9ZM1504.98 61.7422H1500.23V65.7734H1505.77V67H1498.78V55.625H1505.7V56.8594H1500.23V60.5156H1504.98V61.7422ZM1508.18 67V55.625H1510.81C1511.26 55.6302 1511.67 55.6771 1512.06 55.7656C1512.46 55.849 1512.82 55.9688 1513.16 56.125C1513.62 56.3385 1514.03 56.6198 1514.38 56.9688C1514.74 57.3125 1515.03 57.7109 1515.24 58.1641C1515.43 58.5495 1515.58 58.9714 1515.68 59.4297C1515.78 59.888 1515.84 60.3776 1515.84 60.8984V61.7344C1515.84 62.2344 1515.79 62.7083 1515.7 63.1562C1515.6 63.6042 1515.46 64.0156 1515.28 64.3906C1515.09 64.7812 1514.86 65.1354 1514.57 65.4531C1514.28 65.7708 1513.96 66.0417 1513.61 66.2656C1513.23 66.5 1512.81 66.6797 1512.34 66.8047C1511.87 66.9297 1511.36 66.9948 1510.81 67H1508.18ZM1509.65 56.8125V65.8203H1510.81C1511.23 65.8151 1511.61 65.763 1511.95 65.6641C1512.29 65.5651 1512.59 65.4245 1512.86 65.2422C1513.14 65.0547 1513.38 64.8255 1513.59 64.5547C1513.79 64.2786 1513.96 63.9714 1514.08 63.6328C1514.18 63.3568 1514.26 63.0599 1514.31 62.7422C1514.36 62.4193 1514.39 62.0833 1514.4 61.7344V60.8828C1514.39 60.5286 1514.36 60.1901 1514.3 59.8672C1514.25 59.5391 1514.17 59.2344 1514.06 58.9531C1513.92 58.5885 1513.73 58.2604 1513.49 57.9688C1513.26 57.6719 1512.97 57.4323 1512.62 57.25C1512.38 57.1146 1512.11 57.0104 1511.8 56.9375C1511.5 56.8594 1511.17 56.8177 1510.81 56.8125H1509.65Z" fill="white" fill-opacity="0.5"/>
<ellipse cx="29.4461" cy="29.7324" rx="9.44615" ry="9.73239" fill="#FF5F5A"/>
<ellipse cx="62.1327" cy="29.7324" rx="9.44615" ry="9.73239" fill="#FFBE2E"/>
<ellipse cx="94.8194" cy="29.7324" rx="9.44615" ry="9.73239" fill="#2ACA44"/>
<mask id="path-6-inside-1_1644_2" fill="white">
<path d="M0 365H1584V396H0V365Z"/>
</mask>
<path d="M0 365V365.5H1584V365V364.5H0V365Z" fill="white" fill-opacity="0.25" mask="url(#path-6-inside-1_1644_2)"/>
<path d="M46 386.5L52 380.5L46 374.5" stroke="#91A7FF" stroke-width="2" stroke-linecap="round" stroke-linejoin="round"/>
<path d="M38 374.5L32 380.5L38 386.5" stroke="#91A7FF" stroke-width="2" stroke-linecap="round" stroke-linejoin="round"/>
<path d="M584.938 381.938V386.5H583.492V375.125H587.18C587.69 375.135 588.172 375.216 588.625 375.367C589.083 375.518 589.484 375.737 589.828 376.023C590.172 376.31 590.443 376.664 590.641 377.086C590.844 377.508 590.945 377.992 590.945 378.539C590.945 379.086 590.844 379.57 590.641 379.992C590.443 380.409 590.172 380.76 589.828 381.047C589.484 381.333 589.083 381.552 588.625 381.703C588.172 381.854 587.69 381.932 587.18 381.938H584.938ZM584.938 380.75H587.18C587.513 380.745 587.82 380.693 588.102 380.594C588.383 380.49 588.628 380.344 588.836 380.156C589.044 379.969 589.206 379.742 589.32 379.477C589.44 379.206 589.5 378.898 589.5 378.555C589.5 378.211 589.44 377.901 589.32 377.625C589.206 377.349 589.047 377.115 588.844 376.922C588.635 376.729 588.388 376.581 588.102 376.477C587.82 376.372 587.513 376.318 587.18 376.312H584.938V380.75ZM593.648 389.914C593.513 389.914 593.354 389.898 593.172 389.867C592.99 389.836 592.852 389.81 592.758 389.789L592.992 388.609C593.122 388.62 593.25 388.628 593.375 388.633C593.505 388.643 593.607 388.648 593.68 388.648C593.878 388.648 594.057 388.594 594.219 388.484C594.385 388.375 594.534 388.245 594.664 388.094C594.789 387.943 594.896 387.786 594.984 387.625C595.078 387.464 595.151 387.331 595.203 387.227L595.781 386.102L592.141 378.047H593.758L596.078 383.5L596.453 384.523L596.852 383.531L599.031 378.047H600.648L596.359 387.805C596.26 388.023 596.133 388.255 595.977 388.5C595.826 388.745 595.641 388.971 595.422 389.18C595.203 389.388 594.948 389.562 594.656 389.703C594.365 389.844 594.029 389.914 593.648 389.914ZM606 376V378.047H609.219V379.164H606V383.758C606 384.086 606.042 384.357 606.125 384.57C606.208 384.784 606.323 384.953 606.469 385.078C606.615 385.208 606.781 385.299 606.969 385.352C607.161 385.404 607.365 385.43 607.578 385.43C607.734 385.43 607.896 385.422 608.062 385.406C608.229 385.385 608.393 385.362 608.555 385.336C608.711 385.31 608.857 385.284 608.992 385.258C609.133 385.227 609.247 385.201 609.336 385.18L609.539 386.203C609.419 386.276 609.273 386.341 609.102 386.398C608.93 386.451 608.742 386.495 608.539 386.531C608.336 386.573 608.12 386.604 607.891 386.625C607.667 386.646 607.443 386.656 607.219 386.656C606.844 386.656 606.492 386.604 606.164 386.5C605.841 386.391 605.56 386.219 605.32 385.984C605.081 385.755 604.891 385.458 604.75 385.094C604.615 384.724 604.547 384.279 604.547 383.758V379.164H602.328V378.047H604.547V376H606ZM613.633 379.305C613.747 379.133 613.875 378.977 614.016 378.836C614.156 378.69 614.305 378.562 614.461 378.453C614.711 378.271 614.984 378.133 615.281 378.039C615.583 377.945 615.904 377.896 616.242 377.891C616.685 377.891 617.086 377.956 617.445 378.086C617.81 378.211 618.12 378.409 618.375 378.68C618.63 378.951 618.826 379.294 618.961 379.711C619.102 380.122 619.172 380.612 619.172 381.18V386.5H617.727V381.164C617.727 380.831 617.688 380.539 617.609 380.289C617.531 380.034 617.417 379.823 617.266 379.656C617.104 379.474 616.901 379.339 616.656 379.25C616.411 379.156 616.13 379.112 615.812 379.117C615.552 379.117 615.305 379.154 615.07 379.227C614.836 379.299 614.62 379.404 614.422 379.539C614.266 379.643 614.12 379.766 613.984 379.906C613.854 380.042 613.737 380.193 613.633 380.359V386.5H612.188V374.5H613.633V379.305ZM621.391 382.195C621.391 381.586 621.479 381.021 621.656 380.5C621.833 379.974 622.089 379.518 622.422 379.133C622.75 378.747 623.151 378.445 623.625 378.227C624.099 378.003 624.633 377.891 625.227 377.891C625.826 377.891 626.362 378.003 626.836 378.227C627.315 378.445 627.721 378.747 628.055 379.133C628.383 379.518 628.635 379.974 628.812 380.5C628.99 381.021 629.078 381.586 629.078 382.195V382.367C629.078 382.977 628.99 383.542 628.812 384.062C628.635 384.583 628.383 385.036 628.055 385.422C627.721 385.807 627.318 386.109 626.844 386.328C626.37 386.547 625.836 386.656 625.242 386.656C624.643 386.656 624.104 386.547 623.625 386.328C623.151 386.109 622.75 385.807 622.422 385.422C622.089 385.036 621.833 384.583 621.656 384.062C621.479 383.542 621.391 382.977 621.391 382.367V382.195ZM622.836 382.367C622.836 382.784 622.885 383.182 622.984 383.562C623.083 383.938 623.234 384.268 623.438 384.555C623.635 384.841 623.885 385.068 624.188 385.234C624.49 385.401 624.841 385.484 625.242 385.484C625.638 385.484 625.984 385.401 626.281 385.234C626.583 385.068 626.836 384.841 627.039 384.555C627.237 384.268 627.385 383.938 627.484 383.562C627.583 383.182 627.633 382.784 627.633 382.367V382.195C627.633 381.784 627.581 381.391 627.477 381.016C627.378 380.635 627.229 380.302 627.031 380.016C626.828 379.729 626.576 379.503 626.273 379.336C625.977 379.164 625.628 379.078 625.227 379.078C624.826 379.078 624.477 379.164 624.18 379.336C623.883 379.503 623.635 379.729 623.438 380.016C623.234 380.302 623.083 380.635 622.984 381.016C622.885 381.391 622.836 381.784 622.836 382.195V382.367ZM631.406 386.5V378.047H632.703L632.805 379.297C632.93 379.12 633.065 378.958 633.211 378.812C633.362 378.661 633.521 378.531 633.688 378.422C633.938 378.255 634.208 378.128 634.5 378.039C634.797 377.945 635.109 377.896 635.438 377.891C635.88 377.891 636.281 377.953 636.641 378.078C637.005 378.203 637.315 378.398 637.57 378.664C637.826 378.93 638.021 379.268 638.156 379.68C638.297 380.086 638.367 380.57 638.367 381.133V386.5H636.922V381.164C636.922 380.789 636.88 380.471 636.797 380.211C636.714 379.951 636.591 379.74 636.43 379.578C636.263 379.417 636.06 379.299 635.82 379.227C635.586 379.154 635.315 379.117 635.008 379.117C634.742 379.117 634.495 379.156 634.266 379.234C634.036 379.307 633.826 379.409 633.633 379.539C633.477 379.654 633.331 379.786 633.195 379.938C633.065 380.089 632.951 380.255 632.852 380.438V386.5H631.406Z" fill="white" fill-opacity="0.5"/>
<path d="M673.047 380.117H674.078C674.443 380.117 674.763 380.068 675.039 379.969C675.32 379.87 675.557 379.734 675.75 379.562C675.938 379.391 676.081 379.185 676.18 378.945C676.279 378.706 676.328 378.443 676.328 378.156C676.328 377.818 676.284 377.523 676.195 377.273C676.107 377.018 675.977 376.807 675.805 376.641C675.638 376.479 675.43 376.359 675.18 376.281C674.935 376.198 674.654 376.156 674.336 376.156C674.029 376.156 673.747 376.203 673.492 376.297C673.242 376.385 673.029 376.516 672.852 376.688C672.669 376.859 672.529 377.065 672.43 377.305C672.331 377.544 672.281 377.812 672.281 378.109H670.828C670.828 377.677 670.911 377.271 671.078 376.891C671.25 376.505 671.49 376.169 671.797 375.883C672.104 375.602 672.471 375.38 672.898 375.219C673.331 375.052 673.81 374.969 674.336 374.969C674.846 374.969 675.312 375.039 675.734 375.18C676.156 375.315 676.518 375.518 676.82 375.789C677.122 376.06 677.357 376.396 677.523 376.797C677.69 377.198 677.773 377.661 677.773 378.188C677.773 378.406 677.74 378.633 677.672 378.867C677.604 379.102 677.5 379.328 677.359 379.547C677.219 379.771 677.036 379.982 676.812 380.18C676.594 380.372 676.331 380.534 676.023 380.664C676.393 380.784 676.701 380.94 676.945 381.133C677.195 381.326 677.396 381.542 677.547 381.781C677.693 382.021 677.794 382.273 677.852 382.539C677.914 382.805 677.945 383.068 677.945 383.328C677.945 383.859 677.854 384.331 677.672 384.742C677.49 385.154 677.237 385.5 676.914 385.781C676.591 386.068 676.208 386.286 675.766 386.438C675.328 386.583 674.854 386.656 674.344 386.656C673.844 386.656 673.372 386.586 672.93 386.445C672.492 386.305 672.112 386.099 671.789 385.828C671.466 385.557 671.208 385.227 671.016 384.836C670.828 384.445 670.734 384 670.734 383.5H672.18C672.18 383.797 672.229 384.068 672.328 384.312C672.432 384.557 672.578 384.766 672.766 384.938C672.953 385.109 673.18 385.242 673.445 385.336C673.716 385.43 674.016 385.477 674.344 385.477C674.672 385.477 674.969 385.435 675.234 385.352C675.5 385.263 675.727 385.13 675.914 384.953C676.102 384.776 676.245 384.557 676.344 384.297C676.448 384.031 676.5 383.719 676.5 383.359C676.5 383.005 676.44 382.701 676.32 382.445C676.206 382.185 676.044 381.969 675.836 381.797C675.622 381.625 675.365 381.497 675.062 381.414C674.766 381.331 674.438 381.289 674.078 381.289H673.047V380.117ZM683.484 385.562C683.484 385.255 683.578 384.992 683.766 384.773C683.953 384.555 684.237 384.445 684.617 384.445C684.992 384.445 685.276 384.555 685.469 384.773C685.667 384.987 685.766 385.25 685.766 385.562C685.766 385.87 685.667 386.128 685.469 386.336C685.271 386.544 684.987 386.648 684.617 386.648C684.242 386.648 683.958 386.544 683.766 386.336C683.578 386.122 683.484 385.865 683.484 385.562ZM695.266 386.5H693.82V376.969L690.844 378.102V376.781L695.148 375.125H695.266V386.5ZM704.875 386.5H703.43V376.969L700.453 378.102V376.781L704.758 375.125H704.875V386.5ZM712.312 385.562C712.312 385.255 712.406 384.992 712.594 384.773C712.781 384.555 713.065 384.445 713.445 384.445C713.82 384.445 714.104 384.555 714.297 384.773C714.495 384.987 714.594 385.25 714.594 385.562C714.594 385.87 714.495 386.128 714.297 386.336C714.099 386.544 713.815 386.648 713.445 386.648C713.07 386.648 712.786 386.544 712.594 386.336C712.406 386.122 712.312 385.865 712.312 385.562ZM721.094 380.117H722.125C722.49 380.117 722.81 380.068 723.086 379.969C723.367 379.87 723.604 379.734 723.797 379.562C723.984 379.391 724.128 379.185 724.227 378.945C724.326 378.706 724.375 378.443 724.375 378.156C724.375 377.818 724.331 377.523 724.242 377.273C724.154 377.018 724.023 376.807 723.852 376.641C723.685 376.479 723.477 376.359 723.227 376.281C722.982 376.198 722.701 376.156 722.383 376.156C722.076 376.156 721.794 376.203 721.539 376.297C721.289 376.385 721.076 376.516 720.898 376.688C720.716 376.859 720.576 377.065 720.477 377.305C720.378 377.544 720.328 377.812 720.328 378.109H718.875C718.875 377.677 718.958 377.271 719.125 376.891C719.297 376.505 719.536 376.169 719.844 375.883C720.151 375.602 720.518 375.38 720.945 375.219C721.378 375.052 721.857 374.969 722.383 374.969C722.893 374.969 723.359 375.039 723.781 375.18C724.203 375.315 724.565 375.518 724.867 375.789C725.169 376.06 725.404 376.396 725.57 376.797C725.737 377.198 725.82 377.661 725.82 378.188C725.82 378.406 725.786 378.633 725.719 378.867C725.651 379.102 725.547 379.328 725.406 379.547C725.266 379.771 725.083 379.982 724.859 380.18C724.641 380.372 724.378 380.534 724.07 380.664C724.44 380.784 724.747 380.94 724.992 381.133C725.242 381.326 725.443 381.542 725.594 381.781C725.74 382.021 725.841 382.273 725.898 382.539C725.961 382.805 725.992 383.068 725.992 383.328C725.992 383.859 725.901 384.331 725.719 384.742C725.536 385.154 725.284 385.5 724.961 385.781C724.638 386.068 724.255 386.286 723.812 386.438C723.375 386.583 722.901 386.656 722.391 386.656C721.891 386.656 721.419 386.586 720.977 386.445C720.539 386.305 720.159 386.099 719.836 385.828C719.513 385.557 719.255 385.227 719.062 384.836C718.875 384.445 718.781 384 718.781 383.5H720.227C720.227 383.797 720.276 384.068 720.375 384.312C720.479 384.557 720.625 384.766 720.812 384.938C721 385.109 721.227 385.242 721.492 385.336C721.763 385.43 722.062 385.477 722.391 385.477C722.719 385.477 723.016 385.435 723.281 385.352C723.547 385.263 723.773 385.13 723.961 384.953C724.148 384.776 724.292 384.557 724.391 384.297C724.495 384.031 724.547 383.719 724.547 383.359C724.547 383.005 724.487 382.701 724.367 382.445C724.253 382.185 724.091 381.969 723.883 381.797C723.669 381.625 723.411 381.497 723.109 381.414C722.812 381.331 722.484 381.289 722.125 381.289H721.094V380.117Z" fill="white" fill-opacity="0.5"/>
<path d="M766.5 375.125L766.516 382.828C766.516 383.359 766.422 383.857 766.234 384.32C766.047 384.784 765.789 385.188 765.461 385.531C765.133 385.88 764.742 386.156 764.289 386.359C763.836 386.557 763.339 386.656 762.797 386.656C762.245 386.656 761.742 386.557 761.289 386.359C760.836 386.161 760.448 385.888 760.125 385.539C759.802 385.195 759.549 384.792 759.367 384.328C759.185 383.859 759.091 383.359 759.086 382.828L759.102 375.125H760.477L760.508 382.828C760.513 383.167 760.565 383.492 760.664 383.805C760.768 384.117 760.917 384.393 761.109 384.633C761.297 384.872 761.531 385.065 761.812 385.211C762.099 385.357 762.427 385.43 762.797 385.43C763.167 385.43 763.492 385.359 763.773 385.219C764.055 385.073 764.292 384.878 764.484 384.633C764.672 384.393 764.815 384.117 764.914 383.805C765.013 383.492 765.068 383.167 765.078 382.828L765.102 375.125H766.5ZM776.641 376.359H773.125V386.5H771.719V376.359H768.203V375.125H776.641V376.359ZM784.906 381.477H780.172V386.5H778.711V375.125H785.695V376.359H780.172V380.25H784.906V381.477ZM794.508 382.117H788.531V380.93H794.508V382.117ZM804.797 378.094C804.792 378.474 804.719 378.831 804.578 379.164C804.438 379.492 804.242 379.781 803.992 380.031C803.872 380.151 803.74 380.263 803.594 380.367C803.448 380.471 803.292 380.565 803.125 380.648C803.417 380.773 803.68 380.93 803.914 381.117C804.154 381.299 804.359 381.51 804.531 381.75C804.698 381.99 804.826 382.25 804.914 382.531C805.008 382.812 805.055 383.112 805.055 383.43C805.055 383.945 804.958 384.404 804.766 384.805C804.578 385.206 804.323 385.542 804 385.812C803.672 386.089 803.289 386.299 802.852 386.445C802.414 386.586 801.945 386.656 801.445 386.656C800.935 386.656 800.458 386.586 800.016 386.445C799.578 386.305 799.198 386.096 798.875 385.82C798.547 385.549 798.289 385.214 798.102 384.812C797.914 384.411 797.82 383.951 797.82 383.43C797.82 383.112 797.865 382.812 797.953 382.531C798.042 382.245 798.169 381.982 798.336 381.742C798.503 381.508 798.703 381.297 798.938 381.109C799.172 380.922 799.435 380.766 799.727 380.641C799.477 380.516 799.25 380.367 799.047 380.195C798.844 380.018 798.672 379.82 798.531 379.602C798.391 379.388 798.281 379.154 798.203 378.898C798.125 378.643 798.086 378.375 798.086 378.094C798.086 377.599 798.169 377.159 798.336 376.773C798.503 376.383 798.734 376.055 799.031 375.789C799.323 375.523 799.672 375.32 800.078 375.18C800.49 375.039 800.938 374.969 801.422 374.969C801.901 374.969 802.346 375.039 802.758 375.18C803.169 375.32 803.526 375.523 803.828 375.789C804.13 376.055 804.367 376.383 804.539 376.773C804.711 377.159 804.797 377.599 804.797 378.094ZM803.609 383.398C803.609 383.081 803.555 382.789 803.445 382.523C803.341 382.258 803.193 382.029 803 381.836C802.807 381.648 802.576 381.503 802.305 381.398C802.039 381.294 801.747 381.242 801.43 381.242C801.102 381.242 800.805 381.294 800.539 381.398C800.273 381.503 800.047 381.648 799.859 381.836C799.672 382.029 799.526 382.258 799.422 382.523C799.323 382.789 799.273 383.081 799.273 383.398C799.273 383.727 799.323 384.021 799.422 384.281C799.526 384.536 799.672 384.753 799.859 384.93C800.047 385.107 800.273 385.242 800.539 385.336C800.81 385.43 801.112 385.477 801.445 385.477C801.763 385.477 802.055 385.43 802.32 385.336C802.586 385.242 802.815 385.107 803.008 384.93C803.195 384.753 803.341 384.536 803.445 384.281C803.555 384.021 803.609 383.727 803.609 383.398ZM803.344 378.117C803.344 377.831 803.294 377.568 803.195 377.328C803.102 377.089 802.971 376.88 802.805 376.703C802.633 376.531 802.43 376.398 802.195 376.305C801.961 376.206 801.703 376.156 801.422 376.156C801.141 376.156 800.885 376.203 800.656 376.297C800.427 376.385 800.229 376.516 800.062 376.688C799.896 376.859 799.766 377.068 799.672 377.312C799.583 377.552 799.539 377.82 799.539 378.117C799.539 378.414 799.583 378.682 799.672 378.922C799.766 379.156 799.898 379.357 800.07 379.523C800.237 379.695 800.435 379.828 800.664 379.922C800.898 380.01 801.156 380.055 801.438 380.055C801.714 380.055 801.969 380.01 802.203 379.922C802.438 379.828 802.641 379.695 802.812 379.523C802.979 379.357 803.109 379.154 803.203 378.914C803.297 378.674 803.344 378.409 803.344 378.117Z" fill="white" fill-opacity="0.5"/>
<path d="M1336 385.5V375.547H1339.19C1339.67 375.547 1340.13 375.602 1340.55 375.711C1340.97 375.816 1341.34 375.978 1341.65 376.196C1341.96 376.415 1342.2 376.695 1342.38 377.037C1342.55 377.374 1342.64 377.775 1342.64 378.24C1342.64 378.523 1342.59 378.787 1342.49 379.033C1342.4 379.275 1342.27 379.489 1342.1 379.676C1341.97 379.812 1341.83 379.933 1341.68 380.038C1341.53 380.138 1341.35 380.229 1341.15 380.312V380.325C1341.45 380.403 1341.7 380.517 1341.91 380.667C1342.12 380.813 1342.3 380.979 1342.44 381.166C1342.58 381.367 1342.69 381.59 1342.77 381.836C1342.84 382.077 1342.88 382.333 1342.88 382.602C1342.89 383.076 1342.8 383.493 1342.63 383.853C1342.46 384.213 1342.22 384.513 1341.91 384.755C1341.61 385.001 1341.24 385.188 1340.82 385.315C1340.4 385.438 1339.94 385.5 1339.45 385.5H1336ZM1337.66 381.002V384.146H1339.46C1339.72 384.146 1339.96 384.11 1340.17 384.037C1340.39 383.964 1340.57 383.864 1340.72 383.736C1340.89 383.604 1341.01 383.442 1341.1 383.251C1341.19 383.055 1341.23 382.839 1341.23 382.602C1341.23 382.351 1341.2 382.13 1341.12 381.938C1341.05 381.743 1340.94 381.576 1340.8 381.439C1340.65 381.303 1340.47 381.198 1340.26 381.125C1340.05 381.048 1339.81 381.007 1339.55 381.002H1337.66ZM1337.66 379.751H1339.22C1339.49 379.746 1339.74 379.71 1339.96 379.642C1340.19 379.573 1340.38 379.473 1340.54 379.341C1340.68 379.222 1340.79 379.079 1340.87 378.91C1340.95 378.742 1341 378.548 1341 378.329C1341 378.097 1340.96 377.896 1340.88 377.728C1340.81 377.554 1340.7 377.413 1340.56 377.304C1340.41 377.167 1340.22 377.069 1339.98 377.01C1339.75 376.946 1339.49 376.912 1339.21 376.907H1337.66V379.751ZM1349.26 383.21H1346.14L1345.46 385.5H1343.75L1346.99 375.547H1348.45L1351.63 385.5H1349.93L1349.26 383.21ZM1346.55 381.802H1348.86L1347.71 377.864L1346.55 381.802ZM1358.02 382.937C1358.02 382.704 1357.98 382.499 1357.88 382.321C1357.78 382.144 1357.65 381.984 1357.48 381.843C1357.29 381.711 1357.08 381.592 1356.83 381.487C1356.58 381.378 1356.31 381.28 1356 381.193C1355.53 381.061 1355.1 380.899 1354.7 380.708C1354.31 380.512 1353.97 380.293 1353.7 380.052C1353.42 379.806 1353.2 379.528 1353.04 379.218C1352.89 378.903 1352.81 378.55 1352.81 378.158C1352.81 377.734 1352.9 377.354 1353.08 377.017C1353.26 376.675 1353.51 376.383 1353.82 376.142C1354.13 375.905 1354.49 375.725 1354.9 375.602C1355.31 375.474 1355.75 375.41 1356.21 375.41C1356.69 375.41 1357.14 375.485 1357.55 375.636C1357.97 375.782 1358.34 375.987 1358.65 376.251C1358.96 376.52 1359.2 376.841 1359.38 377.215C1359.56 377.584 1359.65 377.994 1359.65 378.445H1358.02C1358 378.195 1357.95 377.967 1357.86 377.762C1357.78 377.552 1357.66 377.372 1357.51 377.222C1357.36 377.076 1357.17 376.962 1356.94 376.88C1356.72 376.793 1356.47 376.75 1356.18 376.75C1355.93 376.75 1355.7 376.784 1355.49 376.853C1355.28 376.916 1355.1 377.007 1354.94 377.126C1354.79 377.249 1354.66 377.397 1354.58 377.57C1354.49 377.743 1354.45 377.937 1354.45 378.151C1354.45 378.379 1354.51 378.58 1354.63 378.753C1354.74 378.922 1354.89 379.07 1355.08 379.197C1355.28 379.325 1355.5 379.437 1355.75 379.532C1356.01 379.628 1356.28 379.717 1356.55 379.799C1356.9 379.899 1357.25 380.024 1357.58 380.175C1357.92 380.321 1358.23 380.498 1358.51 380.708C1358.86 380.972 1359.14 381.289 1359.35 381.658C1359.56 382.023 1359.67 382.444 1359.67 382.923C1359.67 383.365 1359.58 383.755 1359.39 384.092C1359.21 384.429 1358.96 384.709 1358.65 384.933C1358.34 385.165 1357.97 385.34 1357.56 385.459C1357.14 385.573 1356.71 385.63 1356.25 385.63C1355.76 385.63 1355.28 385.555 1354.8 385.404C1354.33 385.249 1353.92 385.026 1353.57 384.734C1353.24 384.461 1352.99 384.14 1352.79 383.771C1352.61 383.401 1352.51 382.978 1352.51 382.499H1354.15C1354.17 382.804 1354.23 383.071 1354.34 383.299C1354.45 383.522 1354.6 383.707 1354.78 383.853C1354.97 384.003 1355.18 384.115 1355.43 384.188C1355.68 384.26 1355.95 384.297 1356.25 384.297C1356.5 384.297 1356.73 384.267 1356.94 384.208C1357.16 384.149 1357.35 384.06 1357.51 383.941C1357.67 383.827 1357.79 383.686 1357.88 383.518C1357.98 383.349 1358.02 383.155 1358.02 382.937ZM1367.09 381.036H1362.98V384.146H1367.79V385.5H1361.33V375.547H1367.75V376.907H1362.98V379.71H1367.09V381.036ZM1369.58 385.5V375.547H1372.04C1372.47 375.547 1372.87 375.597 1373.25 375.697C1373.63 375.793 1373.97 375.927 1374.28 376.101C1374.62 376.278 1374.92 376.502 1375.17 376.771C1375.44 377.039 1375.66 377.34 1375.84 377.673C1376.02 378.019 1376.16 378.4 1376.26 378.814C1376.36 379.229 1376.41 379.671 1376.41 380.141V380.92C1376.41 381.371 1376.36 381.799 1376.27 382.205C1376.18 382.606 1376.05 382.973 1375.87 383.306C1375.7 383.629 1375.5 383.923 1375.26 384.188C1375.02 384.452 1374.76 384.677 1374.46 384.864C1374.14 385.069 1373.77 385.227 1373.37 385.336C1372.97 385.445 1372.55 385.5 1372.09 385.5H1369.58ZM1371.24 376.887V384.167H1372.09C1372.38 384.167 1372.65 384.133 1372.89 384.064C1373.14 383.992 1373.36 383.889 1373.55 383.757C1373.76 383.62 1373.93 383.449 1374.09 383.244C1374.25 383.035 1374.38 382.795 1374.48 382.526C1374.56 382.299 1374.63 382.05 1374.68 381.781C1374.72 381.512 1374.74 381.225 1374.74 380.92V380.127C1374.74 379.826 1374.72 379.541 1374.68 379.272C1374.63 379.004 1374.56 378.755 1374.48 378.527C1374.37 378.249 1374.22 377.999 1374.04 377.775C1373.86 377.548 1373.64 377.363 1373.39 377.222C1373.21 377.117 1373 377.037 1372.78 376.982C1372.55 376.923 1372.3 376.891 1372.04 376.887H1371.24ZM1386.71 375.547H1392.58V376.907H1390.45V384.146H1392.58V385.5H1386.71V384.146H1388.79V376.907H1386.71V375.547ZM1401.3 385.5H1399.65L1396.42 378.65L1396.41 385.5H1394.75V375.547H1396.42L1399.63 382.369L1399.65 375.547H1401.3V385.5ZM1416.88 382.937C1416.88 382.704 1416.83 382.499 1416.74 382.321C1416.64 382.144 1416.51 381.984 1416.33 381.843C1416.15 381.711 1415.94 381.592 1415.68 381.487C1415.44 381.378 1415.16 381.28 1414.86 381.193C1414.39 381.061 1413.96 380.899 1413.56 380.708C1413.17 380.512 1412.83 380.293 1412.55 380.052C1412.28 379.806 1412.06 379.528 1411.9 379.218C1411.74 378.903 1411.67 378.55 1411.67 378.158C1411.67 377.734 1411.76 377.354 1411.94 377.017C1412.12 376.675 1412.37 376.383 1412.68 376.142C1412.99 375.905 1413.35 375.725 1413.76 375.602C1414.17 375.474 1414.61 375.41 1415.06 375.41C1415.55 375.41 1415.99 375.485 1416.41 375.636C1416.83 375.782 1417.19 375.987 1417.5 376.251C1417.81 376.52 1418.06 376.841 1418.23 377.215C1418.42 377.584 1418.51 377.994 1418.51 378.445H1416.88C1416.86 378.195 1416.8 377.967 1416.72 377.762C1416.63 377.552 1416.52 377.372 1416.37 377.222C1416.21 377.076 1416.02 376.962 1415.8 376.88C1415.58 376.793 1415.33 376.75 1415.04 376.75C1414.79 376.75 1414.56 376.784 1414.34 376.853C1414.14 376.916 1413.95 377.007 1413.8 377.126C1413.64 377.249 1413.52 377.397 1413.44 377.57C1413.35 377.743 1413.31 377.937 1413.31 378.151C1413.31 378.379 1413.37 378.58 1413.48 378.753C1413.6 378.922 1413.75 379.07 1413.94 379.197C1414.14 379.325 1414.36 379.437 1414.61 379.532C1414.87 379.628 1415.13 379.717 1415.41 379.799C1415.76 379.899 1416.1 380.024 1416.44 380.175C1416.77 380.321 1417.08 380.498 1417.37 380.708C1417.72 380.972 1418 381.289 1418.21 381.658C1418.42 382.023 1418.53 382.444 1418.53 382.923C1418.53 383.365 1418.43 383.755 1418.25 384.092C1418.07 384.429 1417.82 384.709 1417.51 384.933C1417.2 385.165 1416.83 385.34 1416.42 385.459C1416 385.573 1415.56 385.63 1415.1 385.63C1414.62 385.63 1414.14 385.555 1413.66 385.404C1413.19 385.249 1412.77 385.026 1412.42 384.734C1412.1 384.461 1411.84 384.14 1411.65 383.771C1411.46 383.401 1411.37 382.978 1411.36 382.499H1413C1413.03 382.804 1413.09 383.071 1413.2 383.299C1413.31 383.522 1413.45 383.707 1413.64 383.853C1413.82 384.003 1414.04 384.115 1414.28 384.188C1414.53 384.26 1414.81 384.297 1415.1 384.297C1415.35 384.297 1415.59 384.267 1415.8 384.208C1416.02 384.149 1416.21 384.06 1416.37 383.941C1416.52 383.827 1416.65 383.686 1416.74 383.518C1416.83 383.349 1416.88 383.155 1416.88 382.937ZM1424.93 383.21H1421.81L1421.13 385.5H1419.42L1422.66 375.547H1424.12L1427.31 385.5H1425.6L1424.93 383.21ZM1422.23 381.802H1424.53L1423.39 377.864L1422.23 381.802ZM1425.83 372.826C1425.83 373.031 1425.79 373.232 1425.72 373.428C1425.65 373.624 1425.56 373.795 1425.43 373.94C1425.31 374.095 1425.15 374.218 1424.97 374.31C1424.8 374.396 1424.6 374.439 1424.39 374.439C1424.2 374.439 1424.03 374.414 1423.88 374.364C1423.74 374.314 1423.61 374.257 1423.48 374.193C1423.36 374.13 1423.23 374.068 1423.12 374.009C1423 373.95 1422.87 373.911 1422.73 373.893C1422.65 373.874 1422.56 373.868 1422.47 373.872C1422.39 373.872 1422.31 373.89 1422.23 373.927C1422.11 373.959 1422.01 374.029 1421.94 374.139C1421.87 374.248 1421.83 374.378 1421.82 374.528L1420.97 374.344C1420.97 374.139 1421 373.938 1421.07 373.742C1421.14 373.546 1421.24 373.373 1421.37 373.223C1421.5 373.068 1421.65 372.945 1421.82 372.854C1422 372.758 1422.2 372.71 1422.41 372.71C1422.6 372.71 1422.77 372.742 1422.92 372.806C1423.08 372.869 1423.24 372.938 1423.39 373.011C1423.53 373.093 1423.68 373.166 1423.83 373.229C1423.99 373.293 1424.15 373.325 1424.33 373.325C1424.42 373.325 1424.5 373.307 1424.58 373.271C1424.67 373.234 1424.74 373.182 1424.8 373.113C1424.85 373.054 1424.89 372.983 1424.93 372.901C1424.96 372.815 1424.98 372.721 1424.98 372.621L1425.83 372.826ZM1435.26 381.187C1435.26 381.588 1435.22 381.975 1435.15 382.349C1435.08 382.722 1434.98 383.076 1434.85 383.408C1434.7 383.741 1434.53 384.049 1434.32 384.331C1434.11 384.609 1433.87 384.848 1433.59 385.049C1433.33 385.231 1433.04 385.375 1432.71 385.479C1432.39 385.584 1432.04 385.637 1431.66 385.637C1431.26 385.637 1430.9 385.582 1430.57 385.473C1430.24 385.359 1429.94 385.204 1429.68 385.008C1429.42 384.807 1429.19 384.566 1428.99 384.283C1428.79 384.001 1428.63 383.691 1428.5 383.354C1428.37 383.03 1428.27 382.686 1428.21 382.321C1428.14 381.952 1428.11 381.574 1428.11 381.187V379.874C1428.11 379.468 1428.15 379.076 1428.21 378.698C1428.28 378.32 1428.39 377.962 1428.52 377.625C1428.65 377.301 1428.82 377.005 1429.01 376.736C1429.2 376.463 1429.43 376.226 1429.7 376.025C1429.95 375.829 1430.24 375.679 1430.57 375.574C1430.89 375.465 1431.25 375.41 1431.65 375.41C1432.04 375.41 1432.41 375.465 1432.74 375.574C1433.07 375.684 1433.37 375.836 1433.64 376.032C1433.9 376.228 1434.13 376.458 1434.33 376.723C1434.52 376.987 1434.69 377.276 1434.82 377.591C1434.96 377.928 1435.07 378.29 1435.15 378.678C1435.22 379.061 1435.26 379.459 1435.26 379.874V381.187ZM1433.6 379.86C1433.6 379.61 1433.58 379.364 1433.55 379.122C1433.53 378.881 1433.49 378.65 1433.43 378.432C1433.36 378.181 1433.27 377.953 1433.16 377.748C1433.05 377.538 1432.91 377.361 1432.75 377.215C1432.61 377.087 1432.45 376.987 1432.27 376.914C1432.09 376.841 1431.88 376.805 1431.65 376.805C1431.42 376.805 1431.22 376.841 1431.04 376.914C1430.87 376.982 1430.71 377.078 1430.58 377.201C1430.42 377.352 1430.29 377.532 1430.18 377.741C1430.07 377.946 1429.98 378.176 1429.92 378.432C1429.87 378.65 1429.83 378.883 1429.8 379.129C1429.78 379.37 1429.77 379.614 1429.77 379.86V381.187C1429.77 381.428 1429.78 381.667 1429.8 381.904C1429.82 382.141 1429.86 382.369 1429.92 382.588C1429.98 382.834 1430.06 383.064 1430.16 383.278C1430.26 383.488 1430.39 383.666 1430.53 383.812C1430.67 383.948 1430.84 384.058 1431.02 384.14C1431.2 384.217 1431.42 384.256 1431.66 384.256C1431.89 384.256 1432.1 384.217 1432.29 384.14C1432.48 384.062 1432.64 383.957 1432.78 383.825C1432.94 383.675 1433.07 383.497 1433.18 383.292C1433.29 383.082 1433.37 382.852 1433.44 382.602C1433.49 382.383 1433.53 382.155 1433.55 381.918C1433.58 381.676 1433.6 381.433 1433.6 381.187V379.86ZM1447.09 381.706V385.5H1445.45V375.547H1448.78C1449.28 375.551 1449.74 375.627 1450.16 375.772C1450.58 375.918 1450.95 376.126 1451.25 376.395C1451.56 376.663 1451.79 376.989 1451.96 377.372C1452.13 377.755 1452.22 378.186 1452.22 378.664C1452.22 379.124 1452.13 379.541 1451.96 379.915C1451.79 380.284 1451.56 380.601 1451.25 380.865C1450.95 381.134 1450.58 381.341 1450.16 381.487C1449.74 381.633 1449.28 381.706 1448.78 381.706H1447.09ZM1447.09 380.366H1448.78C1449.06 380.362 1449.3 380.318 1449.52 380.236C1449.75 380.15 1449.93 380.031 1450.09 379.881C1450.24 379.73 1450.36 379.553 1450.44 379.348C1450.52 379.143 1450.56 378.919 1450.56 378.678C1450.56 378.413 1450.52 378.174 1450.44 377.96C1450.36 377.741 1450.24 377.552 1450.09 377.393C1449.93 377.233 1449.75 377.11 1449.52 377.023C1449.3 376.937 1449.06 376.891 1448.78 376.887H1447.09V380.366ZM1458.57 383.21H1455.44L1454.77 385.5H1453.06L1456.3 375.547H1457.75L1460.94 385.5H1459.24L1458.57 383.21ZM1455.86 381.802H1458.16L1457.02 377.864L1455.86 381.802ZM1468.62 375.547L1468.62 382.205C1468.62 382.72 1468.54 383.189 1468.38 383.613C1468.23 384.033 1468.01 384.393 1467.72 384.693C1467.43 384.994 1467.08 385.227 1466.67 385.391C1466.26 385.555 1465.81 385.637 1465.3 385.637C1464.8 385.637 1464.35 385.557 1463.95 385.397C1463.55 385.233 1463.21 385.001 1462.93 384.7C1462.64 384.399 1462.42 384.037 1462.26 383.613C1462.1 383.189 1462.02 382.72 1462.02 382.205L1462.03 375.547H1463.65L1463.67 382.205C1463.67 382.52 1463.71 382.809 1463.78 383.073C1463.86 383.333 1463.96 383.554 1464.1 383.736C1464.24 383.91 1464.41 384.046 1464.6 384.146C1464.8 384.242 1465.04 384.29 1465.3 384.29C1465.57 384.29 1465.81 384.242 1466.01 384.146C1466.22 384.046 1466.4 383.905 1466.54 383.723C1466.68 383.536 1466.79 383.315 1466.86 383.06C1466.93 382.8 1466.97 382.515 1466.98 382.205L1467 375.547H1468.62ZM1472.34 384.146H1477.09V385.5H1470.69V375.547H1472.34V384.146ZM1485.71 381.187C1485.71 381.588 1485.67 381.975 1485.6 382.349C1485.53 382.722 1485.43 383.076 1485.29 383.408C1485.15 383.741 1484.98 384.049 1484.77 384.331C1484.56 384.609 1484.32 384.848 1484.04 385.049C1483.78 385.231 1483.49 385.375 1483.16 385.479C1482.84 385.584 1482.49 385.637 1482.11 385.637C1481.71 385.637 1481.35 385.582 1481.02 385.473C1480.69 385.359 1480.39 385.204 1480.13 385.008C1479.87 384.807 1479.64 384.566 1479.44 384.283C1479.24 384.001 1479.08 383.691 1478.94 383.354C1478.82 383.03 1478.72 382.686 1478.66 382.321C1478.59 381.952 1478.56 381.574 1478.56 381.187V379.874C1478.56 379.468 1478.6 379.076 1478.66 378.698C1478.73 378.32 1478.83 377.962 1478.97 377.625C1479.1 377.301 1479.27 377.005 1479.46 376.736C1479.65 376.463 1479.88 376.226 1480.15 376.025C1480.4 375.829 1480.69 375.679 1481.02 375.574C1481.34 375.465 1481.7 375.41 1482.1 375.41C1482.49 375.41 1482.86 375.465 1483.19 375.574C1483.52 375.684 1483.82 375.836 1484.08 376.032C1484.35 376.228 1484.58 376.458 1484.78 376.723C1484.97 376.987 1485.14 377.276 1485.27 377.591C1485.41 377.928 1485.52 378.29 1485.6 378.678C1485.67 379.061 1485.71 379.459 1485.71 379.874V381.187ZM1484.05 379.86C1484.05 379.61 1484.03 379.364 1484 379.122C1483.98 378.881 1483.94 378.65 1483.88 378.432C1483.81 378.181 1483.72 377.953 1483.61 377.748C1483.5 377.538 1483.36 377.361 1483.2 377.215C1483.06 377.087 1482.9 376.987 1482.72 376.914C1482.54 376.841 1482.33 376.805 1482.1 376.805C1481.87 376.805 1481.67 376.841 1481.49 376.914C1481.32 376.982 1481.16 377.078 1481.03 377.201C1480.87 377.352 1480.74 377.532 1480.63 377.741C1480.52 377.946 1480.43 378.176 1480.37 378.432C1480.32 378.65 1480.28 378.883 1480.25 379.129C1480.23 379.37 1480.22 379.614 1480.22 379.86V381.187C1480.22 381.428 1480.23 381.667 1480.25 381.904C1480.27 382.141 1480.31 382.369 1480.37 382.588C1480.43 382.834 1480.51 383.064 1480.61 383.278C1480.71 383.488 1480.84 383.666 1480.98 383.812C1481.12 383.948 1481.28 384.058 1481.47 384.14C1481.65 384.217 1481.87 384.256 1482.11 384.256C1482.34 384.256 1482.55 384.217 1482.74 384.14C1482.93 384.062 1483.09 383.957 1483.23 383.825C1483.39 383.675 1483.52 383.497 1483.63 383.292C1483.74 383.082 1483.82 382.852 1483.89 382.602C1483.94 382.383 1483.98 382.155 1484 381.918C1484.03 381.676 1484.05 381.433 1484.05 381.187V379.86ZM1491.01 385.288C1491.01 385.78 1490.89 386.279 1490.65 386.785C1490.41 387.296 1490.1 387.726 1489.7 388.077L1488.79 387.592C1488.98 387.268 1489.13 386.926 1489.24 386.566C1489.35 386.206 1489.4 385.801 1489.4 385.35V383.907H1491.01V385.288ZM1504.17 385.5V375.547H1507.35C1507.84 375.547 1508.29 375.602 1508.71 375.711C1509.14 375.816 1509.51 375.978 1509.82 376.196C1510.13 376.415 1510.37 376.695 1510.54 377.037C1510.72 377.374 1510.81 377.775 1510.81 378.24C1510.8 378.523 1510.75 378.787 1510.66 379.033C1510.57 379.275 1510.43 379.489 1510.26 379.676C1510.14 379.812 1510 379.933 1509.84 380.038C1509.69 380.138 1509.52 380.229 1509.32 380.312V380.325C1509.61 380.403 1509.87 380.517 1510.08 380.667C1510.28 380.813 1510.46 380.979 1510.6 381.166C1510.75 381.367 1510.86 381.59 1510.93 381.836C1511.01 382.077 1511.05 382.333 1511.05 382.602C1511.05 383.076 1510.97 383.493 1510.79 383.853C1510.62 384.213 1510.38 384.513 1510.08 384.755C1509.77 385.001 1509.41 385.188 1508.98 385.315C1508.56 385.438 1508.11 385.5 1507.61 385.5H1504.17ZM1505.82 381.002V384.146H1507.63C1507.89 384.146 1508.12 384.11 1508.34 384.037C1508.55 383.964 1508.74 383.864 1508.89 383.736C1509.05 383.604 1509.18 383.442 1509.26 383.251C1509.35 383.055 1509.4 382.839 1509.4 382.602C1509.4 382.351 1509.36 382.13 1509.29 381.938C1509.22 381.743 1509.11 381.576 1508.96 381.439C1508.82 381.303 1508.64 381.198 1508.43 381.125C1508.22 381.048 1507.98 381.007 1507.71 381.002H1505.82ZM1505.82 379.751H1507.39C1507.66 379.746 1507.9 379.71 1508.13 379.642C1508.35 379.573 1508.55 379.473 1508.7 379.341C1508.84 379.222 1508.95 379.079 1509.04 378.91C1509.12 378.742 1509.16 378.548 1509.16 378.329C1509.16 378.097 1509.12 377.896 1509.04 377.728C1508.97 377.554 1508.87 377.413 1508.73 377.304C1508.57 377.167 1508.38 377.069 1508.15 377.01C1507.92 376.946 1507.66 376.912 1507.38 376.907H1505.82V379.751ZM1515.93 381.638H1514.25V385.5H1512.61V375.547H1515.77C1516.28 375.551 1516.76 375.618 1517.19 375.745C1517.62 375.873 1518 376.06 1518.31 376.306C1518.62 376.556 1518.86 376.868 1519.04 377.242C1519.21 377.611 1519.3 378.044 1519.3 378.541C1519.3 378.883 1519.25 379.193 1519.16 379.471C1519.07 379.749 1518.95 379.999 1518.79 380.223C1518.63 380.446 1518.44 380.642 1518.22 380.811C1517.99 380.979 1517.75 381.125 1517.47 381.248L1519.6 385.411V385.5H1517.84L1515.93 381.638ZM1514.25 380.298H1515.79C1516.08 380.293 1516.34 380.25 1516.58 380.168C1516.81 380.081 1517.01 379.958 1517.18 379.799C1517.32 379.662 1517.44 379.493 1517.52 379.293C1517.6 379.092 1517.64 378.865 1517.64 378.609C1517.64 378.322 1517.6 378.072 1517.51 377.857C1517.42 377.639 1517.29 377.456 1517.12 377.311C1516.96 377.174 1516.76 377.071 1516.54 377.003C1516.31 376.93 1516.05 376.891 1515.77 376.887H1514.25V380.298ZM1525.83 383.21H1522.71L1522.03 385.5H1520.32L1523.56 375.547H1525.02L1528.2 385.5H1526.5L1525.83 383.21ZM1523.12 381.802H1525.43L1524.29 377.864L1523.12 381.802ZM1531.03 384.146H1536.06V385.5H1529.07L1529.07 384.406L1533.95 376.907H1529.11V375.547H1535.9L1535.92 376.613L1531.03 384.146ZM1538.06 375.547H1543.93V376.907H1541.8V384.146H1543.93V385.5H1538.06V384.146H1540.14V376.907H1538.06V375.547ZM1548.01 384.146H1552.77V385.5H1546.37V375.547H1548.01V384.146Z" fill="white" fill-opacity="0.5"/>
<rect x="431.066" y="104.067" width="630.169" height="147.376" fill="#5C95FF" fill-opacity="0.05" stroke="#91A7FF" stroke-width="2.87548"/>
<rect x="423.719" y="96.7189" width="11.5019" height="11.5019" fill="white" stroke="#91A7FF" stroke-width="1.43774"/>
<rect x="1056.76" y="96.7189" width="11.5019" height="11.5019" fill="white" stroke="#91A7FF" stroke-width="1.43774"/>
<rect x="423.719" y="244.761" width="11.5019" height="11.5019" fill="white" stroke="#91A7FF" stroke-width="1.43774"/>
<rect x="1056.76" y="244.761" width="11.5019" height="11.5019" fill="white" stroke="#91A7FF" stroke-width="1.43774"/>
<path d="M471.078 198.927V161.665H476.827V177.634H492.477V161.665H498.226V198.927H492.477V182.851H476.827V198.927H471.078ZM506.17 198.927V172.684H511.653V198.927H506.17ZM508.939 169.117C507.874 169.117 506.969 168.78 506.224 168.106C505.514 167.396 505.159 166.491 505.159 165.391C505.159 164.291 505.514 163.404 506.224 162.729C506.969 162.02 507.874 161.665 508.939 161.665C510.039 161.665 510.944 162.02 511.653 162.729C512.363 163.404 512.718 164.291 512.718 165.391C512.718 166.491 512.363 167.396 511.653 168.106C510.944 168.78 510.039 169.117 508.939 169.117ZM540.581 198.927V166.881H529.136V161.665H557.774V166.881H546.33V198.927H540.581ZM563.145 198.927V161.665H568.628V176.41H569.479C569.834 175.736 570.331 175.079 570.97 174.44C571.644 173.801 572.514 173.287 573.578 172.897C574.678 172.471 576.062 172.258 577.73 172.258C579.718 172.258 581.474 172.701 583 173.589C584.562 174.476 585.786 175.736 586.673 177.368C587.56 178.965 588.004 180.899 588.004 183.17V198.927H582.521V183.596C582.521 181.325 581.953 179.657 580.818 178.592C579.682 177.492 578.121 176.942 576.133 176.942C573.862 176.942 572.035 177.687 570.651 179.178C569.302 180.668 568.628 182.833 568.628 185.672V198.927H563.145ZM607.925 199.672C605.264 199.672 602.939 199.122 600.952 198.022C598.964 196.886 597.403 195.307 596.267 193.284C595.167 191.226 594.617 188.848 594.617 186.151V185.512C594.617 182.78 595.167 180.402 596.267 178.379C597.367 176.321 598.893 174.742 600.845 173.642C602.833 172.506 605.122 171.938 607.712 171.938C610.232 171.938 612.432 172.506 614.313 173.642C616.229 174.742 617.72 176.286 618.784 178.273C619.849 180.26 620.381 182.585 620.381 185.246V187.322H600.207C600.277 189.629 601.04 191.474 602.495 192.858C603.986 194.207 605.831 194.881 608.032 194.881C610.09 194.881 611.634 194.42 612.663 193.497C613.727 192.574 614.544 191.51 615.111 190.303L619.636 192.645C619.139 193.639 618.412 194.686 617.454 195.786C616.531 196.886 615.307 197.809 613.781 198.554C612.255 199.299 610.303 199.672 607.925 199.672ZM600.26 183.117H614.792C614.65 181.13 613.94 179.586 612.663 178.486C611.385 177.35 609.717 176.782 607.659 176.782C605.601 176.782 603.915 177.35 602.602 178.486C601.324 179.586 600.544 181.13 600.26 183.117ZM626.981 198.927V172.684H632.358V175.771H633.209C633.635 174.671 634.309 173.872 635.232 173.376C636.19 172.843 637.361 172.577 638.745 172.577H641.886V177.528H638.532C636.758 177.528 635.303 178.024 634.167 179.018C633.032 179.976 632.464 181.467 632.464 183.49V198.927H626.981ZM658.661 199.672C656 199.672 653.675 199.122 651.688 198.022C649.701 196.886 648.139 195.307 647.004 193.284C645.904 191.226 645.354 188.848 645.354 186.151V185.512C645.354 182.78 645.904 180.402 647.004 178.379C648.104 176.321 649.63 174.742 651.582 173.642C653.569 172.506 655.858 171.938 658.449 171.938C660.968 171.938 663.168 172.506 665.049 173.642C666.966 174.742 668.456 176.286 669.521 178.273C670.585 180.26 671.118 182.585 671.118 185.246V187.322H650.943C651.014 189.629 651.777 191.474 653.232 192.858C654.722 194.207 656.568 194.881 658.768 194.881C660.826 194.881 662.37 194.42 663.399 193.497C664.464 192.574 665.28 191.51 665.848 190.303L670.372 192.645C669.876 193.639 669.148 194.686 668.19 195.786C667.267 196.886 666.043 197.809 664.517 198.554C662.991 199.299 661.039 199.672 658.661 199.672ZM650.996 183.117H665.528C665.386 181.13 664.677 179.586 663.399 178.486C662.121 177.35 660.454 176.782 658.395 176.782C656.337 176.782 654.651 177.35 653.338 178.486C652.061 179.586 651.28 181.13 650.996 183.117ZM677.407 206.166V203.026H679.217C680.672 203.026 681.399 202.298 681.399 200.843V199.14H680.601C679.359 199.14 678.33 198.767 677.513 198.022C676.697 197.277 676.289 196.336 676.289 195.201C676.289 193.958 676.697 192.965 677.513 192.22C678.33 191.439 679.359 191.048 680.601 191.048C681.843 191.048 682.854 191.457 683.635 192.273C684.451 193.054 684.859 194.083 684.859 195.36V200.896C684.859 204.41 683.103 206.166 679.589 206.166H677.407ZM703.654 198.927V161.665H709.403V198.927H703.654ZM739.041 199.672C737.161 199.672 735.475 199.353 733.985 198.714C732.53 198.075 731.358 197.135 730.471 195.893C729.62 194.65 729.194 193.142 729.194 191.368C729.194 189.558 729.62 188.068 730.471 186.896C731.358 185.69 732.547 184.785 734.038 184.182C735.564 183.578 737.285 183.277 739.201 183.277H747.186V181.573C747.186 180.047 746.725 178.823 745.802 177.9C744.879 176.978 743.46 176.516 741.543 176.516C739.663 176.516 738.225 176.96 737.232 177.847C736.238 178.734 735.581 179.888 735.262 181.307L730.152 179.657C730.578 178.237 731.252 176.96 732.175 175.824C733.133 174.653 734.393 173.713 735.954 173.003C737.516 172.293 739.396 171.938 741.597 171.938C745.003 171.938 747.683 172.808 749.635 174.547C751.586 176.286 752.562 178.752 752.562 181.946V192.752C752.562 193.817 753.059 194.349 754.053 194.349H756.289V198.927H752.19C750.948 198.927 749.936 198.607 749.155 197.969C748.375 197.33 747.984 196.46 747.984 195.36V195.201H747.186C746.902 195.733 746.476 196.354 745.908 197.064C745.341 197.773 744.507 198.394 743.406 198.927C742.306 199.424 740.851 199.672 739.041 199.672ZM739.84 195.147C742.04 195.147 743.815 194.526 745.163 193.284C746.512 192.007 747.186 190.268 747.186 188.068V187.535H739.521C738.066 187.535 736.894 187.855 736.007 188.493C735.12 189.097 734.677 190.002 734.677 191.208C734.677 192.415 735.138 193.373 736.061 194.083C736.983 194.792 738.243 195.147 739.84 195.147ZM761.62 198.927V172.684H766.996V175.771H767.848C768.344 174.848 769.143 174.032 770.243 173.322C771.343 172.613 772.834 172.258 774.715 172.258C776.666 172.258 778.228 172.666 779.399 173.482C780.605 174.263 781.51 175.274 782.114 176.516H782.965C783.569 175.31 784.438 174.298 785.574 173.482C786.745 172.666 788.395 172.258 790.524 172.258C792.228 172.258 793.736 172.613 795.049 173.322C796.362 173.997 797.409 175.026 798.19 176.41C798.97 177.758 799.361 179.444 799.361 181.467V198.927H793.878V181.893C793.878 180.296 793.434 179.071 792.547 178.22C791.695 177.332 790.471 176.889 788.874 176.889C787.171 176.889 785.804 177.439 784.775 178.539C783.746 179.639 783.232 181.218 783.232 183.277V198.927H777.749V181.893C777.749 180.296 777.305 179.071 776.418 178.22C775.566 177.332 774.342 176.889 772.745 176.889C771.042 176.889 769.675 177.439 768.646 178.539C767.617 179.639 767.102 181.218 767.102 183.277V198.927H761.62ZM819.286 198.927V193.817H824.289V166.775H819.286V161.665H834.19C839.159 161.665 842.956 162.924 845.582 165.444C848.244 167.964 849.574 171.761 849.574 176.836V183.809C849.574 188.884 848.244 192.681 845.582 195.201C842.956 197.685 839.159 198.927 834.19 198.927H819.286ZM830.092 193.71H834.244C837.473 193.71 839.868 192.894 841.43 191.261C842.991 189.629 843.772 187.198 843.772 183.969V176.623C843.772 173.358 842.991 170.927 841.43 169.33C839.868 167.733 837.473 166.935 834.244 166.935H830.092V193.71ZM864.375 199.672C862.494 199.672 860.808 199.353 859.318 198.714C857.863 198.075 856.692 197.135 855.805 195.893C854.953 194.65 854.527 193.142 854.527 191.368C854.527 189.558 854.953 188.068 855.805 186.896C856.692 185.69 857.881 184.785 859.371 184.182C860.897 183.578 862.618 183.277 864.535 183.277H872.519V181.573C872.519 180.047 872.058 178.823 871.135 177.9C870.213 176.978 868.793 176.516 866.877 176.516C864.996 176.516 863.559 176.96 862.565 177.847C861.571 178.734 860.915 179.888 860.595 181.307L855.485 179.657C855.911 178.237 856.585 176.96 857.508 175.824C858.466 174.653 859.726 173.713 861.287 173.003C862.849 172.293 864.73 171.938 866.93 171.938C870.337 171.938 873.016 172.808 874.968 174.547C876.92 176.286 877.896 178.752 877.896 181.946V192.752C877.896 193.817 878.392 194.349 879.386 194.349H881.622V198.927H877.523C876.281 198.927 875.27 198.607 874.489 197.969C873.708 197.33 873.318 196.46 873.318 195.36V195.201H872.519C872.235 195.733 871.809 196.354 871.242 197.064C870.674 197.773 869.84 198.394 868.74 198.927C867.64 199.424 866.185 199.672 864.375 199.672ZM865.173 195.147C867.374 195.147 869.148 194.526 870.496 193.284C871.845 192.007 872.519 190.268 872.519 188.068V187.535H864.854C863.399 187.535 862.228 187.855 861.341 188.493C860.453 189.097 860.01 190.002 860.01 191.208C860.01 192.415 860.471 193.373 861.394 194.083C862.317 194.792 863.576 195.147 865.173 195.147ZM886.953 198.927V172.684H892.329V176.623H893.181C893.678 175.558 894.565 174.564 895.843 173.642C897.12 172.719 899.019 172.258 901.538 172.258C903.526 172.258 905.282 172.701 906.808 173.589C908.37 174.476 909.594 175.736 910.481 177.368C911.368 178.965 911.812 180.899 911.812 183.17V198.927H906.329V183.596C906.329 181.325 905.761 179.657 904.626 178.592C903.49 177.492 901.929 176.942 899.941 176.942C897.67 176.942 895.843 177.687 894.459 179.178C893.11 180.668 892.436 182.833 892.436 185.672V198.927H886.953ZM920.182 187.801V161.665H925.771V187.801H920.182ZM923.003 199.672C921.761 199.672 920.714 199.264 919.862 198.448C919.046 197.631 918.638 196.585 918.638 195.307C918.638 194.029 919.046 193 919.862 192.22C920.714 191.403 921.761 190.995 923.003 190.995C924.245 190.995 925.274 191.403 926.091 192.22C926.942 193.036 927.368 194.065 927.368 195.307C927.368 196.585 926.942 197.631 926.091 198.448C925.274 199.264 924.245 199.672 923.003 199.672Z" fill="#91A7FF"/>
<path d="M961.25 155.737C958.285 158.286 954.508 167.461 963.122 183.772L1020.86 184.066C1029.47 167.768 1025.35 161.996 1022.39 159.45C1023.79 162.138 1025.73 165.052 1020.86 168.787C1015.99 172.522 1016.8 156.198 1016.8 147.144C1016.49 149.266 1014.71 155.737 1008.84 159.45C1003.85 154.215 1001.73 150.455 1008.84 145.022C1001.82 145.022 995.268 127.197 995.736 129.319C995.112 131.017 998.358 144.683 997.609 145.022C991.991 144.696 987.854 138.991 987.854 134.577C987.854 138.995 988.084 145.192 986.055 146.325C985.323 145.993 984.292 133.4 983.608 131.233C983.359 133.321 981.112 144.696 975.137 144.696C982.253 150.133 981.936 155.737 975.137 159.135C970.268 153.019 969.831 148.944 969.519 146.82C969.519 155.881 967.991 172.218 963.122 168.48C958.253 164.742 959.845 158.427 961.25 155.737Z" fill="#98FF98"/>
<path d="M1021.35 187.986C1021.35 204.24 1008.17 217.417 991.917 217.417C975.663 217.417 962.487 204.24 962.487 187.986C962.487 171.732 975.663 158.556 991.917 158.556C1008.17 158.556 1021.35 171.732 1021.35 187.986Z" fill="#98FF98"/>
<path d="M1010.38 188.274C1010.38 192.258 1007.15 195.488 1003.17 195.488C999.184 195.488 995.955 192.258 995.955 188.274C995.955 184.29 999.184 181.134 1003.17 181.134C1007.15 181.134 1010.38 184.29 1010.38 188.274Z" fill="#03081C"/>
<path d="M987.979 188.275C987.979 192.259 984.749 195.488 980.765 195.488C976.782 195.488 973.552 192.259 973.552 188.275C973.552 184.291 976.782 180.786 980.765 180.786C984.749 180.786 987.979 184.291 987.979 188.275Z" fill="#03081C"/>
<path d="M1002.66 268.138L997.689 245.785L1018.94 257.821L1008.54 259.971L1002.66 268.138Z" fill="#98FF98"/>
<path fill-rule="evenodd" clip-rule="evenodd" d="M996.386 244.042L1021.39 258.203L1009.07 260.748L1002.22 270.269L996.386 244.042ZM998.993 247.528L1003.1 266.009L1008.01 259.194L1016.49 257.44L998.993 247.528Z" fill="#F5FAFF"/>
<path d="M1161 271.662H1018.48V300.386H1161V271.662Z" fill="#98FF98"/>
<path d="M1026.48 291.913V281.11H1029.94C1031.04 281.11 1032.01 281.342 1032.86 281.805C1033.71 282.268 1034.38 282.905 1034.85 283.718C1035.33 284.521 1035.57 285.452 1035.57 286.511C1035.57 287.561 1035.33 288.492 1034.85 289.305C1034.38 290.117 1033.71 290.755 1032.86 291.218C1032.01 291.681 1031.04 291.913 1029.94 291.913H1026.48ZM1028.6 289.937H1029.94C1030.43 289.937 1030.89 289.85 1031.31 289.675C1031.74 289.5 1032.1 289.258 1032.41 288.95C1032.73 288.641 1032.98 288.281 1033.15 287.869C1033.33 287.448 1033.41 286.995 1033.41 286.511C1033.41 286.028 1033.33 285.58 1033.15 285.169C1032.98 284.747 1032.73 284.382 1032.41 284.073C1032.1 283.764 1031.74 283.523 1031.31 283.348C1030.89 283.173 1030.43 283.085 1029.94 283.085H1028.6V289.937ZM1044.77 291.913L1040.64 281.11H1042.75L1047.01 291.913H1044.77ZM1036.24 291.913L1040.5 281.11H1042.61L1038.48 291.913H1036.24ZM1038.25 289.536V287.669H1045.02V289.536H1038.25ZM1048.31 291.913V281.11H1050.51L1055.79 288.363V281.11H1057.89V291.913H1055.79L1050.42 284.521V291.913H1048.31ZM1060.24 291.913V281.11H1062.36V291.913H1060.24ZM1064.7 291.913V281.11H1066.82V289.984H1071.57V291.913H1064.7ZM1077.72 292.098C1076.63 292.098 1075.66 291.861 1074.82 291.388C1073.98 290.904 1073.33 290.246 1072.86 289.413C1072.38 288.569 1072.15 287.607 1072.15 286.527C1072.15 285.426 1072.38 284.459 1072.86 283.626C1073.33 282.782 1073.98 282.124 1074.8 281.65C1075.64 281.177 1076.59 280.94 1077.67 280.94C1078.76 280.94 1079.72 281.182 1080.54 281.666C1081.38 282.139 1082.03 282.797 1082.5 283.641C1082.98 284.474 1083.21 285.436 1083.21 286.527C1083.21 287.607 1082.98 288.569 1082.5 289.413C1082.04 290.246 1081.39 290.904 1080.56 291.388C1079.74 291.861 1078.79 292.098 1077.72 292.098ZM1077.72 290.169C1078.38 290.169 1078.95 290.014 1079.45 289.706C1079.95 289.387 1080.34 288.955 1080.62 288.41C1080.91 287.864 1081.05 287.237 1081.05 286.527C1081.05 285.807 1080.91 285.174 1080.62 284.629C1080.33 284.083 1079.94 283.656 1079.43 283.348C1078.93 283.029 1078.34 282.869 1077.67 282.869C1077.02 282.869 1076.44 283.029 1075.93 283.348C1075.42 283.656 1075.03 284.083 1074.74 284.629C1074.45 285.174 1074.31 285.807 1074.31 286.527C1074.31 287.237 1074.45 287.864 1074.74 288.41C1075.03 288.955 1075.43 289.387 1075.94 289.706C1076.46 290.014 1077.05 290.169 1077.72 290.169ZM1088.6 291.913V281.11H1092.06C1093.16 281.11 1094.13 281.342 1094.98 281.805C1095.83 282.268 1096.5 282.905 1096.97 283.718C1097.45 284.521 1097.69 285.452 1097.69 286.511C1097.69 287.561 1097.45 288.492 1096.97 289.305C1096.5 290.117 1095.83 290.755 1094.98 291.218C1094.13 291.681 1093.16 291.913 1092.06 291.913H1088.6ZM1090.72 289.937H1092.06C1092.55 289.937 1093.01 289.85 1093.43 289.675C1093.86 289.5 1094.22 289.258 1094.53 288.95C1094.85 288.641 1095.1 288.281 1095.27 287.869C1095.45 287.448 1095.53 286.995 1095.53 286.511C1095.53 286.028 1095.45 285.58 1095.27 285.169C1095.1 284.747 1094.85 284.382 1094.53 284.073C1094.22 283.764 1093.86 283.523 1093.43 283.348C1093.01 283.173 1092.55 283.085 1092.06 283.085H1090.72V289.937ZM1104.35 292.098C1103.26 292.098 1102.29 291.861 1101.45 291.388C1100.61 290.904 1099.96 290.246 1099.49 289.413C1099.01 288.569 1098.78 287.607 1098.78 286.527C1098.78 285.426 1099.01 284.459 1099.49 283.626C1099.96 282.782 1100.61 282.124 1101.43 281.65C1102.26 281.177 1103.22 280.94 1104.3 280.94C1105.39 280.94 1106.35 281.182 1107.17 281.666C1108.01 282.139 1108.66 282.797 1109.13 283.641C1109.61 284.474 1109.84 285.436 1109.84 286.527C1109.84 287.607 1109.61 288.569 1109.13 289.413C1108.67 290.246 1108.02 290.904 1107.19 291.388C1106.36 291.861 1105.42 292.098 1104.35 292.098ZM1104.35 290.169C1105.01 290.169 1105.58 290.014 1106.08 289.706C1106.58 289.387 1106.97 288.955 1107.25 288.41C1107.54 287.864 1107.68 287.237 1107.68 286.527C1107.68 285.807 1107.54 285.174 1107.25 284.629C1106.96 284.083 1106.56 283.656 1106.06 283.348C1105.56 283.029 1104.97 282.869 1104.3 282.869C1103.65 282.869 1103.07 283.029 1102.56 283.348C1102.05 283.656 1101.66 284.083 1101.37 284.629C1101.08 285.174 1100.94 285.807 1100.94 286.527C1100.94 287.237 1101.08 287.864 1101.37 288.41C1101.66 288.955 1102.06 289.387 1102.57 289.706C1103.09 290.014 1103.68 290.169 1104.35 290.169ZM1111.56 291.913V281.11H1113.76L1119.04 288.363V281.11H1121.14V291.913H1119.04L1113.67 284.521V291.913H1111.56ZM1130.98 291.913L1126.84 281.11H1128.95L1133.21 291.913H1130.98ZM1122.44 291.913L1126.7 281.11H1128.82L1124.68 291.913H1122.44ZM1124.45 289.536V287.669H1131.22V289.536H1124.45ZM1136.05 291.913V283.039H1132.81V281.11H1141.39V283.039H1138.17V291.913H1136.05ZM1147.72 292.098C1146.63 292.098 1145.66 291.861 1144.82 291.388C1143.99 290.904 1143.33 290.246 1142.86 289.413C1142.39 288.569 1142.15 287.607 1142.15 286.527C1142.15 285.426 1142.39 284.459 1142.86 283.626C1143.33 282.782 1143.98 282.124 1144.8 281.65C1145.64 281.177 1146.59 280.94 1147.67 280.94C1148.76 280.94 1149.72 281.182 1150.54 281.666C1151.38 282.139 1152.03 282.797 1152.5 283.641C1152.98 284.474 1153.21 285.436 1153.21 286.527C1153.21 287.607 1152.98 288.569 1152.5 289.413C1152.04 290.246 1151.39 290.904 1150.56 291.388C1149.74 291.861 1148.79 292.098 1147.72 292.098ZM1147.72 290.169C1148.38 290.169 1148.95 290.014 1149.45 289.706C1149.95 289.387 1150.34 288.955 1150.62 288.41C1150.91 287.864 1151.05 287.237 1151.05 286.527C1151.05 285.807 1150.91 285.174 1150.62 284.629C1150.33 284.083 1149.94 283.656 1149.43 283.348C1148.93 283.029 1148.34 282.869 1147.67 282.869C1147.03 282.869 1146.44 283.029 1145.93 283.348C1145.43 283.656 1145.03 284.083 1144.74 284.629C1144.45 285.174 1144.31 285.807 1144.31 286.527C1144.31 287.237 1144.45 287.864 1144.74 288.41C1145.03 288.955 1145.43 289.387 1145.95 289.706C1146.46 290.014 1147.05 290.169 1147.72 290.169Z" fill="#0F0F0F"/>
</svg>
