<svg width="1584" height="396" viewBox="0 0 1584 396" fill="none" xmlns="http://www.w3.org/2000/svg">
<rect width="1584" height="396" fill="#111111"/>
<path d="M1343.24 33.8896C1343.22 34.4053 1343.16 34.9238 1343.06 35.4453C1342.96 35.9668 1342.81 36.4355 1342.62 36.8516C1342.42 37.2676 1342.16 37.6074 1341.84 37.8711C1341.53 38.1289 1341.15 38.2578 1340.71 38.2578C1340.52 38.2578 1340.35 38.2314 1340.19 38.1787C1340.03 38.126 1339.89 38.0469 1339.77 37.9414C1339.67 37.8594 1339.59 37.7656 1339.51 37.6602C1339.44 37.5547 1339.37 37.4375 1339.32 37.3086C1339.24 37.4316 1339.15 37.5459 1339.05 37.6514C1338.95 37.751 1338.84 37.8418 1338.73 37.9238C1338.58 38.0293 1338.43 38.1113 1338.26 38.1699C1338.09 38.2227 1337.92 38.249 1337.73 38.249C1337.41 38.249 1337.12 38.1729 1336.88 38.0205C1336.64 37.8623 1336.44 37.6367 1336.3 37.3438C1336.14 37.0625 1336.04 36.7227 1335.98 36.3242C1335.92 35.9199 1335.92 35.4746 1335.96 34.9883C1336.02 34.3672 1336.13 33.8076 1336.3 33.3096C1336.46 32.8057 1336.67 32.3779 1336.94 32.0264C1337.2 31.6748 1337.51 31.4053 1337.86 31.2178C1338.21 31.0244 1338.6 30.9277 1339.04 30.9277C1339.47 30.9277 1339.82 31.001 1340.09 31.1475C1340.37 31.2881 1340.6 31.4551 1340.77 31.6484L1340.38 36.1924C1340.37 36.3916 1340.38 36.5498 1340.4 36.667C1340.42 36.7842 1340.46 36.875 1340.51 36.9395C1340.56 37.0039 1340.62 37.0449 1340.68 37.0625C1340.75 37.0801 1340.83 37.0889 1340.9 37.0889C1341.08 37.0889 1341.24 37.0098 1341.38 36.8516C1341.52 36.6875 1341.65 36.4648 1341.75 36.1836C1341.85 35.9023 1341.93 35.5684 1341.98 35.1816C1342.04 34.7949 1342.06 34.376 1342.06 33.9248C1342.08 33.1982 1342.03 32.5596 1341.89 32.0088C1341.76 31.458 1341.55 30.998 1341.27 30.6289C1340.99 30.2598 1340.64 29.9814 1340.22 29.7939C1339.8 29.6064 1339.32 29.5127 1338.77 29.5127C1338.19 29.5127 1337.66 29.6445 1337.18 29.9082C1336.71 30.166 1336.31 30.5322 1335.96 31.0068C1335.6 31.4932 1335.31 32.0762 1335.11 32.7559C1334.9 33.4297 1334.79 34.1709 1334.77 34.9795C1334.74 35.7705 1334.79 36.4678 1334.93 37.0713C1335.07 37.6689 1335.29 38.1699 1335.59 38.5742C1335.89 38.9844 1336.27 39.2949 1336.73 39.5059C1337.19 39.7109 1337.73 39.8135 1338.33 39.8135C1338.51 39.8135 1338.69 39.8018 1338.88 39.7783C1339.07 39.749 1339.25 39.7109 1339.44 39.6641C1339.62 39.6172 1339.79 39.5645 1339.95 39.5059C1340.12 39.4414 1340.27 39.3711 1340.4 39.2949L1340.68 40.4111C1340.53 40.5225 1340.36 40.6191 1340.16 40.7012C1339.97 40.7832 1339.77 40.8506 1339.56 40.9033C1339.35 40.9619 1339.13 41.0029 1338.92 41.0264C1338.7 41.0557 1338.5 41.0703 1338.31 41.0703C1337.45 41.0703 1336.71 40.9268 1336.08 40.6396C1335.47 40.3467 1334.96 39.9336 1334.56 39.4004C1334.17 38.873 1333.88 38.2344 1333.69 37.4844C1333.51 36.7344 1333.44 35.8994 1333.47 34.9795C1333.5 34.0537 1333.66 33.1777 1333.93 32.3516C1334.21 31.5195 1334.59 30.7988 1335.07 30.1895C1335.53 29.5918 1336.09 29.123 1336.73 28.7832C1337.37 28.4375 1338.07 28.2646 1338.84 28.2646C1339.54 28.2646 1340.17 28.3994 1340.73 28.6689C1341.28 28.9385 1341.75 29.3193 1342.14 29.8115C1342.52 30.3037 1342.8 30.8955 1342.98 31.5869C1343.18 32.2783 1343.26 33.0459 1343.24 33.8896ZM1337.3 34.9883C1337.28 35.2988 1337.28 35.5771 1337.31 35.8232C1337.34 36.0693 1337.38 36.2744 1337.45 36.4385C1337.51 36.6143 1337.6 36.7461 1337.7 36.834C1337.81 36.916 1337.94 36.957 1338.08 36.957C1338.21 36.957 1338.33 36.9395 1338.45 36.9043C1338.57 36.8633 1338.69 36.7959 1338.79 36.7021C1338.86 36.6436 1338.92 36.5762 1338.99 36.5C1339.05 36.418 1339.11 36.3242 1339.16 36.2188L1339.17 36.1133L1339.5 32.2285C1339.46 32.2109 1339.4 32.1963 1339.34 32.1846C1339.28 32.1729 1339.21 32.167 1339.13 32.167C1338.85 32.167 1338.61 32.2314 1338.4 32.3604C1338.19 32.4834 1338.01 32.668 1337.86 32.9141C1337.71 33.1543 1337.59 33.4502 1337.5 33.8018C1337.41 34.1475 1337.34 34.543 1337.3 34.9883ZM1353.32 41H1344.73V39.541L1348.9 35.0059C1349.25 34.625 1349.54 34.2852 1349.77 33.9863C1350 33.6816 1350.19 33.4033 1350.34 33.1514C1350.48 32.8994 1350.58 32.665 1350.64 32.4482C1350.7 32.2256 1350.74 32.0029 1350.74 31.7803C1350.74 31.4814 1350.69 31.209 1350.6 30.9629C1350.52 30.7168 1350.39 30.5059 1350.22 30.3301C1350.05 30.1543 1349.84 30.0166 1349.6 29.917C1349.37 29.8174 1349.1 29.7676 1348.81 29.7676C1348.44 29.7676 1348.11 29.8203 1347.84 29.9258C1347.56 30.0312 1347.33 30.1807 1347.15 30.374C1346.96 30.5791 1346.82 30.8281 1346.73 31.1211C1346.63 31.4082 1346.59 31.7363 1346.59 32.1055H1344.48C1344.48 31.5488 1344.58 31.0244 1344.79 30.5322C1344.99 30.0342 1345.28 29.6006 1345.67 29.2314C1346.04 28.8623 1346.5 28.5693 1347.04 28.3525C1347.58 28.1357 1348.19 28.0273 1348.86 28.0273C1349.48 28.0273 1350.04 28.1182 1350.53 28.2998C1351.03 28.4814 1351.45 28.7334 1351.79 29.0557C1352.12 29.3779 1352.38 29.7646 1352.56 30.2158C1352.73 30.6611 1352.82 31.1533 1352.82 31.6924C1352.82 32.0967 1352.75 32.4893 1352.62 32.8701C1352.49 33.2451 1352.31 33.6172 1352.08 33.9863C1351.85 34.3555 1351.57 34.7275 1351.25 35.1025C1350.93 35.4775 1350.58 35.8643 1350.21 36.2627L1347.36 39.3037H1353.32V41ZM1364.19 36.1221C1364.19 36.9424 1364.1 37.6689 1363.9 38.3018C1363.71 38.9287 1363.44 39.4531 1363.08 39.875C1362.73 40.3086 1362.3 40.6367 1361.78 40.8594C1361.27 41.0762 1360.69 41.1846 1360.04 41.1846C1359.4 41.1846 1358.82 41.0762 1358.3 40.8594C1357.79 40.6367 1357.35 40.3086 1356.99 39.875C1356.63 39.4531 1356.35 38.9287 1356.16 38.3018C1355.97 37.6689 1355.88 36.9424 1355.88 36.1221V33.0898C1355.88 32.2695 1355.97 31.5459 1356.16 30.9189C1356.35 30.2861 1356.63 29.7529 1356.99 29.3193C1357.34 28.8916 1357.78 28.5693 1358.29 28.3525C1358.8 28.1299 1359.38 28.0186 1360.03 28.0186C1360.68 28.0186 1361.26 28.1299 1361.77 28.3525C1362.28 28.5693 1362.72 28.8916 1363.08 29.3193C1363.44 29.7529 1363.71 30.2861 1363.9 30.9189C1364.1 31.5459 1364.19 32.2695 1364.19 33.0898V36.1221ZM1357.99 35.375L1362.06 32.29C1362.03 31.833 1361.97 31.4375 1361.86 31.1035C1361.76 30.7695 1361.62 30.4971 1361.43 30.2861C1361.27 30.0986 1361.07 29.958 1360.83 29.8643C1360.59 29.7705 1360.33 29.7236 1360.03 29.7236C1359.7 29.7236 1359.42 29.7793 1359.17 29.8906C1358.93 30.002 1358.72 30.166 1358.56 30.3828C1358.37 30.6289 1358.22 30.9482 1358.13 31.3408C1358.03 31.7275 1357.99 32.1846 1357.99 32.7119V34.4346C1357.99 34.6572 1357.99 34.8271 1357.99 34.9443C1357.99 35.0615 1357.99 35.2051 1357.99 35.375ZM1362.07 36.4736V34.8564C1362.07 34.71 1362.07 34.5576 1362.07 34.3994C1362.07 34.2412 1362.07 34.0771 1362.07 33.9072L1358 36.9746C1358.03 37.3789 1358.1 37.7363 1358.19 38.0469C1358.29 38.3574 1358.42 38.6152 1358.58 38.8203C1358.75 39.043 1358.95 39.21 1359.19 39.3213C1359.44 39.4326 1359.72 39.4883 1360.04 39.4883C1360.36 39.4883 1360.64 39.4355 1360.88 39.3301C1361.12 39.2188 1361.32 39.0576 1361.49 38.8467C1361.69 38.6006 1361.83 38.2783 1361.92 37.8799C1362.02 37.4814 1362.07 37.0127 1362.07 36.4736ZM1374.94 41H1366.35V39.541L1370.52 35.0059C1370.87 34.625 1371.16 34.2852 1371.39 33.9863C1371.62 33.6816 1371.82 33.4033 1371.96 33.1514C1372.1 32.8994 1372.2 32.665 1372.26 32.4482C1372.33 32.2256 1372.36 32.0029 1372.36 31.7803C1372.36 31.4814 1372.31 31.209 1372.23 30.9629C1372.14 30.7168 1372.01 30.5059 1371.84 30.3301C1371.67 30.1543 1371.46 30.0166 1371.22 29.917C1370.99 29.8174 1370.73 29.7676 1370.43 29.7676C1370.06 29.7676 1369.73 29.8203 1369.46 29.9258C1369.18 30.0312 1368.95 30.1807 1368.77 30.374C1368.58 30.5791 1368.44 30.8281 1368.35 31.1211C1368.26 31.4082 1368.21 31.7363 1368.21 32.1055H1366.1C1366.1 31.5488 1366.2 31.0244 1366.41 30.5322C1366.61 30.0342 1366.91 29.6006 1367.29 29.2314C1367.66 28.8623 1368.12 28.5693 1368.66 28.3525C1369.2 28.1357 1369.81 28.0273 1370.48 28.0273C1371.1 28.0273 1371.66 28.1182 1372.16 28.2998C1372.65 28.4814 1373.07 28.7334 1373.41 29.0557C1373.75 29.3779 1374 29.7646 1374.18 30.2158C1374.35 30.6611 1374.44 31.1533 1374.44 31.6924C1374.44 32.0967 1374.37 32.4893 1374.24 32.8701C1374.11 33.2451 1373.93 33.6172 1373.7 33.9863C1373.47 34.3555 1373.19 34.7275 1372.87 35.1025C1372.55 35.4775 1372.21 35.8643 1371.83 36.2627L1368.98 39.3037H1374.94V41ZM1377.92 34.6543L1378.61 28.2031H1385.49V30.0664H1380.36L1380.02 33.1338C1380.23 33.0107 1380.51 32.8936 1380.85 32.7822C1381.19 32.6709 1381.59 32.6152 1382.03 32.6152C1382.64 32.6152 1383.18 32.7148 1383.65 32.9141C1384.13 33.1133 1384.54 33.3975 1384.87 33.7666C1385.2 34.1416 1385.45 34.5957 1385.63 35.1289C1385.8 35.6562 1385.89 36.251 1385.89 36.9131C1385.89 37.499 1385.81 38.0527 1385.64 38.5742C1385.47 39.0898 1385.22 39.541 1384.87 39.9277C1384.53 40.3145 1384.1 40.6191 1383.58 40.8418C1383.06 41.0645 1382.44 41.1758 1381.74 41.1758C1381.2 41.1758 1380.68 41.0996 1380.19 40.9473C1379.7 40.7891 1379.26 40.5547 1378.88 40.2441C1378.5 39.9395 1378.18 39.5615 1377.94 39.1104C1377.7 38.6533 1377.56 38.1289 1377.53 37.5371H1379.57C1379.65 38.1641 1379.88 38.6445 1380.26 38.9785C1380.65 39.3125 1381.14 39.4795 1381.74 39.4795C1382.09 39.4795 1382.39 39.415 1382.65 39.2861C1382.91 39.1572 1383.12 38.9756 1383.3 38.7412C1383.46 38.5127 1383.59 38.2373 1383.67 37.915C1383.75 37.5869 1383.79 37.2324 1383.79 36.8516C1383.79 36.4824 1383.74 36.1455 1383.64 35.8408C1383.55 35.5303 1383.41 35.2607 1383.21 35.0322C1383.02 34.8037 1382.78 34.6279 1382.49 34.5049C1382.2 34.376 1381.87 34.3115 1381.49 34.3115C1381.24 34.3115 1381.02 34.332 1380.83 34.373C1380.65 34.4141 1380.49 34.4668 1380.35 34.5312C1380.2 34.6016 1380.07 34.6836 1379.94 34.7773C1379.83 34.8652 1379.71 34.9619 1379.6 35.0674L1377.92 34.6543ZM1407.18 36.2275H1400.1V34.5225H1407.18V36.2275ZM1420.7 41V28.2031H1423.86C1424.41 28.2031 1424.93 28.2676 1425.42 28.3965C1425.9 28.5195 1426.35 28.6924 1426.74 28.915C1427.18 29.1436 1427.56 29.4307 1427.9 29.7764C1428.24 30.1221 1428.52 30.5088 1428.75 30.9365C1428.98 31.3818 1429.16 31.8711 1429.29 32.4043C1429.42 32.9375 1429.49 33.5059 1429.49 34.1094V35.1113C1429.49 35.6914 1429.42 36.2422 1429.3 36.7637C1429.18 37.2793 1429.01 37.751 1428.79 38.1787C1428.58 38.5947 1428.31 38.9727 1428 39.3125C1427.7 39.6523 1427.36 39.9424 1426.98 40.1826C1426.56 40.4463 1426.09 40.6484 1425.58 40.7891C1425.07 40.9297 1424.52 41 1423.93 41H1420.7ZM1422.83 29.9258V39.2861H1423.93C1424.31 39.2861 1424.65 39.2422 1424.96 39.1543C1425.28 39.0605 1425.56 38.9287 1425.81 38.7588C1426.07 38.583 1426.3 38.3633 1426.5 38.0996C1426.7 37.8301 1426.87 37.5225 1427 37.1768C1427.11 36.8838 1427.2 36.5645 1427.25 36.2188C1427.31 35.873 1427.34 35.5039 1427.34 35.1113V34.0918C1427.34 33.7051 1427.31 33.3389 1427.25 32.9932C1427.2 32.6475 1427.11 32.3281 1427 32.0352C1426.86 31.6777 1426.67 31.3555 1426.44 31.0684C1426.2 30.7754 1425.92 30.5381 1425.6 30.3564C1425.37 30.2217 1425.1 30.1191 1424.81 30.0488C1424.52 29.9727 1424.2 29.9316 1423.86 29.9258H1422.83ZM1437.82 38.0557H1433.8L1432.93 41H1430.73L1434.9 28.2031H1436.77L1440.87 41H1438.68L1437.82 38.0557ZM1434.34 36.2451H1437.3L1435.83 31.1826L1434.34 36.2451ZM1450.68 41H1448.56L1444.4 32.1934L1444.39 41H1442.26V28.2031H1444.4L1448.53 36.9746L1448.55 28.2031H1450.68V41ZM1453.54 28.2031H1461.08V29.9521H1458.35V39.2598H1461.08V41H1453.54V39.2598H1456.21V29.9521H1453.54V28.2031ZM1466.34 39.2598H1472.45V41H1464.22V28.2031H1466.34V39.2598ZM1483.52 35.4541C1483.52 35.9697 1483.47 36.4678 1483.38 36.9482C1483.29 37.4287 1483.16 37.8828 1482.99 38.3105C1482.81 38.7383 1482.59 39.1338 1482.32 39.4971C1482.05 39.8545 1481.74 40.1621 1481.39 40.4199C1481.05 40.6543 1480.67 40.8389 1480.25 40.9736C1479.84 41.1084 1479.39 41.1758 1478.9 41.1758C1478.39 41.1758 1477.92 41.1055 1477.49 40.9648C1477.07 40.8184 1476.69 40.6191 1476.36 40.3672C1476.02 40.1094 1475.72 39.7988 1475.46 39.4355C1475.21 39.0723 1475 38.6738 1474.83 38.2402C1474.67 37.8242 1474.54 37.3818 1474.46 36.9131C1474.38 36.4385 1474.34 35.9521 1474.34 35.4541V33.7666C1474.34 33.2451 1474.38 32.7412 1474.47 32.2549C1474.56 31.7686 1474.69 31.3086 1474.86 30.875C1475.03 30.459 1475.24 30.0781 1475.49 29.7324C1475.74 29.3809 1476.04 29.0762 1476.38 28.8184C1476.7 28.5664 1477.08 28.373 1477.49 28.2383C1477.91 28.0977 1478.38 28.0273 1478.88 28.0273C1479.39 28.0273 1479.86 28.0977 1480.29 28.2383C1480.71 28.3789 1481.1 28.5752 1481.44 28.8271C1481.78 29.0791 1482.07 29.375 1482.33 29.7148C1482.58 30.0547 1482.79 30.4268 1482.96 30.8311C1483.15 31.2646 1483.29 31.7305 1483.38 32.2285C1483.47 32.7207 1483.52 33.2334 1483.52 33.7666V35.4541ZM1481.39 33.749C1481.39 33.4268 1481.37 33.1104 1481.33 32.7998C1481.3 32.4893 1481.25 32.1934 1481.17 31.9121C1481.09 31.5898 1480.97 31.2969 1480.82 31.0332C1480.68 30.7637 1480.51 30.5352 1480.3 30.3477C1480.12 30.1836 1479.92 30.0547 1479.68 29.9609C1479.45 29.8672 1479.18 29.8203 1478.88 29.8203C1478.59 29.8203 1478.34 29.8672 1478.11 29.9609C1477.88 30.0488 1477.68 30.1719 1477.51 30.3301C1477.3 30.5234 1477.13 30.7549 1476.99 31.0244C1476.85 31.2881 1476.74 31.584 1476.67 31.9121C1476.6 32.1934 1476.54 32.4922 1476.51 32.8086C1476.48 33.1191 1476.46 33.4326 1476.46 33.749V35.4541C1476.46 35.7646 1476.48 36.0723 1476.51 36.377C1476.54 36.6816 1476.59 36.9746 1476.66 37.2559C1476.73 37.5723 1476.84 37.8682 1476.96 38.1436C1477.1 38.4131 1477.26 38.6416 1477.45 38.8291C1477.63 39.0049 1477.84 39.1455 1478.07 39.251C1478.31 39.3506 1478.59 39.4004 1478.9 39.4004C1479.2 39.4004 1479.47 39.3506 1479.71 39.251C1479.95 39.1514 1480.16 39.0166 1480.34 38.8467C1480.54 38.6533 1480.71 38.4248 1480.85 38.1611C1480.99 37.8916 1481.1 37.5957 1481.18 37.2734C1481.25 36.9922 1481.3 36.6992 1481.33 36.3945C1481.37 36.084 1481.39 35.7705 1481.39 35.4541V33.749ZM1496.37 41V28.2031H1499.54C1500.09 28.2031 1500.6 28.2676 1501.09 28.3965C1501.58 28.5195 1502.02 28.6924 1502.42 28.915C1502.85 29.1436 1503.24 29.4307 1503.57 29.7764C1503.91 30.1221 1504.19 30.5088 1504.42 30.9365C1504.66 31.3818 1504.84 31.8711 1504.97 32.4043C1505.1 32.9375 1505.16 33.5059 1505.16 34.1094V35.1113C1505.16 35.6914 1505.1 36.2422 1504.98 36.7637C1504.86 37.2793 1504.69 37.751 1504.47 38.1787C1504.25 38.5947 1503.99 38.9727 1503.67 39.3125C1503.37 39.6523 1503.03 39.9424 1502.66 40.1826C1502.23 40.4463 1501.76 40.6484 1501.25 40.7891C1500.74 40.9297 1500.19 41 1499.61 41H1496.37ZM1498.51 29.9258V39.2861H1499.61C1499.98 39.2861 1500.32 39.2422 1500.63 39.1543C1500.95 39.0605 1501.23 38.9287 1501.49 38.7588C1501.74 38.583 1501.97 38.3633 1502.17 38.0996C1502.38 37.8301 1502.54 37.5225 1502.67 37.1768C1502.78 36.8838 1502.87 36.5645 1502.93 36.2188C1502.99 35.873 1503.02 35.5039 1503.02 35.1113V34.0918C1503.02 33.7051 1502.99 33.3389 1502.93 32.9932C1502.87 32.6475 1502.78 32.3281 1502.67 32.0352C1502.53 31.6777 1502.34 31.3555 1502.11 31.0684C1501.88 30.7754 1501.6 30.5381 1501.28 30.3564C1501.04 30.2217 1500.78 30.1191 1500.48 30.0488C1500.19 29.9727 1499.88 29.9316 1499.54 29.9258H1498.51ZM1515.95 35.4541C1515.95 35.9697 1515.91 36.4678 1515.81 36.9482C1515.72 37.4287 1515.6 37.8828 1515.43 38.3105C1515.24 38.7383 1515.02 39.1338 1514.75 39.4971C1514.48 39.8545 1514.17 40.1621 1513.82 40.4199C1513.48 40.6543 1513.1 40.8389 1512.68 40.9736C1512.27 41.1084 1511.82 41.1758 1511.33 41.1758C1510.82 41.1758 1510.35 41.1055 1509.92 40.9648C1509.5 40.8184 1509.12 40.6191 1508.79 40.3672C1508.45 40.1094 1508.15 39.7988 1507.89 39.4355C1507.64 39.0723 1507.43 38.6738 1507.26 38.2402C1507.1 37.8242 1506.97 37.3818 1506.89 36.9131C1506.81 36.4385 1506.77 35.9521 1506.77 35.4541V33.7666C1506.77 33.2451 1506.81 32.7412 1506.9 32.2549C1506.99 31.7686 1507.12 31.3086 1507.3 30.875C1507.47 30.459 1507.67 30.0781 1507.92 29.7324C1508.17 29.3809 1508.47 29.0762 1508.81 28.8184C1509.14 28.5664 1509.51 28.373 1509.92 28.2383C1510.35 28.0977 1510.81 28.0273 1511.31 28.0273C1511.82 28.0273 1512.29 28.0977 1512.72 28.2383C1513.15 28.3789 1513.53 28.5752 1513.87 28.8271C1514.21 29.0791 1514.51 29.375 1514.76 29.7148C1515.01 30.0547 1515.22 30.4268 1515.39 30.8311C1515.58 31.2646 1515.72 31.7305 1515.81 32.2285C1515.91 32.7207 1515.95 33.2334 1515.95 33.7666V35.4541ZM1513.83 33.749C1513.82 33.4268 1513.8 33.1104 1513.76 32.7998C1513.74 32.4893 1513.68 32.1934 1513.61 31.9121C1513.52 31.5898 1513.4 31.2969 1513.25 31.0332C1513.11 30.7637 1512.94 30.5352 1512.74 30.3477C1512.55 30.1836 1512.35 30.0547 1512.11 29.9609C1511.88 29.8672 1511.61 29.8203 1511.31 29.8203C1511.03 29.8203 1510.77 29.8672 1510.54 29.9609C1510.31 30.0488 1510.11 30.1719 1509.94 30.3301C1509.74 30.5234 1509.56 30.7549 1509.42 31.0244C1509.28 31.2881 1509.17 31.584 1509.1 31.9121C1509.03 32.1934 1508.97 32.4922 1508.94 32.8086C1508.91 33.1191 1508.9 33.4326 1508.9 33.749V35.4541C1508.9 35.7646 1508.91 36.0723 1508.94 36.377C1508.97 36.6816 1509.02 36.9746 1509.09 37.2559C1509.17 37.5723 1509.27 37.8682 1509.4 38.1436C1509.53 38.4131 1509.69 38.6416 1509.88 38.8291C1510.06 39.0049 1510.27 39.1455 1510.5 39.251C1510.74 39.3506 1511.02 39.4004 1511.33 39.4004C1511.63 39.4004 1511.9 39.3506 1512.14 39.251C1512.38 39.1514 1512.6 39.0166 1512.77 38.8467C1512.98 38.6533 1513.15 38.4248 1513.28 38.1611C1513.42 37.8916 1513.53 37.5957 1513.62 37.2734C1513.69 36.9922 1513.74 36.6992 1513.76 36.3945C1513.8 36.084 1513.82 35.7705 1513.83 35.4541V33.749ZM1526.35 41H1524.23L1520.08 32.1934L1520.07 41H1517.93V28.2031H1520.08L1524.21 36.9746L1524.22 28.2031H1526.35V41ZM1535.11 38.0557H1531.1L1530.23 41H1528.03L1532.2 28.2031H1534.07L1538.16 41H1535.97L1535.11 38.0557ZM1531.63 36.2451H1534.59L1533.13 31.1826L1531.63 36.2451ZM1548.79 29.9521H1544.84V41H1542.74V29.9521H1538.82V28.2031H1548.79V29.9521ZM1559.2 35.4541C1559.2 35.9697 1559.15 36.4678 1559.05 36.9482C1558.97 37.4287 1558.84 37.8828 1558.67 38.3105C1558.49 38.7383 1558.26 39.1338 1557.99 39.4971C1557.72 39.8545 1557.41 40.1621 1557.06 40.4199C1556.72 40.6543 1556.34 40.8389 1555.93 40.9736C1555.52 41.1084 1555.06 41.1758 1554.57 41.1758C1554.06 41.1758 1553.59 41.1055 1553.17 40.9648C1552.74 40.8184 1552.37 40.6191 1552.03 40.3672C1551.69 40.1094 1551.39 39.7988 1551.14 39.4355C1550.88 39.0723 1550.67 38.6738 1550.5 38.2402C1550.34 37.8242 1550.22 37.3818 1550.13 36.9131C1550.05 36.4385 1550.01 35.9521 1550.01 35.4541V33.7666C1550.01 33.2451 1550.05 32.7412 1550.14 32.2549C1550.23 31.7686 1550.36 31.3086 1550.54 30.875C1550.71 30.459 1550.92 30.0781 1551.16 29.7324C1551.41 29.3809 1551.71 29.0762 1552.05 28.8184C1552.38 28.5664 1552.75 28.373 1553.17 28.2383C1553.59 28.0977 1554.05 28.0273 1554.55 28.0273C1555.06 28.0273 1555.53 28.0977 1555.96 28.2383C1556.39 28.3789 1556.77 28.5752 1557.11 28.8271C1557.45 29.0791 1557.75 29.375 1558 29.7148C1558.25 30.0547 1558.46 30.4268 1558.63 30.8311C1558.82 31.2646 1558.96 31.7305 1559.05 32.2285C1559.15 32.7207 1559.2 33.2334 1559.2 33.7666V35.4541ZM1557.07 33.749C1557.06 33.4268 1557.04 33.1104 1557.01 32.7998C1556.98 32.4893 1556.92 32.1934 1556.85 31.9121C1556.76 31.5898 1556.64 31.2969 1556.5 31.0332C1556.36 30.7637 1556.18 30.5352 1555.98 30.3477C1555.8 30.1836 1555.59 30.0547 1555.35 29.9609C1555.12 29.8672 1554.85 29.8203 1554.55 29.8203C1554.27 29.8203 1554.01 29.8672 1553.78 29.9609C1553.55 30.0488 1553.35 30.1719 1553.18 30.3301C1552.98 30.5234 1552.81 30.7549 1552.67 31.0244C1552.52 31.2881 1552.42 31.584 1552.34 31.9121C1552.27 32.1934 1552.22 32.4922 1552.18 32.8086C1552.15 33.1191 1552.14 33.4326 1552.14 33.749V35.4541C1552.14 35.7646 1552.15 36.0723 1552.18 36.377C1552.21 36.6816 1552.26 36.9746 1552.33 37.2559C1552.41 37.5723 1552.51 37.8682 1552.64 38.1436C1552.77 38.4131 1552.93 38.6416 1553.12 38.8291C1553.3 39.0049 1553.51 39.1455 1553.75 39.251C1553.99 39.3506 1554.26 39.4004 1554.57 39.4004C1554.87 39.4004 1555.14 39.3506 1555.38 39.251C1555.63 39.1514 1555.84 39.0166 1556.01 38.8467C1556.22 38.6533 1556.39 38.4248 1556.52 38.1611C1556.66 37.8916 1556.78 37.5957 1556.86 37.2734C1556.93 36.9922 1556.98 36.6992 1557.01 36.3945C1557.04 36.084 1557.06 35.7705 1557.07 35.4541V33.749Z" fill="#F7F8FF"/>
<path d="M1340.79 64.0547H1336.99L1336.08 67H1334.63L1338.3 55.625H1339.52L1343.12 67H1341.69L1340.79 64.0547ZM1337.38 62.7969H1340.41L1338.91 57.8594L1337.38 62.7969ZM1346.6 65.7734H1352.16V67H1345.16V55.625H1346.6V65.7734ZM1356.21 65.7734H1361.77V67H1354.77V55.625H1356.21V65.7734ZM1377.56 62.3594H1375.29V67H1373.85V55.625H1377.19C1377.72 55.6354 1378.22 55.7109 1378.69 55.8516C1379.16 55.9922 1379.57 56.2031 1379.92 56.4844C1380.27 56.7656 1380.54 57.1198 1380.74 57.5469C1380.95 57.9688 1381.05 58.4661 1381.05 59.0391C1381.05 59.4089 1380.99 59.7474 1380.88 60.0547C1380.78 60.362 1380.63 60.6406 1380.45 60.8906C1380.26 61.1406 1380.03 61.362 1379.77 61.5547C1379.51 61.7474 1379.23 61.9115 1378.91 62.0469L1381.33 66.9062L1381.32 67H1379.8L1377.56 62.3594ZM1375.29 61.1719H1377.23C1377.55 61.1667 1377.85 61.1172 1378.14 61.0234C1378.43 60.9245 1378.68 60.7839 1378.9 60.6016C1379.11 60.4193 1379.28 60.1979 1379.41 59.9375C1379.53 59.6719 1379.59 59.3672 1379.59 59.0234C1379.59 58.6589 1379.53 58.3411 1379.41 58.0703C1379.29 57.7943 1379.13 57.5625 1378.91 57.375C1378.7 57.1927 1378.45 57.0547 1378.15 56.9609C1377.86 56.8672 1377.54 56.8177 1377.19 56.8125H1375.29V61.1719ZM1383.41 55.625H1390.28V56.8828H1387.55V65.75H1390.28V67H1383.41V65.75H1386.07V56.8828H1383.41V55.625ZM1400.38 65.5078C1400.2 65.7161 1400.01 65.9062 1399.81 66.0781C1399.61 66.2448 1399.41 66.3906 1399.2 66.5156C1398.83 66.7344 1398.44 66.8958 1398.02 67C1397.59 67.1094 1397.15 67.1615 1396.69 67.1562C1396.22 67.151 1395.79 67.0807 1395.39 66.9453C1395 66.8047 1394.65 66.612 1394.34 66.3672C1394.02 66.1276 1393.75 65.8438 1393.52 65.5156C1393.28 65.1875 1393.09 64.8307 1392.93 64.4453C1392.77 64.0651 1392.65 63.6667 1392.56 63.25C1392.48 62.8281 1392.44 62.4036 1392.44 61.9766V60.6562C1392.44 60.2344 1392.48 59.8151 1392.55 59.3984C1392.62 58.9766 1392.73 58.5729 1392.88 58.1875C1393.02 57.8021 1393.2 57.4453 1393.42 57.1172C1393.64 56.7839 1393.9 56.4948 1394.21 56.25C1394.51 56.0104 1394.86 55.8203 1395.24 55.6797C1395.63 55.5391 1396.06 55.4688 1396.54 55.4688C1397.07 55.4688 1397.56 55.5521 1398.01 55.7188C1398.46 55.8802 1398.85 56.112 1399.18 56.4141C1399.51 56.7214 1399.78 57.0911 1399.98 57.5234C1400.19 57.9505 1400.31 58.4297 1400.36 58.9609H1398.93C1398.87 58.6328 1398.78 58.3307 1398.66 58.0547C1398.54 57.7734 1398.39 57.5339 1398.2 57.3359C1398 57.138 1397.76 56.9844 1397.49 56.875C1397.22 56.7604 1396.91 56.7031 1396.55 56.7031C1396.2 56.7031 1395.9 56.763 1395.63 56.8828C1395.37 56.9974 1395.14 57.1536 1394.94 57.3516C1394.74 57.5495 1394.58 57.7812 1394.45 58.0469C1394.32 58.3073 1394.21 58.5833 1394.12 58.875C1394.04 59.1667 1393.98 59.4635 1393.95 59.7656C1393.91 60.0677 1393.89 60.3594 1393.89 60.6406V61.9766C1393.9 62.263 1393.92 62.5599 1393.96 62.8672C1394.01 63.1693 1394.08 63.4661 1394.17 63.7578C1394.27 64.0495 1394.39 64.3255 1394.53 64.5859C1394.68 64.8464 1394.85 65.0755 1395.06 65.2734C1395.27 65.4714 1395.5 65.6302 1395.77 65.75C1396.04 65.8646 1396.35 65.9245 1396.7 65.9297C1396.89 65.9349 1397.1 65.9271 1397.31 65.9062C1397.53 65.8854 1397.74 65.8438 1397.95 65.7812C1398.15 65.7188 1398.34 65.6354 1398.52 65.5312C1398.69 65.4219 1398.84 65.2812 1398.96 65.1094L1398.98 62.5547H1396.66V61.3359H1400.35L1400.38 65.5078ZM1409.76 67H1408.39V61.7422H1403.73V67H1402.37V55.625H1403.73V60.5156H1408.39V55.625H1409.76V67ZM1419.91 56.8594H1416.39V67H1414.98V56.8594H1411.47V55.625H1419.91V56.8594ZM1427.8 64.125C1427.8 63.776 1427.72 63.4818 1427.55 63.2422C1427.4 63.0026 1427.2 62.7995 1426.95 62.6328C1426.7 62.4714 1426.42 62.3359 1426.12 62.2266C1425.82 62.1172 1425.53 62.0182 1425.26 61.9297C1424.86 61.7995 1424.45 61.6432 1424.03 61.4609C1423.62 61.2734 1423.24 61.0495 1422.91 60.7891C1422.56 60.5234 1422.28 60.2109 1422.06 59.8516C1421.85 59.487 1421.74 59.0599 1421.74 58.5703C1421.74 58.0807 1421.85 57.6432 1422.06 57.2578C1422.28 56.8724 1422.57 56.5469 1422.91 56.2812C1423.26 56.0156 1423.66 55.8151 1424.1 55.6797C1424.54 55.5391 1424.99 55.4688 1425.44 55.4688C1425.93 55.4688 1426.41 55.5521 1426.87 55.7188C1427.33 55.8802 1427.73 56.1094 1428.09 56.4062C1428.44 56.7031 1428.72 57.0625 1428.94 57.4844C1429.15 57.9062 1429.26 58.3776 1429.27 58.8984H1427.79C1427.75 58.5703 1427.67 58.2734 1427.55 58.0078C1427.43 57.737 1427.27 57.5052 1427.07 57.3125C1426.87 57.1198 1426.64 56.9714 1426.36 56.8672C1426.09 56.7578 1425.78 56.7031 1425.44 56.7031C1425.16 56.7031 1424.89 56.7422 1424.62 56.8203C1424.36 56.8984 1424.13 57.0156 1423.93 57.1719C1423.72 57.3281 1423.55 57.5208 1423.43 57.75C1423.31 57.9792 1423.25 58.2448 1423.25 58.5469C1423.26 58.875 1423.34 59.1536 1423.5 59.3828C1423.66 59.6068 1423.87 59.7969 1424.12 59.9531C1424.36 60.1094 1424.63 60.2396 1424.91 60.3438C1425.21 60.4479 1425.48 60.5391 1425.73 60.6172C1426.16 60.7474 1426.58 60.9062 1427 61.0938C1427.42 61.276 1427.81 61.5104 1428.16 61.7969C1428.5 62.0625 1428.78 62.388 1428.98 62.7734C1429.2 63.1589 1429.3 63.6042 1429.3 64.1094C1429.3 64.6198 1429.19 65.0651 1428.96 65.4453C1428.74 65.8255 1428.45 66.1406 1428.09 66.3906C1427.73 66.6458 1427.32 66.8385 1426.87 66.9688C1426.41 67.0938 1425.96 67.1562 1425.51 67.1562C1424.97 67.1562 1424.43 67.0651 1423.91 66.8828C1423.39 66.7005 1422.93 66.4375 1422.55 66.0938C1422.2 65.7969 1421.93 65.4505 1421.73 65.0547C1421.53 64.6536 1421.42 64.2083 1421.41 63.7188H1422.88C1422.93 64.0729 1423.03 64.388 1423.17 64.6641C1423.32 64.9349 1423.51 65.1641 1423.73 65.3516C1423.96 65.5443 1424.23 65.6901 1424.52 65.7891C1424.83 65.8828 1425.15 65.9297 1425.51 65.9297C1425.79 65.9297 1426.07 65.8958 1426.34 65.8281C1426.61 65.7552 1426.86 65.6432 1427.07 65.4922C1427.28 65.3464 1427.46 65.1615 1427.59 64.9375C1427.73 64.7083 1427.8 64.4375 1427.8 64.125ZM1444.83 62.3594H1442.55V67H1441.12V55.625H1444.45C1444.98 55.6354 1445.48 55.7109 1445.95 55.8516C1446.42 55.9922 1446.83 56.2031 1447.19 56.4844C1447.54 56.7656 1447.81 57.1198 1448.01 57.5469C1448.21 57.9688 1448.31 58.4661 1448.31 59.0391C1448.31 59.4089 1448.26 59.7474 1448.15 60.0547C1448.04 60.362 1447.9 60.6406 1447.71 60.8906C1447.52 61.1406 1447.3 61.362 1447.04 61.5547C1446.78 61.7474 1446.49 61.9115 1446.18 62.0469L1448.59 66.9062L1448.59 67H1447.06L1444.83 62.3594ZM1442.55 61.1719H1444.49C1444.82 61.1667 1445.12 61.1172 1445.41 61.0234C1445.69 60.9245 1445.95 60.7839 1446.16 60.6016C1446.38 60.4193 1446.55 60.1979 1446.67 59.9375C1446.8 59.6719 1446.86 59.3672 1446.86 59.0234C1446.86 58.6589 1446.8 58.3411 1446.68 58.0703C1446.56 57.7943 1446.39 57.5625 1446.18 57.375C1445.97 57.1927 1445.71 57.0547 1445.41 56.9609C1445.12 56.8672 1444.8 56.8177 1444.45 56.8125H1442.55V61.1719ZM1456.93 61.7422H1452.18V65.7734H1457.72V67H1450.73V55.625H1457.65V56.8594H1452.18V60.5156H1456.93V61.7422ZM1466.23 64.125C1466.23 63.776 1466.15 63.4818 1465.99 63.2422C1465.84 63.0026 1465.63 62.7995 1465.38 62.6328C1465.13 62.4714 1464.86 62.3359 1464.55 62.2266C1464.26 62.1172 1463.97 62.0182 1463.7 61.9297C1463.29 61.7995 1462.89 61.6432 1462.47 61.4609C1462.06 61.2734 1461.68 61.0495 1461.34 60.7891C1461 60.5234 1460.72 60.2109 1460.5 59.8516C1460.29 59.487 1460.18 59.0599 1460.18 58.5703C1460.18 58.0807 1460.29 57.6432 1460.5 57.2578C1460.72 56.8724 1461 56.5469 1461.35 56.2812C1461.7 56.0156 1462.1 55.8151 1462.54 55.6797C1462.98 55.5391 1463.43 55.4688 1463.88 55.4688C1464.37 55.4688 1464.85 55.5521 1465.3 55.7188C1465.76 55.8802 1466.17 56.1094 1466.52 56.4062C1466.88 56.7031 1467.16 57.0625 1467.38 57.4844C1467.59 57.9062 1467.7 58.3776 1467.71 58.8984H1466.23C1466.18 58.5703 1466.1 58.2734 1465.98 58.0078C1465.86 57.737 1465.71 57.5052 1465.51 57.3125C1465.31 57.1198 1465.07 56.9714 1464.8 56.8672C1464.53 56.7578 1464.22 56.7031 1463.88 56.7031C1463.6 56.7031 1463.33 56.7422 1463.06 56.8203C1462.8 56.8984 1462.57 57.0156 1462.37 57.1719C1462.16 57.3281 1461.99 57.5208 1461.87 57.75C1461.75 57.9792 1461.69 58.2448 1461.69 58.5469C1461.69 58.875 1461.78 59.1536 1461.94 59.3828C1462.1 59.6068 1462.3 59.7969 1462.55 59.9531C1462.8 60.1094 1463.07 60.2396 1463.35 60.3438C1463.64 60.4479 1463.92 60.5391 1464.17 60.6172C1464.59 60.7474 1465.02 60.9062 1465.44 61.0938C1465.86 61.276 1466.24 61.5104 1466.59 61.7969C1466.94 62.0625 1467.21 62.388 1467.42 62.7734C1467.64 63.1589 1467.74 63.6042 1467.74 64.1094C1467.74 64.6198 1467.63 65.0651 1467.4 65.4453C1467.17 65.8255 1466.88 66.1406 1466.52 66.3906C1466.16 66.6458 1465.76 66.8385 1465.3 66.9688C1464.85 67.0938 1464.4 67.1562 1463.95 67.1562C1463.4 67.1562 1462.87 67.0651 1462.34 66.8828C1461.82 66.7005 1461.37 66.4375 1460.98 66.0938C1460.64 65.7969 1460.37 65.4505 1460.16 65.0547C1459.97 64.6536 1459.86 64.2083 1459.84 63.7188H1461.32C1461.37 64.0729 1461.46 64.388 1461.61 64.6641C1461.76 64.9349 1461.94 65.1641 1462.17 65.3516C1462.4 65.5443 1462.66 65.6901 1462.96 65.7891C1463.26 65.8828 1463.59 65.9297 1463.95 65.9297C1464.23 65.9297 1464.5 65.8958 1464.77 65.8281C1465.05 65.7552 1465.29 65.6432 1465.51 65.4922C1465.72 65.3464 1465.9 65.1615 1466.03 64.9375C1466.17 64.7083 1466.23 64.4375 1466.23 64.125ZM1476.15 61.7422H1471.4V65.7734H1476.94V67H1469.95V55.625H1476.87V56.8594H1471.4V60.5156H1476.15V61.7422ZM1483.27 62.3594H1480.99V67H1479.55V55.625H1482.89C1483.42 55.6354 1483.92 55.7109 1484.39 55.8516C1484.86 55.9922 1485.27 56.2031 1485.62 56.4844C1485.97 56.7656 1486.25 57.1198 1486.45 57.5469C1486.65 57.9688 1486.75 58.4661 1486.75 59.0391C1486.75 59.4089 1486.7 59.7474 1486.59 60.0547C1486.48 60.362 1486.34 60.6406 1486.15 60.8906C1485.96 61.1406 1485.74 61.362 1485.48 61.5547C1485.22 61.7474 1484.93 61.9115 1484.62 62.0469L1487.03 66.9062L1487.02 67H1485.5L1483.27 62.3594ZM1480.99 61.1719H1482.93C1483.25 61.1667 1483.56 61.1172 1483.84 61.0234C1484.13 60.9245 1484.38 60.7839 1484.6 60.6016C1484.82 60.4193 1484.98 60.1979 1485.11 59.9375C1485.23 59.6719 1485.3 59.3672 1485.3 59.0234C1485.3 58.6589 1485.24 58.3411 1485.12 58.0703C1485 57.7943 1484.83 57.5625 1484.62 57.375C1484.4 57.1927 1484.15 57.0547 1483.85 56.9609C1483.56 56.8672 1483.24 56.8177 1482.89 56.8125H1480.99V61.1719ZM1491.9 67L1488.3 55.625H1489.85L1492.35 64.1172L1492.52 64.6719L1492.69 64.1016L1495.2 55.625H1496.74L1493.16 67H1491.9ZM1504.98 61.7422H1500.23V65.7734H1505.77V67H1498.78V55.625H1505.7V56.8594H1500.23V60.5156H1504.98V61.7422ZM1508.18 67V55.625H1510.81C1511.26 55.6302 1511.67 55.6771 1512.06 55.7656C1512.46 55.849 1512.82 55.9688 1513.16 56.125C1513.62 56.3385 1514.03 56.6198 1514.38 56.9688C1514.74 57.3125 1515.03 57.7109 1515.24 58.1641C1515.43 58.5495 1515.58 58.9714 1515.68 59.4297C1515.78 59.888 1515.84 60.3776 1515.84 60.8984V61.7344C1515.84 62.2344 1515.79 62.7083 1515.7 63.1562C1515.6 63.6042 1515.46 64.0156 1515.28 64.3906C1515.09 64.7812 1514.86 65.1354 1514.57 65.4531C1514.28 65.7708 1513.96 66.0417 1513.61 66.2656C1513.23 66.5 1512.81 66.6797 1512.34 66.8047C1511.87 66.9297 1511.36 66.9948 1510.81 67H1508.18ZM1509.65 56.8125V65.8203H1510.81C1511.23 65.8151 1511.61 65.763 1511.95 65.6641C1512.29 65.5651 1512.59 65.4245 1512.86 65.2422C1513.14 65.0547 1513.38 64.8255 1513.59 64.5547C1513.79 64.2786 1513.96 63.9714 1514.08 63.6328C1514.18 63.3568 1514.26 63.0599 1514.31 62.7422C1514.36 62.4193 1514.39 62.0833 1514.4 61.7344V60.8828C1514.39 60.5286 1514.36 60.1901 1514.3 59.8672C1514.25 59.5391 1514.17 59.2344 1514.06 58.9531C1513.92 58.5885 1513.73 58.2604 1513.49 57.9688C1513.26 57.6719 1512.97 57.4323 1512.62 57.25C1512.38 57.1146 1512.11 57.0104 1511.8 56.9375C1511.5 56.8594 1511.17 56.8177 1510.81 56.8125H1509.65Z" fill="white" fill-opacity="0.5"/>
<ellipse cx="29.4461" cy="29.7324" rx="9.44615" ry="9.73239" fill="#FF5F5A"/>
<ellipse cx="62.1327" cy="29.7324" rx="9.44615" ry="9.73239" fill="#FFBE2E"/>
<ellipse cx="94.8192" cy="29.7324" rx="9.44615" ry="9.73239" fill="#2ACA44"/>
<rect x="415.407" y="99.4065" width="656.728" height="153.587" fill="#5C95FF" fill-opacity="0.05" stroke="#91A7FF" stroke-width="2.99667"/>
<rect x="407.749" y="91.7492" width="11.9867" height="11.9867" fill="white" stroke="#91A7FF" stroke-width="1.49833"/>
<rect x="1067.47" y="91.7492" width="11.9867" height="11.9867" fill="white" stroke="#91A7FF" stroke-width="1.49833"/>
<rect x="407.749" y="246.03" width="11.9867" height="11.9867" fill="white" stroke="#91A7FF" stroke-width="1.49833"/>
<rect x="1067.47" y="246.03" width="11.9867" height="11.9867" fill="white" stroke="#91A7FF" stroke-width="1.49833"/>
<path d="M457.103 198.694V159.861H463.095V176.504H479.404V159.861H485.396V198.694H479.404V181.94H463.095V198.694H457.103ZM493.675 198.694V171.345H499.389V198.694H493.675ZM496.56 167.628C495.45 167.628 494.507 167.277 493.731 166.574C492.991 165.834 492.621 164.891 492.621 163.745C492.621 162.598 492.991 161.674 493.731 160.971C494.507 160.231 495.45 159.861 496.56 159.861C497.706 159.861 498.65 160.231 499.389 160.971C500.129 161.674 500.499 162.598 500.499 163.745C500.499 164.891 500.129 165.834 499.389 166.574C498.65 167.277 497.706 167.628 496.56 167.628ZM529.536 198.694V165.298H517.608V159.861H547.454V165.298H535.527V198.694H529.536ZM553.051 198.694V159.861H558.765V175.228H559.652C560.022 174.525 560.54 173.841 561.206 173.175C561.908 172.51 562.814 171.973 563.924 171.567C565.07 171.123 566.513 170.901 568.251 170.901C570.322 170.901 572.153 171.363 573.743 172.288C575.37 173.212 576.646 174.525 577.571 176.226C578.495 177.891 578.958 179.906 578.958 182.273V198.694H573.244V182.717C573.244 180.35 572.652 178.612 571.469 177.502C570.285 176.356 568.658 175.783 566.587 175.783C564.22 175.783 562.315 176.559 560.873 178.113C559.467 179.666 558.765 181.922 558.765 184.881V198.694H553.051ZM599.718 199.47C596.945 199.47 594.522 198.897 592.451 197.751C590.38 196.567 588.753 194.922 587.569 192.813C586.423 190.668 585.85 188.191 585.85 185.38V184.714C585.85 181.866 586.423 179.389 587.569 177.281C588.716 175.135 590.306 173.49 592.34 172.343C594.411 171.16 596.797 170.568 599.496 170.568C602.122 170.568 604.415 171.16 606.375 172.343C608.372 173.49 609.926 175.098 611.035 177.17C612.145 179.241 612.699 181.663 612.699 184.437V186.6H591.674C591.748 189.004 592.544 190.927 594.06 192.37C595.613 193.775 597.536 194.478 599.829 194.478C601.974 194.478 603.583 193.997 604.656 193.035C605.765 192.074 606.616 190.964 607.207 189.707L611.923 192.148C611.405 193.183 610.647 194.274 609.648 195.421C608.687 196.567 607.411 197.529 605.821 198.306C604.23 199.082 602.196 199.47 599.718 199.47ZM591.73 182.218H606.875C606.727 180.147 605.987 178.538 604.656 177.391C603.324 176.208 601.586 175.616 599.441 175.616C597.296 175.616 595.539 176.208 594.171 177.391C592.839 178.538 592.026 180.147 591.73 182.218ZM619.577 198.694V171.345H625.18V174.562H626.068C626.512 173.416 627.215 172.584 628.176 172.066C629.175 171.511 630.395 171.234 631.837 171.234H635.11V176.393H631.616C629.766 176.393 628.25 176.911 627.067 177.946C625.883 178.945 625.291 180.498 625.291 182.606V198.694H619.577ZM652.593 199.47C649.819 199.47 647.397 198.897 645.326 197.751C643.255 196.567 641.627 194.922 640.444 192.813C639.297 190.668 638.724 188.191 638.724 185.38V184.714C638.724 181.866 639.297 179.389 640.444 177.281C641.59 175.135 643.181 173.49 645.215 172.343C647.286 171.16 649.671 170.568 652.371 170.568C654.997 170.568 657.29 171.16 659.25 172.343C661.247 173.49 662.8 175.098 663.91 177.17C665.019 179.241 665.574 181.663 665.574 184.437V186.6H644.549C644.623 189.004 645.418 190.927 646.934 192.37C648.488 193.775 650.411 194.478 652.704 194.478C654.849 194.478 656.458 193.997 657.53 193.035C658.64 192.074 659.49 190.964 660.082 189.707L664.797 192.148C664.28 193.183 663.521 194.274 662.523 195.421C661.561 196.567 660.285 197.529 658.695 198.306C657.105 199.082 655.071 199.47 652.593 199.47ZM644.604 182.218H659.749C659.601 180.147 658.862 178.538 657.53 177.391C656.199 176.208 654.461 175.616 652.316 175.616C650.17 175.616 648.414 176.208 647.045 177.391C645.714 178.538 644.9 180.147 644.604 182.218ZM672.128 206.238V202.965H674.014C675.531 202.965 676.289 202.207 676.289 200.691V198.916H675.457C674.162 198.916 673.09 198.527 672.239 197.751C671.389 196.974 670.963 195.994 670.963 194.811C670.963 193.516 671.389 192.481 672.239 191.704C673.09 190.89 674.162 190.484 675.457 190.484C676.751 190.484 677.805 190.909 678.619 191.759C679.47 192.573 679.895 193.646 679.895 194.977V200.746C679.895 204.408 678.064 206.238 674.403 206.238H672.128ZM699.481 198.694V159.861H705.473V198.694H699.481ZM736.361 199.47C734.4 199.47 732.644 199.138 731.09 198.472C729.574 197.806 728.354 196.826 727.429 195.532C726.541 194.237 726.098 192.666 726.098 190.816C726.098 188.93 726.541 187.377 727.429 186.157C728.354 184.899 729.593 183.956 731.146 183.327C732.736 182.699 734.53 182.384 736.527 182.384H744.848V180.609C744.848 179.019 744.367 177.743 743.406 176.781C742.444 175.82 740.965 175.339 738.968 175.339C737.008 175.339 735.51 175.801 734.474 176.726C733.439 177.65 732.755 178.852 732.422 180.332L727.096 178.612C727.54 177.133 728.243 175.801 729.204 174.618C730.203 173.397 731.516 172.417 733.143 171.678C734.77 170.938 736.73 170.568 739.023 170.568C742.574 170.568 745.366 171.474 747.4 173.286C749.434 175.098 750.451 177.669 750.451 180.997V192.259C750.451 193.368 750.969 193.923 752.004 193.923H754.334V198.694H750.063C748.768 198.694 747.714 198.361 746.901 197.695C746.087 197.03 745.68 196.124 745.68 194.977V194.811H744.848C744.552 195.365 744.109 196.013 743.517 196.752C742.925 197.492 742.056 198.139 740.909 198.694C739.763 199.212 738.247 199.47 736.361 199.47ZM737.193 194.755C739.486 194.755 741.335 194.108 742.74 192.813C744.146 191.482 744.848 189.67 744.848 187.377V186.822H736.86C735.343 186.822 734.123 187.155 733.198 187.821C732.274 188.449 731.812 189.393 731.812 190.65C731.812 191.907 732.292 192.906 733.254 193.646C734.216 194.385 735.528 194.755 737.193 194.755ZM759.89 198.694V171.345H765.493V174.562H766.381C766.899 173.601 767.731 172.75 768.877 172.01C770.024 171.271 771.577 170.901 773.537 170.901C775.571 170.901 777.198 171.326 778.419 172.177C779.676 172.99 780.619 174.044 781.248 175.339H782.136C782.764 174.081 783.67 173.027 784.854 172.177C786.074 171.326 787.794 170.901 790.013 170.901C791.788 170.901 793.36 171.271 794.728 172.01C796.097 172.713 797.188 173.786 798.001 175.228C798.815 176.633 799.222 178.39 799.222 180.498V198.694H793.508V180.942C793.508 179.278 793.046 178.002 792.121 177.114C791.234 176.189 789.958 175.727 788.293 175.727C786.518 175.727 785.094 176.3 784.022 177.447C782.949 178.593 782.413 180.239 782.413 182.384V198.694H776.699V180.942C776.699 179.278 776.237 178.002 775.312 177.114C774.425 176.189 773.149 175.727 771.484 175.727C769.709 175.727 768.285 176.3 767.213 177.447C766.14 178.593 765.604 180.239 765.604 182.384V198.694H759.89ZM819.986 198.694V193.368H825.201V165.187H819.986V159.861H835.519C840.697 159.861 844.654 161.174 847.391 163.8C850.165 166.426 851.552 170.383 851.552 175.672V182.939C851.552 188.228 850.165 192.185 847.391 194.811C844.654 197.399 840.697 198.694 835.519 198.694H819.986ZM831.248 193.257H835.575C838.94 193.257 841.437 192.407 843.064 190.705C844.691 189.004 845.505 186.471 845.505 183.105V175.45C845.505 172.047 844.691 169.514 843.064 167.85C841.437 166.186 838.94 165.353 835.575 165.353H831.248V193.257ZM866.976 199.47C865.016 199.47 863.259 199.138 861.706 198.472C860.19 197.806 858.969 196.826 858.044 195.532C857.157 194.237 856.713 192.666 856.713 190.816C856.713 188.93 857.157 187.377 858.044 186.157C858.969 184.899 860.208 183.956 861.761 183.327C863.352 182.699 865.145 182.384 867.142 182.384H875.464V180.609C875.464 179.019 874.983 177.743 874.021 176.781C873.06 175.82 871.58 175.339 869.583 175.339C867.623 175.339 866.125 175.801 865.09 176.726C864.054 177.65 863.37 178.852 863.037 180.332L857.712 178.612C858.155 177.133 858.858 175.801 859.82 174.618C860.818 173.397 862.131 172.417 863.758 171.678C865.386 170.938 867.346 170.568 869.639 170.568C873.189 170.568 875.981 171.474 878.015 173.286C880.05 175.098 881.067 177.669 881.067 180.997V192.259C881.067 193.368 881.584 193.923 882.62 193.923H884.95V198.694H880.678C879.384 198.694 878.33 198.361 877.516 197.695C876.703 197.03 876.296 196.124 876.296 194.977V194.811H875.464C875.168 195.365 874.724 196.013 874.132 196.752C873.54 197.492 872.671 198.139 871.525 198.694C870.378 199.212 868.862 199.47 866.976 199.47ZM867.808 194.755C870.101 194.755 871.95 194.108 873.356 192.813C874.761 191.482 875.464 189.67 875.464 187.377V186.822H867.475C865.959 186.822 864.738 187.155 863.814 187.821C862.889 188.449 862.427 189.393 862.427 190.65C862.427 191.907 862.908 192.906 863.869 193.646C864.831 194.385 866.144 194.755 867.808 194.755ZM890.506 198.694V171.345H896.109V175.45H896.996C897.514 174.34 898.439 173.305 899.77 172.343C901.101 171.382 903.08 170.901 905.706 170.901C907.777 170.901 909.607 171.363 911.198 172.288C912.825 173.212 914.101 174.525 915.026 176.226C915.95 177.891 916.412 179.906 916.412 182.273V198.694H910.698V182.717C910.698 180.35 910.107 178.612 908.923 177.502C907.74 176.356 906.113 175.783 904.041 175.783C901.675 175.783 899.77 176.559 898.328 178.113C896.922 179.666 896.22 181.922 896.22 184.881V198.694H890.506ZM925.135 187.1V159.861H930.96V187.1H925.135ZM928.075 199.47C926.781 199.47 925.69 199.045 924.802 198.195C923.952 197.344 923.526 196.253 923.526 194.922C923.526 193.59 923.952 192.518 924.802 191.704C925.69 190.853 926.781 190.428 928.075 190.428C929.37 190.428 930.442 190.853 931.293 191.704C932.18 192.555 932.624 193.627 932.624 194.922C932.624 196.253 932.18 197.344 931.293 198.195C930.442 199.045 929.37 199.47 928.075 199.47Z" fill="#91A7FF"/>
<path d="M967.934 153.255C964.844 155.911 960.908 165.473 969.885 182.471L1030.06 182.777C1039.03 165.793 1034.74 159.778 1031.65 157.124C1033.11 159.925 1035.13 162.962 1030.06 166.854C1024.98 170.747 1025.83 153.736 1025.83 144.3C1025.5 146.511 1023.65 153.255 1017.53 157.124C1012.33 151.669 1010.12 147.75 1017.53 142.089C1010.22 142.088 1003.39 123.512 1003.87 125.723C1003.22 127.493 1006.61 141.735 1005.83 142.089C999.971 141.748 995.659 135.803 995.659 131.203C995.659 135.807 995.899 142.266 993.785 143.446C993.021 143.1 991.947 129.976 991.234 127.718C990.974 129.894 988.633 141.748 982.407 141.748C989.823 147.415 989.492 153.255 982.407 156.796C977.332 150.422 976.877 146.175 976.552 143.962C976.552 153.405 974.959 170.431 969.885 166.535C964.811 162.64 966.47 156.058 967.934 153.255Z" fill="#F6F8FF"/>
<path d="M1030.56 186.863C1030.56 203.802 1016.83 217.533 999.894 217.533C982.955 217.533 969.223 203.802 969.223 186.863C969.223 169.924 982.955 156.192 999.894 156.192C1016.83 156.192 1030.56 169.924 1030.56 186.863Z" fill="#F6F8FF"/>
<path d="M1019.14 187.163C1019.14 191.315 1015.77 194.68 1011.62 194.68C1007.47 194.68 1004.1 191.315 1004.1 187.163C1004.1 183.011 1007.47 179.722 1011.62 179.722C1015.77 179.722 1019.14 183.011 1019.14 187.163Z" fill="#03081C"/>
<path d="M995.789 187.164C995.789 191.315 992.423 194.681 988.272 194.681C984.12 194.681 980.754 191.315 980.754 187.164C980.754 183.012 984.12 179.359 988.272 179.359C992.423 179.359 995.789 183.012 995.789 187.164Z" fill="#03081C"/>
<path d="M1011.09 270.393L1005.91 247.098L1028.06 259.642L1017.22 261.882L1011.09 270.393Z" fill="#91A7FF"/>
<path fill-rule="evenodd" clip-rule="evenodd" d="M1004.55 245.281L1030.61 260.039L1017.77 262.691L1010.63 272.613L1004.55 245.281ZM1007.27 248.914L1011.55 268.174L1016.66 261.072L1025.51 259.244L1007.27 248.914Z" fill="#F5FAFF"/>
<path d="M1176.1 274.065H1027.58V304H1176.1V274.065Z" fill="#91A7FF"/>
<path d="M1036.13 295.58V284.322H1039.6C1040.67 284.322 1041.62 284.563 1042.45 285.046C1043.28 285.517 1043.94 286.177 1044.41 287.024C1044.88 287.871 1045.12 288.846 1045.12 289.951C1045.12 291.044 1044.88 292.015 1044.41 292.862C1043.94 293.709 1043.28 294.373 1042.45 294.856C1041.62 295.338 1040.67 295.58 1039.6 295.58H1036.13ZM1037.7 294.1H1039.6C1040.15 294.1 1040.66 293.998 1041.13 293.794C1041.6 293.58 1042.01 293.285 1042.37 292.91C1042.73 292.524 1043.01 292.079 1043.2 291.575C1043.41 291.071 1043.51 290.53 1043.51 289.951C1043.51 289.372 1043.41 288.83 1043.2 288.326C1043.01 287.823 1042.73 287.383 1042.37 287.008C1042.01 286.622 1041.6 286.327 1041.13 286.123C1040.66 285.909 1040.15 285.801 1039.6 285.801H1037.7V294.1ZM1055.03 295.58L1050.58 284.322H1052.18L1056.72 295.58H1055.03ZM1045.96 295.58L1050.49 284.322H1052.1L1047.65 295.58H1045.96ZM1048.1 292.572V291.157H1054.58V292.572H1048.1ZM1058.29 295.58V284.322H1059.91L1066.28 292.942V284.322H1067.87V295.58H1066.28L1059.86 286.879V295.58H1058.29ZM1070.74 295.58V284.322H1072.32V295.58H1070.74ZM1075.19 295.58V284.322H1076.76V294.132H1081.99V295.58H1075.19ZM1088.23 295.773C1087.13 295.773 1086.16 295.526 1085.32 295.033C1084.47 294.54 1083.8 293.853 1083.32 292.974C1082.85 292.095 1082.61 291.087 1082.61 289.951C1082.61 288.814 1082.85 287.812 1083.32 286.943C1083.8 286.064 1084.46 285.378 1085.3 284.885C1086.14 284.381 1087.1 284.129 1088.19 284.129C1089.29 284.129 1090.25 284.381 1091.09 284.885C1091.92 285.378 1092.58 286.064 1093.05 286.943C1093.52 287.812 1093.76 288.814 1093.76 289.951C1093.76 291.087 1093.52 292.095 1093.05 292.974C1092.58 293.853 1091.92 294.54 1091.09 295.033C1090.26 295.526 1089.31 295.773 1088.23 295.773ZM1088.23 294.325C1089 294.325 1089.68 294.138 1090.27 293.762C1090.86 293.387 1091.32 292.872 1091.65 292.218C1091.98 291.564 1092.15 290.808 1092.15 289.951C1092.15 289.104 1091.98 288.353 1091.64 287.699C1091.3 287.034 1090.84 286.514 1090.24 286.139C1089.65 285.764 1088.97 285.576 1088.19 285.576C1087.42 285.576 1086.74 285.764 1086.14 286.139C1085.53 286.514 1085.06 287.034 1084.72 287.699C1084.39 288.353 1084.22 289.104 1084.22 289.951C1084.22 290.808 1084.39 291.564 1084.74 292.218C1085.08 292.872 1085.55 293.387 1086.15 293.762C1086.76 294.138 1087.45 294.325 1088.23 294.325ZM1099.81 295.58V284.322H1103.29C1104.36 284.322 1105.31 284.563 1106.13 285.046C1106.97 285.517 1107.62 286.177 1108.09 287.024C1108.57 287.871 1108.8 288.846 1108.8 289.951C1108.8 291.044 1108.57 292.015 1108.09 292.862C1107.62 293.709 1106.97 294.373 1106.13 294.856C1105.31 295.338 1104.36 295.58 1103.29 295.58H1099.81ZM1101.39 294.1H1103.29C1103.83 294.1 1104.34 293.998 1104.81 293.794C1105.29 293.58 1105.7 293.285 1106.05 292.91C1106.42 292.524 1106.7 292.079 1106.89 291.575C1107.09 291.071 1107.19 290.53 1107.19 289.951C1107.19 289.372 1107.09 288.83 1106.89 288.326C1106.7 287.823 1106.42 287.383 1106.05 287.008C1105.7 286.622 1105.29 286.327 1104.81 286.123C1104.34 285.909 1103.83 285.801 1103.29 285.801H1101.39V294.1ZM1115.8 295.773C1114.71 295.773 1113.74 295.526 1112.89 295.033C1112.05 294.54 1111.38 293.853 1110.9 292.974C1110.43 292.095 1110.19 291.087 1110.19 289.951C1110.19 288.814 1110.43 287.812 1110.9 286.943C1111.38 286.064 1112.04 285.378 1112.88 284.885C1113.71 284.381 1114.68 284.129 1115.77 284.129C1116.87 284.129 1117.83 284.381 1118.67 284.885C1119.5 285.378 1120.16 286.064 1120.63 286.943C1121.1 287.812 1121.34 288.814 1121.34 289.951C1121.34 291.087 1121.1 292.095 1120.63 292.974C1120.16 293.853 1119.5 294.54 1118.67 295.033C1117.84 295.526 1116.89 295.773 1115.8 295.773ZM1115.8 294.325C1116.58 294.325 1117.26 294.138 1117.85 293.762C1118.44 293.387 1118.9 292.872 1119.23 292.218C1119.56 291.564 1119.73 290.808 1119.73 289.951C1119.73 289.104 1119.56 288.353 1119.21 287.699C1118.88 287.034 1118.42 286.514 1117.81 286.139C1117.23 285.764 1116.54 285.576 1115.77 285.576C1115 285.576 1114.31 285.764 1113.71 286.139C1113.11 286.514 1112.64 287.034 1112.3 287.699C1111.97 288.353 1111.8 289.104 1111.8 289.951C1111.8 290.808 1111.97 291.564 1112.31 292.218C1112.66 292.872 1113.13 293.387 1113.73 293.762C1114.34 294.138 1115.03 294.325 1115.8 294.325ZM1123.46 295.58V284.322H1125.09L1131.46 292.942V284.322H1133.05V295.58H1131.46L1125.04 286.879V295.58H1123.46ZM1143.7 295.58L1139.25 284.322H1140.86L1145.39 295.58H1143.7ZM1134.63 295.58L1139.17 284.322H1140.78L1136.32 295.58H1134.63ZM1136.77 292.572V291.157H1143.25V292.572H1136.77ZM1148.88 295.58V285.769H1145.36V284.322H1154V285.769H1150.47V295.58H1148.88ZM1160.49 295.773C1159.39 295.773 1158.42 295.526 1157.58 295.033C1156.73 294.54 1156.06 293.853 1155.58 292.974C1155.11 292.095 1154.87 291.087 1154.87 289.951C1154.87 288.814 1155.11 287.812 1155.58 286.943C1156.06 286.064 1156.72 285.378 1157.56 284.885C1158.4 284.381 1159.36 284.129 1160.45 284.129C1161.55 284.129 1162.51 284.381 1163.35 284.885C1164.19 285.378 1164.84 286.064 1165.31 286.943C1165.78 287.812 1166.02 288.814 1166.02 289.951C1166.02 291.087 1165.78 292.095 1165.31 292.974C1164.84 293.853 1164.19 294.54 1163.35 295.033C1162.52 295.526 1161.57 295.773 1160.49 295.773ZM1160.49 294.325C1161.26 294.325 1161.94 294.138 1162.53 293.762C1163.12 293.387 1163.58 292.872 1163.91 292.218C1164.24 291.564 1164.41 290.808 1164.41 289.951C1164.41 289.104 1164.24 288.353 1163.9 287.699C1163.56 287.034 1163.1 286.514 1162.5 286.139C1161.91 285.764 1161.23 285.576 1160.45 285.576C1159.68 285.576 1159 285.764 1158.4 286.139C1157.8 286.514 1157.32 287.034 1156.98 287.699C1156.65 288.353 1156.48 289.104 1156.48 289.951C1156.48 290.808 1156.65 291.564 1157 292.218C1157.34 292.872 1157.81 293.387 1158.41 293.762C1159.02 294.138 1159.71 294.325 1160.49 294.325Z" fill="#0F0F0F"/>
<path d="M1340 364V354.047H1343.19C1343.67 354.047 1344.13 354.102 1344.55 354.211C1344.97 354.316 1345.34 354.478 1345.65 354.696C1345.96 354.915 1346.2 355.195 1346.38 355.537C1346.55 355.874 1346.64 356.275 1346.64 356.74C1346.64 357.023 1346.59 357.287 1346.49 357.533C1346.4 357.775 1346.27 357.989 1346.1 358.176C1345.97 358.312 1345.83 358.433 1345.68 358.538C1345.53 358.638 1345.35 358.729 1345.15 358.812V358.825C1345.45 358.903 1345.7 359.017 1345.91 359.167C1346.12 359.313 1346.3 359.479 1346.44 359.666C1346.58 359.867 1346.69 360.09 1346.77 360.336C1346.84 360.577 1346.88 360.833 1346.88 361.102C1346.89 361.576 1346.8 361.993 1346.63 362.353C1346.46 362.713 1346.22 363.013 1345.91 363.255C1345.61 363.501 1345.24 363.688 1344.82 363.815C1344.4 363.938 1343.94 364 1343.45 364H1340ZM1341.66 359.502V362.646H1343.46C1343.72 362.646 1343.96 362.61 1344.17 362.537C1344.39 362.464 1344.57 362.364 1344.72 362.236C1344.89 362.104 1345.01 361.942 1345.1 361.751C1345.19 361.555 1345.23 361.339 1345.23 361.102C1345.23 360.851 1345.2 360.63 1345.12 360.438C1345.05 360.243 1344.94 360.076 1344.8 359.939C1344.65 359.803 1344.47 359.698 1344.26 359.625C1344.05 359.548 1343.81 359.507 1343.55 359.502H1341.66ZM1341.66 358.251H1343.22C1343.49 358.246 1343.74 358.21 1343.96 358.142C1344.19 358.073 1344.38 357.973 1344.54 357.841C1344.68 357.722 1344.79 357.579 1344.87 357.41C1344.95 357.242 1345 357.048 1345 356.829C1345 356.597 1344.96 356.396 1344.88 356.228C1344.81 356.054 1344.7 355.913 1344.56 355.804C1344.41 355.667 1344.22 355.569 1343.98 355.51C1343.75 355.446 1343.49 355.412 1343.21 355.407H1341.66V358.251ZM1353.26 361.71H1350.14L1349.46 364H1347.75L1350.99 354.047H1352.45L1355.63 364H1353.93L1353.26 361.71ZM1350.55 360.302H1352.86L1351.71 356.364L1350.55 360.302ZM1362.02 361.437C1362.02 361.204 1361.98 360.999 1361.88 360.821C1361.78 360.644 1361.65 360.484 1361.48 360.343C1361.29 360.211 1361.08 360.092 1360.83 359.987C1360.58 359.878 1360.31 359.78 1360 359.693C1359.53 359.561 1359.1 359.399 1358.7 359.208C1358.31 359.012 1357.97 358.793 1357.7 358.552C1357.42 358.306 1357.2 358.028 1357.04 357.718C1356.89 357.403 1356.81 357.05 1356.81 356.658C1356.81 356.234 1356.9 355.854 1357.08 355.517C1357.26 355.175 1357.51 354.883 1357.82 354.642C1358.13 354.405 1358.49 354.225 1358.9 354.102C1359.31 353.974 1359.75 353.91 1360.21 353.91C1360.69 353.91 1361.14 353.985 1361.55 354.136C1361.97 354.282 1362.34 354.487 1362.65 354.751C1362.96 355.02 1363.2 355.341 1363.38 355.715C1363.56 356.084 1363.65 356.494 1363.65 356.945H1362.02C1362 356.695 1361.95 356.467 1361.86 356.262C1361.78 356.052 1361.66 355.872 1361.51 355.722C1361.36 355.576 1361.17 355.462 1360.94 355.38C1360.72 355.293 1360.47 355.25 1360.18 355.25C1359.93 355.25 1359.7 355.284 1359.49 355.353C1359.28 355.416 1359.1 355.507 1358.94 355.626C1358.79 355.749 1358.66 355.897 1358.58 356.07C1358.49 356.243 1358.45 356.437 1358.45 356.651C1358.45 356.879 1358.51 357.08 1358.63 357.253C1358.74 357.422 1358.89 357.57 1359.08 357.697C1359.28 357.825 1359.5 357.937 1359.75 358.032C1360.01 358.128 1360.28 358.217 1360.55 358.299C1360.9 358.399 1361.25 358.524 1361.58 358.675C1361.92 358.821 1362.23 358.998 1362.51 359.208C1362.86 359.472 1363.14 359.789 1363.35 360.158C1363.56 360.523 1363.67 360.944 1363.67 361.423C1363.67 361.865 1363.58 362.255 1363.39 362.592C1363.21 362.929 1362.96 363.209 1362.65 363.433C1362.34 363.665 1361.97 363.84 1361.56 363.959C1361.14 364.073 1360.71 364.13 1360.25 364.13C1359.76 364.13 1359.28 364.055 1358.8 363.904C1358.33 363.749 1357.92 363.526 1357.57 363.234C1357.24 362.961 1356.99 362.64 1356.79 362.271C1356.61 361.901 1356.51 361.478 1356.51 360.999H1358.15C1358.17 361.304 1358.23 361.571 1358.34 361.799C1358.45 362.022 1358.6 362.207 1358.78 362.353C1358.97 362.503 1359.18 362.615 1359.43 362.688C1359.68 362.76 1359.95 362.797 1360.25 362.797C1360.5 362.797 1360.73 362.767 1360.94 362.708C1361.16 362.649 1361.35 362.56 1361.51 362.441C1361.67 362.327 1361.79 362.186 1361.88 362.018C1361.98 361.849 1362.02 361.655 1362.02 361.437ZM1371.09 359.536H1366.98V362.646H1371.79V364H1365.33V354.047H1371.75V355.407H1366.98V358.21H1371.09V359.536ZM1373.58 364V354.047H1376.04C1376.47 354.047 1376.87 354.097 1377.25 354.197C1377.63 354.293 1377.97 354.427 1378.28 354.601C1378.62 354.778 1378.92 355.002 1379.17 355.271C1379.44 355.539 1379.66 355.84 1379.84 356.173C1380.02 356.519 1380.16 356.9 1380.26 357.314C1380.36 357.729 1380.41 358.171 1380.41 358.641V359.42C1380.41 359.871 1380.36 360.299 1380.27 360.705C1380.18 361.106 1380.05 361.473 1379.87 361.806C1379.7 362.129 1379.5 362.423 1379.26 362.688C1379.02 362.952 1378.76 363.177 1378.46 363.364C1378.14 363.569 1377.77 363.727 1377.37 363.836C1376.97 363.945 1376.55 364 1376.09 364H1373.58ZM1375.24 355.387V362.667H1376.09C1376.38 362.667 1376.65 362.633 1376.89 362.564C1377.14 362.492 1377.36 362.389 1377.55 362.257C1377.76 362.12 1377.93 361.949 1378.09 361.744C1378.25 361.535 1378.38 361.295 1378.48 361.026C1378.56 360.799 1378.63 360.55 1378.68 360.281C1378.72 360.012 1378.74 359.725 1378.74 359.42V358.627C1378.74 358.326 1378.72 358.041 1378.68 357.772C1378.63 357.504 1378.56 357.255 1378.48 357.027C1378.37 356.749 1378.22 356.499 1378.04 356.275C1377.86 356.048 1377.64 355.863 1377.39 355.722C1377.21 355.617 1377 355.537 1376.78 355.482C1376.55 355.423 1376.3 355.391 1376.04 355.387H1375.24ZM1390.71 354.047H1396.58V355.407H1394.45V362.646H1396.58V364H1390.71V362.646H1392.79V355.407H1390.71V354.047ZM1405.3 364H1403.65L1400.42 357.15L1400.41 364H1398.75V354.047H1400.42L1403.63 360.869L1403.65 354.047H1405.3V364ZM1420.88 361.437C1420.88 361.204 1420.83 360.999 1420.74 360.821C1420.64 360.644 1420.51 360.484 1420.33 360.343C1420.15 360.211 1419.94 360.092 1419.68 359.987C1419.44 359.878 1419.16 359.78 1418.86 359.693C1418.39 359.561 1417.96 359.399 1417.56 359.208C1417.17 359.012 1416.83 358.793 1416.55 358.552C1416.28 358.306 1416.06 358.028 1415.9 357.718C1415.74 357.403 1415.67 357.05 1415.67 356.658C1415.67 356.234 1415.76 355.854 1415.94 355.517C1416.12 355.175 1416.37 354.883 1416.68 354.642C1416.99 354.405 1417.35 354.225 1417.76 354.102C1418.17 353.974 1418.61 353.91 1419.06 353.91C1419.55 353.91 1419.99 353.985 1420.41 354.136C1420.83 354.282 1421.19 354.487 1421.5 354.751C1421.81 355.02 1422.06 355.341 1422.23 355.715C1422.42 356.084 1422.51 356.494 1422.51 356.945H1420.88C1420.86 356.695 1420.8 356.467 1420.72 356.262C1420.63 356.052 1420.52 355.872 1420.37 355.722C1420.21 355.576 1420.02 355.462 1419.8 355.38C1419.58 355.293 1419.33 355.25 1419.04 355.25C1418.79 355.25 1418.56 355.284 1418.34 355.353C1418.14 355.416 1417.95 355.507 1417.8 355.626C1417.64 355.749 1417.52 355.897 1417.44 356.07C1417.35 356.243 1417.31 356.437 1417.31 356.651C1417.31 356.879 1417.37 357.08 1417.48 357.253C1417.6 357.422 1417.75 357.57 1417.94 357.697C1418.14 357.825 1418.36 357.937 1418.61 358.032C1418.87 358.128 1419.13 358.217 1419.41 358.299C1419.76 358.399 1420.1 358.524 1420.44 358.675C1420.77 358.821 1421.08 358.998 1421.37 359.208C1421.72 359.472 1422 359.789 1422.21 360.158C1422.42 360.523 1422.53 360.944 1422.53 361.423C1422.53 361.865 1422.43 362.255 1422.25 362.592C1422.07 362.929 1421.82 363.209 1421.51 363.433C1421.2 363.665 1420.83 363.84 1420.42 363.959C1420 364.073 1419.56 364.13 1419.1 364.13C1418.62 364.13 1418.14 364.055 1417.66 363.904C1417.19 363.749 1416.77 363.526 1416.42 363.234C1416.1 362.961 1415.84 362.64 1415.65 362.271C1415.46 361.901 1415.37 361.478 1415.36 360.999H1417C1417.03 361.304 1417.09 361.571 1417.2 361.799C1417.31 362.022 1417.45 362.207 1417.64 362.353C1417.82 362.503 1418.04 362.615 1418.28 362.688C1418.53 362.76 1418.81 362.797 1419.1 362.797C1419.35 362.797 1419.59 362.767 1419.8 362.708C1420.02 362.649 1420.21 362.56 1420.37 362.441C1420.52 362.327 1420.65 362.186 1420.74 362.018C1420.83 361.849 1420.88 361.655 1420.88 361.437ZM1428.93 361.71H1425.81L1425.13 364H1423.42L1426.66 354.047H1428.12L1431.31 364H1429.6L1428.93 361.71ZM1426.23 360.302H1428.53L1427.39 356.364L1426.23 360.302ZM1429.83 351.326C1429.83 351.531 1429.79 351.732 1429.72 351.928C1429.65 352.124 1429.56 352.295 1429.43 352.44C1429.31 352.595 1429.15 352.718 1428.97 352.81C1428.8 352.896 1428.6 352.939 1428.39 352.939C1428.2 352.939 1428.03 352.914 1427.88 352.864C1427.74 352.814 1427.61 352.757 1427.48 352.693C1427.36 352.63 1427.23 352.568 1427.12 352.509C1427 352.45 1426.87 352.411 1426.73 352.393C1426.65 352.374 1426.56 352.368 1426.47 352.372C1426.39 352.372 1426.31 352.39 1426.23 352.427C1426.11 352.459 1426.01 352.529 1425.94 352.639C1425.87 352.748 1425.83 352.878 1425.82 353.028L1424.97 352.844C1424.97 352.639 1425 352.438 1425.07 352.242C1425.14 352.046 1425.24 351.873 1425.37 351.723C1425.5 351.568 1425.65 351.445 1425.82 351.354C1426 351.258 1426.2 351.21 1426.41 351.21C1426.6 351.21 1426.77 351.242 1426.92 351.306C1427.08 351.369 1427.24 351.438 1427.39 351.511C1427.53 351.593 1427.68 351.666 1427.83 351.729C1427.99 351.793 1428.15 351.825 1428.33 351.825C1428.42 351.825 1428.5 351.807 1428.58 351.771C1428.67 351.734 1428.74 351.682 1428.8 351.613C1428.85 351.554 1428.89 351.483 1428.93 351.401C1428.96 351.315 1428.98 351.221 1428.98 351.121L1429.83 351.326ZM1439.26 359.687C1439.26 360.088 1439.22 360.475 1439.15 360.849C1439.08 361.222 1438.98 361.576 1438.85 361.908C1438.7 362.241 1438.53 362.549 1438.32 362.831C1438.11 363.109 1437.87 363.348 1437.59 363.549C1437.33 363.731 1437.04 363.875 1436.71 363.979C1436.39 364.084 1436.04 364.137 1435.66 364.137C1435.26 364.137 1434.9 364.082 1434.57 363.973C1434.24 363.859 1433.94 363.704 1433.68 363.508C1433.42 363.307 1433.19 363.066 1432.99 362.783C1432.79 362.501 1432.63 362.191 1432.5 361.854C1432.37 361.53 1432.27 361.186 1432.21 360.821C1432.14 360.452 1432.11 360.074 1432.11 359.687V358.374C1432.11 357.968 1432.15 357.576 1432.21 357.198C1432.28 356.82 1432.39 356.462 1432.52 356.125C1432.65 355.801 1432.82 355.505 1433.01 355.236C1433.2 354.963 1433.43 354.726 1433.7 354.525C1433.95 354.329 1434.24 354.179 1434.57 354.074C1434.89 353.965 1435.25 353.91 1435.65 353.91C1436.04 353.91 1436.41 353.965 1436.74 354.074C1437.07 354.184 1437.37 354.336 1437.64 354.532C1437.9 354.728 1438.13 354.958 1438.33 355.223C1438.52 355.487 1438.69 355.776 1438.82 356.091C1438.96 356.428 1439.07 356.79 1439.15 357.178C1439.22 357.561 1439.26 357.959 1439.26 358.374V359.687ZM1437.6 358.36C1437.6 358.11 1437.58 357.864 1437.55 357.622C1437.53 357.381 1437.49 357.15 1437.43 356.932C1437.36 356.681 1437.27 356.453 1437.16 356.248C1437.05 356.038 1436.91 355.861 1436.75 355.715C1436.61 355.587 1436.45 355.487 1436.27 355.414C1436.09 355.341 1435.88 355.305 1435.65 355.305C1435.42 355.305 1435.22 355.341 1435.04 355.414C1434.87 355.482 1434.71 355.578 1434.58 355.701C1434.42 355.852 1434.29 356.032 1434.18 356.241C1434.07 356.446 1433.98 356.676 1433.92 356.932C1433.87 357.15 1433.83 357.383 1433.8 357.629C1433.78 357.87 1433.77 358.114 1433.77 358.36V359.687C1433.77 359.928 1433.78 360.167 1433.8 360.404C1433.82 360.641 1433.86 360.869 1433.92 361.088C1433.98 361.334 1434.06 361.564 1434.16 361.778C1434.26 361.988 1434.39 362.166 1434.53 362.312C1434.67 362.448 1434.84 362.558 1435.02 362.64C1435.2 362.717 1435.42 362.756 1435.66 362.756C1435.89 362.756 1436.1 362.717 1436.29 362.64C1436.48 362.562 1436.64 362.457 1436.78 362.325C1436.94 362.175 1437.07 361.997 1437.18 361.792C1437.29 361.582 1437.37 361.352 1437.44 361.102C1437.49 360.883 1437.53 360.655 1437.55 360.418C1437.58 360.176 1437.6 359.933 1437.6 359.687V358.36ZM1451.09 360.206V364H1449.45V354.047H1452.78C1453.28 354.051 1453.74 354.127 1454.16 354.272C1454.58 354.418 1454.95 354.626 1455.25 354.895C1455.56 355.163 1455.79 355.489 1455.96 355.872C1456.13 356.255 1456.22 356.686 1456.22 357.164C1456.22 357.624 1456.13 358.041 1455.96 358.415C1455.79 358.784 1455.56 359.101 1455.25 359.365C1454.95 359.634 1454.58 359.841 1454.16 359.987C1453.74 360.133 1453.28 360.206 1452.78 360.206H1451.09ZM1451.09 358.866H1452.78C1453.06 358.862 1453.3 358.818 1453.52 358.736C1453.75 358.65 1453.93 358.531 1454.09 358.381C1454.24 358.23 1454.36 358.053 1454.44 357.848C1454.52 357.643 1454.56 357.419 1454.56 357.178C1454.56 356.913 1454.52 356.674 1454.44 356.46C1454.36 356.241 1454.24 356.052 1454.09 355.893C1453.93 355.733 1453.75 355.61 1453.52 355.523C1453.3 355.437 1453.06 355.391 1452.78 355.387H1451.09V358.866ZM1462.57 361.71H1459.44L1458.77 364H1457.06L1460.3 354.047H1461.75L1464.94 364H1463.24L1462.57 361.71ZM1459.86 360.302H1462.16L1461.02 356.364L1459.86 360.302ZM1472.62 354.047L1472.62 360.705C1472.62 361.22 1472.54 361.689 1472.38 362.113C1472.23 362.533 1472.01 362.893 1471.72 363.193C1471.43 363.494 1471.08 363.727 1470.67 363.891C1470.26 364.055 1469.81 364.137 1469.3 364.137C1468.8 364.137 1468.35 364.057 1467.95 363.897C1467.55 363.733 1467.21 363.501 1466.93 363.2C1466.64 362.899 1466.42 362.537 1466.26 362.113C1466.1 361.689 1466.02 361.22 1466.02 360.705L1466.03 354.047H1467.65L1467.67 360.705C1467.67 361.02 1467.71 361.309 1467.78 361.573C1467.86 361.833 1467.96 362.054 1468.1 362.236C1468.24 362.41 1468.41 362.546 1468.6 362.646C1468.8 362.742 1469.04 362.79 1469.3 362.79C1469.57 362.79 1469.81 362.742 1470.01 362.646C1470.22 362.546 1470.4 362.405 1470.54 362.223C1470.68 362.036 1470.79 361.815 1470.86 361.56C1470.93 361.3 1470.97 361.015 1470.98 360.705L1471 354.047H1472.62ZM1476.34 362.646H1481.09V364H1474.69V354.047H1476.34V362.646ZM1489.71 359.687C1489.71 360.088 1489.67 360.475 1489.6 360.849C1489.53 361.222 1489.43 361.576 1489.29 361.908C1489.15 362.241 1488.98 362.549 1488.77 362.831C1488.56 363.109 1488.32 363.348 1488.04 363.549C1487.78 363.731 1487.49 363.875 1487.16 363.979C1486.84 364.084 1486.49 364.137 1486.11 364.137C1485.71 364.137 1485.35 364.082 1485.02 363.973C1484.69 363.859 1484.39 363.704 1484.13 363.508C1483.87 363.307 1483.64 363.066 1483.44 362.783C1483.24 362.501 1483.08 362.191 1482.94 361.854C1482.82 361.53 1482.72 361.186 1482.66 360.821C1482.59 360.452 1482.56 360.074 1482.56 359.687V358.374C1482.56 357.968 1482.6 357.576 1482.66 357.198C1482.73 356.82 1482.83 356.462 1482.97 356.125C1483.1 355.801 1483.27 355.505 1483.46 355.236C1483.65 354.963 1483.88 354.726 1484.15 354.525C1484.4 354.329 1484.69 354.179 1485.02 354.074C1485.34 353.965 1485.7 353.91 1486.1 353.91C1486.49 353.91 1486.86 353.965 1487.19 354.074C1487.52 354.184 1487.82 354.336 1488.08 354.532C1488.35 354.728 1488.58 354.958 1488.78 355.223C1488.97 355.487 1489.14 355.776 1489.27 356.091C1489.41 356.428 1489.52 356.79 1489.6 357.178C1489.67 357.561 1489.71 357.959 1489.71 358.374V359.687ZM1488.05 358.36C1488.05 358.11 1488.03 357.864 1488 357.622C1487.98 357.381 1487.94 357.15 1487.88 356.932C1487.81 356.681 1487.72 356.453 1487.61 356.248C1487.5 356.038 1487.36 355.861 1487.2 355.715C1487.06 355.587 1486.9 355.487 1486.72 355.414C1486.54 355.341 1486.33 355.305 1486.1 355.305C1485.87 355.305 1485.67 355.341 1485.49 355.414C1485.32 355.482 1485.16 355.578 1485.03 355.701C1484.87 355.852 1484.74 356.032 1484.63 356.241C1484.52 356.446 1484.43 356.676 1484.37 356.932C1484.32 357.15 1484.28 357.383 1484.25 357.629C1484.23 357.87 1484.22 358.114 1484.22 358.36V359.687C1484.22 359.928 1484.23 360.167 1484.25 360.404C1484.27 360.641 1484.31 360.869 1484.37 361.088C1484.43 361.334 1484.51 361.564 1484.61 361.778C1484.71 361.988 1484.84 362.166 1484.98 362.312C1485.12 362.448 1485.28 362.558 1485.47 362.64C1485.65 362.717 1485.87 362.756 1486.11 362.756C1486.34 362.756 1486.55 362.717 1486.74 362.64C1486.93 362.562 1487.09 362.457 1487.23 362.325C1487.39 362.175 1487.52 361.997 1487.63 361.792C1487.74 361.582 1487.82 361.352 1487.89 361.102C1487.94 360.883 1487.98 360.655 1488 360.418C1488.03 360.176 1488.05 359.933 1488.05 359.687V358.36ZM1495.01 363.788C1495.01 364.28 1494.89 364.779 1494.65 365.285C1494.41 365.796 1494.1 366.226 1493.7 366.577L1492.79 366.092C1492.98 365.768 1493.13 365.426 1493.24 365.066C1493.35 364.706 1493.4 364.301 1493.4 363.85V362.407H1495.01V363.788ZM1508.17 364V354.047H1511.35C1511.84 354.047 1512.29 354.102 1512.71 354.211C1513.14 354.316 1513.51 354.478 1513.82 354.696C1514.13 354.915 1514.37 355.195 1514.54 355.537C1514.72 355.874 1514.81 356.275 1514.81 356.74C1514.8 357.023 1514.75 357.287 1514.66 357.533C1514.57 357.775 1514.43 357.989 1514.26 358.176C1514.14 358.312 1514 358.433 1513.84 358.538C1513.69 358.638 1513.52 358.729 1513.32 358.812V358.825C1513.61 358.903 1513.87 359.017 1514.08 359.167C1514.28 359.313 1514.46 359.479 1514.6 359.666C1514.75 359.867 1514.86 360.09 1514.93 360.336C1515.01 360.577 1515.05 360.833 1515.05 361.102C1515.05 361.576 1514.97 361.993 1514.79 362.353C1514.62 362.713 1514.38 363.013 1514.08 363.255C1513.77 363.501 1513.41 363.688 1512.98 363.815C1512.56 363.938 1512.11 364 1511.61 364H1508.17ZM1509.82 359.502V362.646H1511.63C1511.89 362.646 1512.12 362.61 1512.34 362.537C1512.55 362.464 1512.74 362.364 1512.89 362.236C1513.05 362.104 1513.18 361.942 1513.26 361.751C1513.35 361.555 1513.4 361.339 1513.4 361.102C1513.4 360.851 1513.36 360.63 1513.29 360.438C1513.22 360.243 1513.11 360.076 1512.96 359.939C1512.82 359.803 1512.64 359.698 1512.43 359.625C1512.22 359.548 1511.98 359.507 1511.71 359.502H1509.82ZM1509.82 358.251H1511.39C1511.66 358.246 1511.9 358.21 1512.13 358.142C1512.35 358.073 1512.55 357.973 1512.7 357.841C1512.84 357.722 1512.95 357.579 1513.04 357.41C1513.12 357.242 1513.16 357.048 1513.16 356.829C1513.16 356.597 1513.12 356.396 1513.04 356.228C1512.97 356.054 1512.87 355.913 1512.73 355.804C1512.57 355.667 1512.38 355.569 1512.15 355.51C1511.92 355.446 1511.66 355.412 1511.38 355.407H1509.82V358.251ZM1519.93 360.138H1518.25V364H1516.61V354.047H1519.77C1520.28 354.051 1520.76 354.118 1521.19 354.245C1521.62 354.373 1522 354.56 1522.31 354.806C1522.62 355.056 1522.86 355.368 1523.04 355.742C1523.21 356.111 1523.3 356.544 1523.3 357.041C1523.3 357.383 1523.25 357.693 1523.16 357.971C1523.07 358.249 1522.95 358.499 1522.79 358.723C1522.63 358.946 1522.44 359.142 1522.22 359.311C1521.99 359.479 1521.75 359.625 1521.47 359.748L1523.6 363.911V364H1521.84L1519.93 360.138ZM1518.25 358.798H1519.79C1520.08 358.793 1520.34 358.75 1520.58 358.668C1520.81 358.581 1521.01 358.458 1521.18 358.299C1521.32 358.162 1521.44 357.993 1521.52 357.793C1521.6 357.592 1521.64 357.365 1521.64 357.109C1521.64 356.822 1521.6 356.572 1521.51 356.357C1521.42 356.139 1521.29 355.956 1521.12 355.811C1520.96 355.674 1520.76 355.571 1520.54 355.503C1520.31 355.43 1520.05 355.391 1519.77 355.387H1518.25V358.798ZM1529.83 361.71H1526.71L1526.03 364H1524.32L1527.56 354.047H1529.02L1532.2 364H1530.5L1529.83 361.71ZM1527.12 360.302H1529.43L1528.29 356.364L1527.12 360.302ZM1535.03 362.646H1540.06V364H1533.07L1533.07 362.906L1537.95 355.407H1533.11V354.047H1539.9L1539.92 355.113L1535.03 362.646ZM1542.06 354.047H1547.93V355.407H1545.8V362.646H1547.93V364H1542.06V362.646H1544.14V355.407H1542.06V354.047ZM1552.01 362.646H1556.77V364H1550.37V354.047H1552.01V362.646Z" fill="white" fill-opacity="0.5"/>
</svg>
