<svg width="1584" height="396" viewBox="0 0 1584 396" fill="none" xmlns="http://www.w3.org/2000/svg">
<rect width="1584" height="396" fill="#111111"/>
<path d="M1343.24 33.8896C1343.22 34.4053 1343.16 34.9238 1343.06 35.4453C1342.96 35.9668 1342.81 36.4355 1342.62 36.8516C1342.42 37.2676 1342.16 37.6074 1341.84 37.8711C1341.53 38.1289 1341.15 38.2578 1340.71 38.2578C1340.52 38.2578 1340.35 38.2314 1340.19 38.1787C1340.03 38.126 1339.89 38.0469 1339.77 37.9414C1339.67 37.8594 1339.59 37.7656 1339.51 37.6602C1339.44 37.5547 1339.37 37.4375 1339.32 37.3086C1339.24 37.4316 1339.15 37.5459 1339.05 37.6514C1338.95 37.751 1338.84 37.8418 1338.73 37.9238C1338.58 38.0293 1338.43 38.1113 1338.26 38.1699C1338.09 38.2227 1337.92 38.249 1337.73 38.249C1337.41 38.249 1337.12 38.1729 1336.88 38.0205C1336.64 37.8623 1336.44 37.6367 1336.3 37.3438C1336.14 37.0625 1336.04 36.7227 1335.98 36.3242C1335.92 35.9199 1335.92 35.4746 1335.96 34.9883C1336.02 34.3672 1336.13 33.8076 1336.3 33.3096C1336.46 32.8057 1336.67 32.3779 1336.94 32.0264C1337.2 31.6748 1337.51 31.4053 1337.86 31.2178C1338.21 31.0244 1338.6 30.9277 1339.04 30.9277C1339.47 30.9277 1339.82 31.001 1340.09 31.1475C1340.37 31.2881 1340.6 31.4551 1340.77 31.6484L1340.38 36.1924C1340.37 36.3916 1340.38 36.5498 1340.4 36.667C1340.42 36.7842 1340.46 36.875 1340.51 36.9395C1340.56 37.0039 1340.62 37.0449 1340.68 37.0625C1340.75 37.0801 1340.83 37.0889 1340.9 37.0889C1341.08 37.0889 1341.24 37.0098 1341.38 36.8516C1341.52 36.6875 1341.65 36.4648 1341.75 36.1836C1341.85 35.9023 1341.93 35.5684 1341.98 35.1816C1342.04 34.7949 1342.06 34.376 1342.06 33.9248C1342.08 33.1982 1342.03 32.5596 1341.89 32.0088C1341.76 31.458 1341.55 30.998 1341.27 30.6289C1340.99 30.2598 1340.64 29.9814 1340.22 29.7939C1339.8 29.6064 1339.32 29.5127 1338.77 29.5127C1338.19 29.5127 1337.66 29.6445 1337.18 29.9082C1336.71 30.166 1336.31 30.5322 1335.96 31.0068C1335.6 31.4932 1335.31 32.0762 1335.11 32.7559C1334.9 33.4297 1334.79 34.1709 1334.77 34.9795C1334.74 35.7705 1334.79 36.4678 1334.93 37.0713C1335.07 37.6689 1335.29 38.1699 1335.59 38.5742C1335.89 38.9844 1336.27 39.2949 1336.73 39.5059C1337.19 39.7109 1337.73 39.8135 1338.33 39.8135C1338.51 39.8135 1338.69 39.8018 1338.88 39.7783C1339.07 39.749 1339.25 39.7109 1339.44 39.6641C1339.62 39.6172 1339.79 39.5645 1339.95 39.5059C1340.12 39.4414 1340.27 39.3711 1340.4 39.2949L1340.68 40.4111C1340.53 40.5225 1340.36 40.6191 1340.16 40.7012C1339.97 40.7832 1339.77 40.8506 1339.56 40.9033C1339.35 40.9619 1339.13 41.0029 1338.92 41.0264C1338.7 41.0557 1338.5 41.0703 1338.31 41.0703C1337.45 41.0703 1336.71 40.9268 1336.08 40.6396C1335.47 40.3467 1334.96 39.9336 1334.56 39.4004C1334.17 38.873 1333.88 38.2344 1333.69 37.4844C1333.51 36.7344 1333.44 35.8994 1333.47 34.9795C1333.5 34.0537 1333.66 33.1777 1333.93 32.3516C1334.21 31.5195 1334.59 30.7988 1335.07 30.1895C1335.53 29.5918 1336.09 29.123 1336.73 28.7832C1337.37 28.4375 1338.07 28.2646 1338.84 28.2646C1339.54 28.2646 1340.17 28.3994 1340.73 28.6689C1341.28 28.9385 1341.75 29.3193 1342.14 29.8115C1342.52 30.3037 1342.8 30.8955 1342.98 31.5869C1343.18 32.2783 1343.26 33.0459 1343.24 33.8896ZM1337.3 34.9883C1337.28 35.2988 1337.28 35.5771 1337.31 35.8232C1337.34 36.0693 1337.38 36.2744 1337.45 36.4385C1337.51 36.6143 1337.6 36.7461 1337.7 36.834C1337.81 36.916 1337.94 36.957 1338.08 36.957C1338.21 36.957 1338.33 36.9395 1338.45 36.9043C1338.57 36.8633 1338.69 36.7959 1338.79 36.7021C1338.86 36.6436 1338.92 36.5762 1338.99 36.5C1339.05 36.418 1339.11 36.3242 1339.16 36.2188L1339.17 36.1133L1339.5 32.2285C1339.46 32.2109 1339.4 32.1963 1339.34 32.1846C1339.28 32.1729 1339.21 32.167 1339.13 32.167C1338.85 32.167 1338.61 32.2314 1338.4 32.3604C1338.19 32.4834 1338.01 32.668 1337.86 32.9141C1337.71 33.1543 1337.59 33.4502 1337.5 33.8018C1337.41 34.1475 1337.34 34.543 1337.3 34.9883ZM1353.32 41H1344.73V39.541L1348.9 35.0059C1349.25 34.625 1349.54 34.2852 1349.77 33.9863C1350 33.6816 1350.19 33.4033 1350.34 33.1514C1350.48 32.8994 1350.58 32.665 1350.64 32.4482C1350.7 32.2256 1350.74 32.0029 1350.74 31.7803C1350.74 31.4814 1350.69 31.209 1350.6 30.9629C1350.52 30.7168 1350.39 30.5059 1350.22 30.3301C1350.05 30.1543 1349.84 30.0166 1349.6 29.917C1349.37 29.8174 1349.1 29.7676 1348.81 29.7676C1348.44 29.7676 1348.11 29.8203 1347.84 29.9258C1347.56 30.0312 1347.33 30.1807 1347.15 30.374C1346.96 30.5791 1346.82 30.8281 1346.73 31.1211C1346.63 31.4082 1346.59 31.7363 1346.59 32.1055H1344.48C1344.48 31.5488 1344.58 31.0244 1344.79 30.5322C1344.99 30.0342 1345.28 29.6006 1345.67 29.2314C1346.04 28.8623 1346.5 28.5693 1347.04 28.3525C1347.58 28.1357 1348.19 28.0273 1348.86 28.0273C1349.48 28.0273 1350.04 28.1182 1350.53 28.2998C1351.03 28.4814 1351.45 28.7334 1351.79 29.0557C1352.12 29.3779 1352.38 29.7646 1352.56 30.2158C1352.73 30.6611 1352.82 31.1533 1352.82 31.6924C1352.82 32.0967 1352.75 32.4893 1352.62 32.8701C1352.49 33.2451 1352.31 33.6172 1352.08 33.9863C1351.85 34.3555 1351.57 34.7275 1351.25 35.1025C1350.93 35.4775 1350.58 35.8643 1350.21 36.2627L1347.36 39.3037H1353.32V41ZM1364.19 36.1221C1364.19 36.9424 1364.1 37.6689 1363.9 38.3018C1363.71 38.9287 1363.44 39.4531 1363.08 39.875C1362.73 40.3086 1362.3 40.6367 1361.78 40.8594C1361.27 41.0762 1360.69 41.1846 1360.04 41.1846C1359.4 41.1846 1358.82 41.0762 1358.3 40.8594C1357.79 40.6367 1357.35 40.3086 1356.99 39.875C1356.63 39.4531 1356.35 38.9287 1356.16 38.3018C1355.97 37.6689 1355.88 36.9424 1355.88 36.1221V33.0898C1355.88 32.2695 1355.97 31.5459 1356.16 30.9189C1356.35 30.2861 1356.63 29.7529 1356.99 29.3193C1357.34 28.8916 1357.78 28.5693 1358.29 28.3525C1358.8 28.1299 1359.38 28.0186 1360.03 28.0186C1360.68 28.0186 1361.26 28.1299 1361.77 28.3525C1362.28 28.5693 1362.72 28.8916 1363.08 29.3193C1363.44 29.7529 1363.71 30.2861 1363.9 30.9189C1364.1 31.5459 1364.19 32.2695 1364.19 33.0898V36.1221ZM1357.99 35.375L1362.06 32.29C1362.03 31.833 1361.97 31.4375 1361.86 31.1035C1361.76 30.7695 1361.62 30.4971 1361.43 30.2861C1361.27 30.0986 1361.07 29.958 1360.83 29.8643C1360.59 29.7705 1360.33 29.7236 1360.03 29.7236C1359.7 29.7236 1359.42 29.7793 1359.17 29.8906C1358.93 30.002 1358.72 30.166 1358.56 30.3828C1358.37 30.6289 1358.22 30.9482 1358.13 31.3408C1358.03 31.7275 1357.99 32.1846 1357.99 32.7119V34.4346C1357.99 34.6572 1357.99 34.8271 1357.99 34.9443C1357.99 35.0615 1357.99 35.2051 1357.99 35.375ZM1362.07 36.4736V34.8564C1362.07 34.71 1362.07 34.5576 1362.07 34.3994C1362.07 34.2412 1362.07 34.0771 1362.07 33.9072L1358 36.9746C1358.03 37.3789 1358.1 37.7363 1358.19 38.0469C1358.29 38.3574 1358.42 38.6152 1358.58 38.8203C1358.75 39.043 1358.95 39.21 1359.19 39.3213C1359.44 39.4326 1359.72 39.4883 1360.04 39.4883C1360.36 39.4883 1360.64 39.4355 1360.88 39.3301C1361.12 39.2188 1361.32 39.0576 1361.49 38.8467C1361.69 38.6006 1361.83 38.2783 1361.92 37.8799C1362.02 37.4814 1362.07 37.0127 1362.07 36.4736ZM1374.94 41H1366.35V39.541L1370.52 35.0059C1370.87 34.625 1371.16 34.2852 1371.39 33.9863C1371.62 33.6816 1371.82 33.4033 1371.96 33.1514C1372.1 32.8994 1372.2 32.665 1372.26 32.4482C1372.33 32.2256 1372.36 32.0029 1372.36 31.7803C1372.36 31.4814 1372.31 31.209 1372.23 30.9629C1372.14 30.7168 1372.01 30.5059 1371.84 30.3301C1371.67 30.1543 1371.46 30.0166 1371.22 29.917C1370.99 29.8174 1370.73 29.7676 1370.43 29.7676C1370.06 29.7676 1369.73 29.8203 1369.46 29.9258C1369.18 30.0312 1368.95 30.1807 1368.77 30.374C1368.58 30.5791 1368.44 30.8281 1368.35 31.1211C1368.26 31.4082 1368.21 31.7363 1368.21 32.1055H1366.1C1366.1 31.5488 1366.2 31.0244 1366.41 30.5322C1366.61 30.0342 1366.91 29.6006 1367.29 29.2314C1367.66 28.8623 1368.12 28.5693 1368.66 28.3525C1369.2 28.1357 1369.81 28.0273 1370.48 28.0273C1371.1 28.0273 1371.66 28.1182 1372.16 28.2998C1372.65 28.4814 1373.07 28.7334 1373.41 29.0557C1373.75 29.3779 1374 29.7646 1374.18 30.2158C1374.35 30.6611 1374.44 31.1533 1374.44 31.6924C1374.44 32.0967 1374.37 32.4893 1374.24 32.8701C1374.11 33.2451 1373.93 33.6172 1373.7 33.9863C1373.47 34.3555 1373.19 34.7275 1372.87 35.1025C1372.55 35.4775 1372.21 35.8643 1371.83 36.2627L1368.98 39.3037H1374.94V41ZM1377.92 34.6543L1378.61 28.2031H1385.49V30.0664H1380.36L1380.02 33.1338C1380.23 33.0107 1380.51 32.8936 1380.85 32.7822C1381.19 32.6709 1381.59 32.6152 1382.03 32.6152C1382.64 32.6152 1383.18 32.7148 1383.65 32.9141C1384.13 33.1133 1384.54 33.3975 1384.87 33.7666C1385.2 34.1416 1385.45 34.5957 1385.63 35.1289C1385.8 35.6562 1385.89 36.251 1385.89 36.9131C1385.89 37.499 1385.81 38.0527 1385.64 38.5742C1385.47 39.0898 1385.22 39.541 1384.87 39.9277C1384.53 40.3145 1384.1 40.6191 1383.58 40.8418C1383.06 41.0645 1382.44 41.1758 1381.74 41.1758C1381.2 41.1758 1380.68 41.0996 1380.19 40.9473C1379.7 40.7891 1379.26 40.5547 1378.88 40.2441C1378.5 39.9395 1378.18 39.5615 1377.94 39.1104C1377.7 38.6533 1377.56 38.1289 1377.53 37.5371H1379.57C1379.65 38.1641 1379.88 38.6445 1380.26 38.9785C1380.65 39.3125 1381.14 39.4795 1381.74 39.4795C1382.09 39.4795 1382.39 39.415 1382.65 39.2861C1382.91 39.1572 1383.12 38.9756 1383.3 38.7412C1383.46 38.5127 1383.59 38.2373 1383.67 37.915C1383.75 37.5869 1383.79 37.2324 1383.79 36.8516C1383.79 36.4824 1383.74 36.1455 1383.64 35.8408C1383.55 35.5303 1383.41 35.2607 1383.21 35.0322C1383.02 34.8037 1382.78 34.6279 1382.49 34.5049C1382.2 34.376 1381.87 34.3115 1381.49 34.3115C1381.24 34.3115 1381.02 34.332 1380.83 34.373C1380.65 34.4141 1380.49 34.4668 1380.35 34.5312C1380.2 34.6016 1380.07 34.6836 1379.94 34.7773C1379.83 34.8652 1379.71 34.9619 1379.6 35.0674L1377.92 34.6543ZM1407.18 36.2275H1400.1V34.5225H1407.18V36.2275ZM1420.7 41V28.2031H1423.86C1424.41 28.2031 1424.93 28.2676 1425.42 28.3965C1425.9 28.5195 1426.35 28.6924 1426.74 28.915C1427.18 29.1436 1427.56 29.4307 1427.9 29.7764C1428.24 30.1221 1428.52 30.5088 1428.75 30.9365C1428.98 31.3818 1429.16 31.8711 1429.29 32.4043C1429.42 32.9375 1429.49 33.5059 1429.49 34.1094V35.1113C1429.49 35.6914 1429.42 36.2422 1429.3 36.7637C1429.18 37.2793 1429.01 37.751 1428.79 38.1787C1428.58 38.5947 1428.31 38.9727 1428 39.3125C1427.7 39.6523 1427.36 39.9424 1426.98 40.1826C1426.56 40.4463 1426.09 40.6484 1425.58 40.7891C1425.07 40.9297 1424.52 41 1423.93 41H1420.7ZM1422.83 29.9258V39.2861H1423.93C1424.31 39.2861 1424.65 39.2422 1424.96 39.1543C1425.28 39.0605 1425.56 38.9287 1425.81 38.7588C1426.07 38.583 1426.3 38.3633 1426.5 38.0996C1426.7 37.8301 1426.87 37.5225 1427 37.1768C1427.11 36.8838 1427.2 36.5645 1427.25 36.2188C1427.31 35.873 1427.34 35.5039 1427.34 35.1113V34.0918C1427.34 33.7051 1427.31 33.3389 1427.25 32.9932C1427.2 32.6475 1427.11 32.3281 1427 32.0352C1426.86 31.6777 1426.67 31.3555 1426.44 31.0684C1426.2 30.7754 1425.92 30.5381 1425.6 30.3564C1425.37 30.2217 1425.1 30.1191 1424.81 30.0488C1424.52 29.9727 1424.2 29.9316 1423.86 29.9258H1422.83ZM1437.82 38.0557H1433.8L1432.93 41H1430.73L1434.9 28.2031H1436.77L1440.87 41H1438.68L1437.82 38.0557ZM1434.34 36.2451H1437.3L1435.83 31.1826L1434.34 36.2451ZM1450.68 41H1448.56L1444.4 32.1934L1444.39 41H1442.26V28.2031H1444.4L1448.53 36.9746L1448.55 28.2031H1450.68V41ZM1453.54 28.2031H1461.08V29.9521H1458.35V39.2598H1461.08V41H1453.54V39.2598H1456.21V29.9521H1453.54V28.2031ZM1466.34 39.2598H1472.45V41H1464.22V28.2031H1466.34V39.2598ZM1483.52 35.4541C1483.52 35.9697 1483.47 36.4678 1483.38 36.9482C1483.29 37.4287 1483.16 37.8828 1482.99 38.3105C1482.81 38.7383 1482.59 39.1338 1482.32 39.4971C1482.05 39.8545 1481.74 40.1621 1481.39 40.4199C1481.05 40.6543 1480.67 40.8389 1480.25 40.9736C1479.84 41.1084 1479.39 41.1758 1478.9 41.1758C1478.39 41.1758 1477.92 41.1055 1477.49 40.9648C1477.07 40.8184 1476.69 40.6191 1476.36 40.3672C1476.02 40.1094 1475.72 39.7988 1475.46 39.4355C1475.21 39.0723 1475 38.6738 1474.83 38.2402C1474.67 37.8242 1474.54 37.3818 1474.46 36.9131C1474.38 36.4385 1474.34 35.9521 1474.34 35.4541V33.7666C1474.34 33.2451 1474.38 32.7412 1474.47 32.2549C1474.56 31.7686 1474.69 31.3086 1474.86 30.875C1475.03 30.459 1475.24 30.0781 1475.49 29.7324C1475.74 29.3809 1476.04 29.0762 1476.38 28.8184C1476.7 28.5664 1477.08 28.373 1477.49 28.2383C1477.91 28.0977 1478.38 28.0273 1478.88 28.0273C1479.39 28.0273 1479.86 28.0977 1480.29 28.2383C1480.71 28.3789 1481.1 28.5752 1481.44 28.8271C1481.78 29.0791 1482.07 29.375 1482.33 29.7148C1482.58 30.0547 1482.79 30.4268 1482.96 30.8311C1483.15 31.2646 1483.29 31.7305 1483.38 32.2285C1483.47 32.7207 1483.52 33.2334 1483.52 33.7666V35.4541ZM1481.39 33.749C1481.39 33.4268 1481.37 33.1104 1481.33 32.7998C1481.3 32.4893 1481.25 32.1934 1481.17 31.9121C1481.09 31.5898 1480.97 31.2969 1480.82 31.0332C1480.68 30.7637 1480.51 30.5352 1480.3 30.3477C1480.12 30.1836 1479.92 30.0547 1479.68 29.9609C1479.45 29.8672 1479.18 29.8203 1478.88 29.8203C1478.59 29.8203 1478.34 29.8672 1478.11 29.9609C1477.88 30.0488 1477.68 30.1719 1477.51 30.3301C1477.3 30.5234 1477.13 30.7549 1476.99 31.0244C1476.85 31.2881 1476.74 31.584 1476.67 31.9121C1476.6 32.1934 1476.54 32.4922 1476.51 32.8086C1476.48 33.1191 1476.46 33.4326 1476.46 33.749V35.4541C1476.46 35.7646 1476.48 36.0723 1476.51 36.377C1476.54 36.6816 1476.59 36.9746 1476.66 37.2559C1476.73 37.5723 1476.84 37.8682 1476.96 38.1436C1477.1 38.4131 1477.26 38.6416 1477.45 38.8291C1477.63 39.0049 1477.84 39.1455 1478.07 39.251C1478.31 39.3506 1478.59 39.4004 1478.9 39.4004C1479.2 39.4004 1479.47 39.3506 1479.71 39.251C1479.95 39.1514 1480.16 39.0166 1480.34 38.8467C1480.54 38.6533 1480.71 38.4248 1480.85 38.1611C1480.99 37.8916 1481.1 37.5957 1481.18 37.2734C1481.25 36.9922 1481.3 36.6992 1481.33 36.3945C1481.37 36.084 1481.39 35.7705 1481.39 35.4541V33.749ZM1496.37 41V28.2031H1499.54C1500.09 28.2031 1500.6 28.2676 1501.09 28.3965C1501.58 28.5195 1502.02 28.6924 1502.42 28.915C1502.85 29.1436 1503.24 29.4307 1503.57 29.7764C1503.91 30.1221 1504.19 30.5088 1504.42 30.9365C1504.66 31.3818 1504.84 31.8711 1504.97 32.4043C1505.1 32.9375 1505.16 33.5059 1505.16 34.1094V35.1113C1505.16 35.6914 1505.1 36.2422 1504.98 36.7637C1504.86 37.2793 1504.69 37.751 1504.47 38.1787C1504.25 38.5947 1503.99 38.9727 1503.67 39.3125C1503.37 39.6523 1503.03 39.9424 1502.66 40.1826C1502.23 40.4463 1501.76 40.6484 1501.25 40.7891C1500.74 40.9297 1500.19 41 1499.61 41H1496.37ZM1498.51 29.9258V39.2861H1499.61C1499.98 39.2861 1500.32 39.2422 1500.63 39.1543C1500.95 39.0605 1501.23 38.9287 1501.49 38.7588C1501.74 38.583 1501.97 38.3633 1502.17 38.0996C1502.38 37.8301 1502.54 37.5225 1502.67 37.1768C1502.78 36.8838 1502.87 36.5645 1502.93 36.2188C1502.99 35.873 1503.02 35.5039 1503.02 35.1113V34.0918C1503.02 33.7051 1502.99 33.3389 1502.93 32.9932C1502.87 32.6475 1502.78 32.3281 1502.67 32.0352C1502.53 31.6777 1502.34 31.3555 1502.11 31.0684C1501.88 30.7754 1501.6 30.5381 1501.28 30.3564C1501.04 30.2217 1500.78 30.1191 1500.48 30.0488C1500.19 29.9727 1499.88 29.9316 1499.54 29.9258H1498.51ZM1515.95 35.4541C1515.95 35.9697 1515.91 36.4678 1515.81 36.9482C1515.72 37.4287 1515.6 37.8828 1515.43 38.3105C1515.24 38.7383 1515.02 39.1338 1514.75 39.4971C1514.48 39.8545 1514.17 40.1621 1513.82 40.4199C1513.48 40.6543 1513.1 40.8389 1512.68 40.9736C1512.27 41.1084 1511.82 41.1758 1511.33 41.1758C1510.82 41.1758 1510.35 41.1055 1509.92 40.9648C1509.5 40.8184 1509.12 40.6191 1508.79 40.3672C1508.45 40.1094 1508.15 39.7988 1507.89 39.4355C1507.64 39.0723 1507.43 38.6738 1507.26 38.2402C1507.1 37.8242 1506.97 37.3818 1506.89 36.9131C1506.81 36.4385 1506.77 35.9521 1506.77 35.4541V33.7666C1506.77 33.2451 1506.81 32.7412 1506.9 32.2549C1506.99 31.7686 1507.12 31.3086 1507.3 30.875C1507.47 30.459 1507.67 30.0781 1507.92 29.7324C1508.17 29.3809 1508.47 29.0762 1508.81 28.8184C1509.14 28.5664 1509.51 28.373 1509.92 28.2383C1510.35 28.0977 1510.81 28.0273 1511.31 28.0273C1511.82 28.0273 1512.29 28.0977 1512.72 28.2383C1513.15 28.3789 1513.53 28.5752 1513.87 28.8271C1514.21 29.0791 1514.51 29.375 1514.76 29.7148C1515.01 30.0547 1515.22 30.4268 1515.39 30.8311C1515.58 31.2646 1515.72 31.7305 1515.81 32.2285C1515.91 32.7207 1515.95 33.2334 1515.95 33.7666V35.4541ZM1513.83 33.749C1513.82 33.4268 1513.8 33.1104 1513.76 32.7998C1513.74 32.4893 1513.68 32.1934 1513.61 31.9121C1513.52 31.5898 1513.4 31.2969 1513.25 31.0332C1513.11 30.7637 1512.94 30.5352 1512.74 30.3477C1512.55 30.1836 1512.35 30.0547 1512.11 29.9609C1511.88 29.8672 1511.61 29.8203 1511.31 29.8203C1511.03 29.8203 1510.77 29.8672 1510.54 29.9609C1510.31 30.0488 1510.11 30.1719 1509.94 30.3301C1509.74 30.5234 1509.56 30.7549 1509.42 31.0244C1509.28 31.2881 1509.17 31.584 1509.1 31.9121C1509.03 32.1934 1508.97 32.4922 1508.94 32.8086C1508.91 33.1191 1508.9 33.4326 1508.9 33.749V35.4541C1508.9 35.7646 1508.91 36.0723 1508.94 36.377C1508.97 36.6816 1509.02 36.9746 1509.09 37.2559C1509.17 37.5723 1509.27 37.8682 1509.4 38.1436C1509.53 38.4131 1509.69 38.6416 1509.88 38.8291C1510.06 39.0049 1510.27 39.1455 1510.5 39.251C1510.74 39.3506 1511.02 39.4004 1511.33 39.4004C1511.63 39.4004 1511.9 39.3506 1512.14 39.251C1512.38 39.1514 1512.6 39.0166 1512.77 38.8467C1512.98 38.6533 1513.15 38.4248 1513.28 38.1611C1513.42 37.8916 1513.53 37.5957 1513.62 37.2734C1513.69 36.9922 1513.74 36.6992 1513.76 36.3945C1513.8 36.084 1513.82 35.7705 1513.83 35.4541V33.749ZM1526.35 41H1524.23L1520.08 32.1934L1520.07 41H1517.93V28.2031H1520.08L1524.21 36.9746L1524.22 28.2031H1526.35V41ZM1535.11 38.0557H1531.1L1530.23 41H1528.03L1532.2 28.2031H1534.07L1538.16 41H1535.97L1535.11 38.0557ZM1531.63 36.2451H1534.59L1533.13 31.1826L1531.63 36.2451ZM1548.79 29.9521H1544.84V41H1542.74V29.9521H1538.82V28.2031H1548.79V29.9521ZM1559.2 35.4541C1559.2 35.9697 1559.15 36.4678 1559.05 36.9482C1558.97 37.4287 1558.84 37.8828 1558.67 38.3105C1558.49 38.7383 1558.26 39.1338 1557.99 39.4971C1557.72 39.8545 1557.41 40.1621 1557.06 40.4199C1556.72 40.6543 1556.34 40.8389 1555.93 40.9736C1555.52 41.1084 1555.06 41.1758 1554.57 41.1758C1554.06 41.1758 1553.59 41.1055 1553.17 40.9648C1552.74 40.8184 1552.37 40.6191 1552.03 40.3672C1551.69 40.1094 1551.39 39.7988 1551.14 39.4355C1550.88 39.0723 1550.67 38.6738 1550.5 38.2402C1550.34 37.8242 1550.22 37.3818 1550.13 36.9131C1550.05 36.4385 1550.01 35.9521 1550.01 35.4541V33.7666C1550.01 33.2451 1550.05 32.7412 1550.14 32.2549C1550.23 31.7686 1550.36 31.3086 1550.54 30.875C1550.71 30.459 1550.92 30.0781 1551.16 29.7324C1551.41 29.3809 1551.71 29.0762 1552.05 28.8184C1552.38 28.5664 1552.75 28.373 1553.17 28.2383C1553.59 28.0977 1554.05 28.0273 1554.55 28.0273C1555.06 28.0273 1555.53 28.0977 1555.96 28.2383C1556.39 28.3789 1556.77 28.5752 1557.11 28.8271C1557.45 29.0791 1557.75 29.375 1558 29.7148C1558.25 30.0547 1558.46 30.4268 1558.63 30.8311C1558.82 31.2646 1558.96 31.7305 1559.05 32.2285C1559.15 32.7207 1559.2 33.2334 1559.2 33.7666V35.4541ZM1557.07 33.749C1557.06 33.4268 1557.04 33.1104 1557.01 32.7998C1556.98 32.4893 1556.92 32.1934 1556.85 31.9121C1556.76 31.5898 1556.64 31.2969 1556.5 31.0332C1556.36 30.7637 1556.18 30.5352 1555.98 30.3477C1555.8 30.1836 1555.59 30.0547 1555.35 29.9609C1555.12 29.8672 1554.85 29.8203 1554.55 29.8203C1554.27 29.8203 1554.01 29.8672 1553.78 29.9609C1553.55 30.0488 1553.35 30.1719 1553.18 30.3301C1552.98 30.5234 1552.81 30.7549 1552.67 31.0244C1552.52 31.2881 1552.42 31.584 1552.34 31.9121C1552.27 32.1934 1552.22 32.4922 1552.18 32.8086C1552.15 33.1191 1552.14 33.4326 1552.14 33.749V35.4541C1552.14 35.7646 1552.15 36.0723 1552.18 36.377C1552.21 36.6816 1552.26 36.9746 1552.33 37.2559C1552.41 37.5723 1552.51 37.8682 1552.64 38.1436C1552.77 38.4131 1552.93 38.6416 1553.12 38.8291C1553.3 39.0049 1553.51 39.1455 1553.75 39.251C1553.99 39.3506 1554.26 39.4004 1554.57 39.4004C1554.87 39.4004 1555.14 39.3506 1555.38 39.251C1555.63 39.1514 1555.84 39.0166 1556.01 38.8467C1556.22 38.6533 1556.39 38.4248 1556.52 38.1611C1556.66 37.8916 1556.78 37.5957 1556.86 37.2734C1556.93 36.9922 1556.98 36.6992 1557.01 36.3945C1557.04 36.084 1557.06 35.7705 1557.07 35.4541V33.749Z" fill="#F7F8FF"/>
<path d="M1340.79 64.0547H1336.99L1336.08 67H1334.63L1338.3 55.625H1339.52L1343.12 67H1341.69L1340.79 64.0547ZM1337.38 62.7969H1340.41L1338.91 57.8594L1337.38 62.7969ZM1346.6 65.7734H1352.16V67H1345.16V55.625H1346.6V65.7734ZM1356.21 65.7734H1361.77V67H1354.77V55.625H1356.21V65.7734ZM1377.56 62.3594H1375.29V67H1373.85V55.625H1377.19C1377.72 55.6354 1378.22 55.7109 1378.69 55.8516C1379.16 55.9922 1379.57 56.2031 1379.92 56.4844C1380.27 56.7656 1380.54 57.1198 1380.74 57.5469C1380.95 57.9688 1381.05 58.4661 1381.05 59.0391C1381.05 59.4089 1380.99 59.7474 1380.88 60.0547C1380.78 60.362 1380.63 60.6406 1380.45 60.8906C1380.26 61.1406 1380.03 61.362 1379.77 61.5547C1379.51 61.7474 1379.23 61.9115 1378.91 62.0469L1381.33 66.9062L1381.32 67H1379.8L1377.56 62.3594ZM1375.29 61.1719H1377.23C1377.55 61.1667 1377.85 61.1172 1378.14 61.0234C1378.43 60.9245 1378.68 60.7839 1378.9 60.6016C1379.11 60.4193 1379.28 60.1979 1379.41 59.9375C1379.53 59.6719 1379.59 59.3672 1379.59 59.0234C1379.59 58.6589 1379.53 58.3411 1379.41 58.0703C1379.29 57.7943 1379.13 57.5625 1378.91 57.375C1378.7 57.1927 1378.45 57.0547 1378.15 56.9609C1377.86 56.8672 1377.54 56.8177 1377.19 56.8125H1375.29V61.1719ZM1383.41 55.625H1390.28V56.8828H1387.55V65.75H1390.28V67H1383.41V65.75H1386.07V56.8828H1383.41V55.625ZM1400.38 65.5078C1400.2 65.7161 1400.01 65.9062 1399.81 66.0781C1399.61 66.2448 1399.41 66.3906 1399.2 66.5156C1398.83 66.7344 1398.44 66.8958 1398.02 67C1397.59 67.1094 1397.15 67.1615 1396.69 67.1562C1396.22 67.151 1395.79 67.0807 1395.39 66.9453C1395 66.8047 1394.65 66.612 1394.34 66.3672C1394.02 66.1276 1393.75 65.8438 1393.52 65.5156C1393.28 65.1875 1393.09 64.8307 1392.93 64.4453C1392.77 64.0651 1392.65 63.6667 1392.56 63.25C1392.48 62.8281 1392.44 62.4036 1392.44 61.9766V60.6562C1392.44 60.2344 1392.48 59.8151 1392.55 59.3984C1392.62 58.9766 1392.73 58.5729 1392.88 58.1875C1393.02 57.8021 1393.2 57.4453 1393.42 57.1172C1393.64 56.7839 1393.9 56.4948 1394.21 56.25C1394.51 56.0104 1394.86 55.8203 1395.24 55.6797C1395.63 55.5391 1396.06 55.4688 1396.54 55.4688C1397.07 55.4688 1397.56 55.5521 1398.01 55.7188C1398.46 55.8802 1398.85 56.112 1399.18 56.4141C1399.51 56.7214 1399.78 57.0911 1399.98 57.5234C1400.19 57.9505 1400.31 58.4297 1400.36 58.9609H1398.93C1398.87 58.6328 1398.78 58.3307 1398.66 58.0547C1398.54 57.7734 1398.39 57.5339 1398.2 57.3359C1398 57.138 1397.76 56.9844 1397.49 56.875C1397.22 56.7604 1396.91 56.7031 1396.55 56.7031C1396.2 56.7031 1395.9 56.763 1395.63 56.8828C1395.37 56.9974 1395.14 57.1536 1394.94 57.3516C1394.74 57.5495 1394.58 57.7812 1394.45 58.0469C1394.32 58.3073 1394.21 58.5833 1394.12 58.875C1394.04 59.1667 1393.98 59.4635 1393.95 59.7656C1393.91 60.0677 1393.89 60.3594 1393.89 60.6406V61.9766C1393.9 62.263 1393.92 62.5599 1393.96 62.8672C1394.01 63.1693 1394.08 63.4661 1394.17 63.7578C1394.27 64.0495 1394.39 64.3255 1394.53 64.5859C1394.68 64.8464 1394.85 65.0755 1395.06 65.2734C1395.27 65.4714 1395.5 65.6302 1395.77 65.75C1396.04 65.8646 1396.35 65.9245 1396.7 65.9297C1396.89 65.9349 1397.1 65.9271 1397.31 65.9062C1397.53 65.8854 1397.74 65.8438 1397.95 65.7812C1398.15 65.7188 1398.34 65.6354 1398.52 65.5312C1398.69 65.4219 1398.84 65.2812 1398.96 65.1094L1398.98 62.5547H1396.66V61.3359H1400.35L1400.38 65.5078ZM1409.76 67H1408.39V61.7422H1403.73V67H1402.37V55.625H1403.73V60.5156H1408.39V55.625H1409.76V67ZM1419.91 56.8594H1416.39V67H1414.98V56.8594H1411.47V55.625H1419.91V56.8594ZM1427.8 64.125C1427.8 63.776 1427.72 63.4818 1427.55 63.2422C1427.4 63.0026 1427.2 62.7995 1426.95 62.6328C1426.7 62.4714 1426.42 62.3359 1426.12 62.2266C1425.82 62.1172 1425.53 62.0182 1425.26 61.9297C1424.86 61.7995 1424.45 61.6432 1424.03 61.4609C1423.62 61.2734 1423.24 61.0495 1422.91 60.7891C1422.56 60.5234 1422.28 60.2109 1422.06 59.8516C1421.85 59.487 1421.74 59.0599 1421.74 58.5703C1421.74 58.0807 1421.85 57.6432 1422.06 57.2578C1422.28 56.8724 1422.57 56.5469 1422.91 56.2812C1423.26 56.0156 1423.66 55.8151 1424.1 55.6797C1424.54 55.5391 1424.99 55.4688 1425.44 55.4688C1425.93 55.4688 1426.41 55.5521 1426.87 55.7188C1427.33 55.8802 1427.73 56.1094 1428.09 56.4062C1428.44 56.7031 1428.72 57.0625 1428.94 57.4844C1429.15 57.9062 1429.26 58.3776 1429.27 58.8984H1427.79C1427.75 58.5703 1427.67 58.2734 1427.55 58.0078C1427.43 57.737 1427.27 57.5052 1427.07 57.3125C1426.87 57.1198 1426.64 56.9714 1426.36 56.8672C1426.09 56.7578 1425.78 56.7031 1425.44 56.7031C1425.16 56.7031 1424.89 56.7422 1424.62 56.8203C1424.36 56.8984 1424.13 57.0156 1423.93 57.1719C1423.72 57.3281 1423.55 57.5208 1423.43 57.75C1423.31 57.9792 1423.25 58.2448 1423.25 58.5469C1423.26 58.875 1423.34 59.1536 1423.5 59.3828C1423.66 59.6068 1423.87 59.7969 1424.12 59.9531C1424.36 60.1094 1424.63 60.2396 1424.91 60.3438C1425.21 60.4479 1425.48 60.5391 1425.73 60.6172C1426.16 60.7474 1426.58 60.9062 1427 61.0938C1427.42 61.276 1427.81 61.5104 1428.16 61.7969C1428.5 62.0625 1428.78 62.388 1428.98 62.7734C1429.2 63.1589 1429.3 63.6042 1429.3 64.1094C1429.3 64.6198 1429.19 65.0651 1428.96 65.4453C1428.74 65.8255 1428.45 66.1406 1428.09 66.3906C1427.73 66.6458 1427.32 66.8385 1426.87 66.9688C1426.41 67.0938 1425.96 67.1562 1425.51 67.1562C1424.97 67.1562 1424.43 67.0651 1423.91 66.8828C1423.39 66.7005 1422.93 66.4375 1422.55 66.0938C1422.2 65.7969 1421.93 65.4505 1421.73 65.0547C1421.53 64.6536 1421.42 64.2083 1421.41 63.7188H1422.88C1422.93 64.0729 1423.03 64.388 1423.17 64.6641C1423.32 64.9349 1423.51 65.1641 1423.73 65.3516C1423.96 65.5443 1424.23 65.6901 1424.52 65.7891C1424.83 65.8828 1425.15 65.9297 1425.51 65.9297C1425.79 65.9297 1426.07 65.8958 1426.34 65.8281C1426.61 65.7552 1426.86 65.6432 1427.07 65.4922C1427.28 65.3464 1427.46 65.1615 1427.59 64.9375C1427.73 64.7083 1427.8 64.4375 1427.8 64.125ZM1444.83 62.3594H1442.55V67H1441.12V55.625H1444.45C1444.98 55.6354 1445.48 55.7109 1445.95 55.8516C1446.42 55.9922 1446.83 56.2031 1447.19 56.4844C1447.54 56.7656 1447.81 57.1198 1448.01 57.5469C1448.21 57.9688 1448.31 58.4661 1448.31 59.0391C1448.31 59.4089 1448.26 59.7474 1448.15 60.0547C1448.04 60.362 1447.9 60.6406 1447.71 60.8906C1447.52 61.1406 1447.3 61.362 1447.04 61.5547C1446.78 61.7474 1446.49 61.9115 1446.18 62.0469L1448.59 66.9062L1448.59 67H1447.06L1444.83 62.3594ZM1442.55 61.1719H1444.49C1444.82 61.1667 1445.12 61.1172 1445.41 61.0234C1445.69 60.9245 1445.95 60.7839 1446.16 60.6016C1446.38 60.4193 1446.55 60.1979 1446.67 59.9375C1446.8 59.6719 1446.86 59.3672 1446.86 59.0234C1446.86 58.6589 1446.8 58.3411 1446.68 58.0703C1446.56 57.7943 1446.39 57.5625 1446.18 57.375C1445.97 57.1927 1445.71 57.0547 1445.41 56.9609C1445.12 56.8672 1444.8 56.8177 1444.45 56.8125H1442.55V61.1719ZM1456.93 61.7422H1452.18V65.7734H1457.72V67H1450.73V55.625H1457.65V56.8594H1452.18V60.5156H1456.93V61.7422ZM1466.23 64.125C1466.23 63.776 1466.15 63.4818 1465.99 63.2422C1465.84 63.0026 1465.63 62.7995 1465.38 62.6328C1465.13 62.4714 1464.86 62.3359 1464.55 62.2266C1464.26 62.1172 1463.97 62.0182 1463.7 61.9297C1463.29 61.7995 1462.89 61.6432 1462.47 61.4609C1462.06 61.2734 1461.68 61.0495 1461.34 60.7891C1461 60.5234 1460.72 60.2109 1460.5 59.8516C1460.29 59.487 1460.18 59.0599 1460.18 58.5703C1460.18 58.0807 1460.29 57.6432 1460.5 57.2578C1460.72 56.8724 1461 56.5469 1461.35 56.2812C1461.7 56.0156 1462.1 55.8151 1462.54 55.6797C1462.98 55.5391 1463.43 55.4688 1463.88 55.4688C1464.37 55.4688 1464.85 55.5521 1465.3 55.7188C1465.76 55.8802 1466.17 56.1094 1466.52 56.4062C1466.88 56.7031 1467.16 57.0625 1467.38 57.4844C1467.59 57.9062 1467.7 58.3776 1467.71 58.8984H1466.23C1466.18 58.5703 1466.1 58.2734 1465.98 58.0078C1465.86 57.737 1465.71 57.5052 1465.51 57.3125C1465.31 57.1198 1465.07 56.9714 1464.8 56.8672C1464.53 56.7578 1464.22 56.7031 1463.88 56.7031C1463.6 56.7031 1463.33 56.7422 1463.06 56.8203C1462.8 56.8984 1462.57 57.0156 1462.37 57.1719C1462.16 57.3281 1461.99 57.5208 1461.87 57.75C1461.75 57.9792 1461.69 58.2448 1461.69 58.5469C1461.69 58.875 1461.78 59.1536 1461.94 59.3828C1462.1 59.6068 1462.3 59.7969 1462.55 59.9531C1462.8 60.1094 1463.07 60.2396 1463.35 60.3438C1463.64 60.4479 1463.92 60.5391 1464.17 60.6172C1464.59 60.7474 1465.02 60.9062 1465.44 61.0938C1465.86 61.276 1466.24 61.5104 1466.59 61.7969C1466.94 62.0625 1467.21 62.388 1467.42 62.7734C1467.64 63.1589 1467.74 63.6042 1467.74 64.1094C1467.74 64.6198 1467.63 65.0651 1467.4 65.4453C1467.17 65.8255 1466.88 66.1406 1466.52 66.3906C1466.16 66.6458 1465.76 66.8385 1465.3 66.9688C1464.85 67.0938 1464.4 67.1562 1463.95 67.1562C1463.4 67.1562 1462.87 67.0651 1462.34 66.8828C1461.82 66.7005 1461.37 66.4375 1460.98 66.0938C1460.64 65.7969 1460.37 65.4505 1460.16 65.0547C1459.97 64.6536 1459.86 64.2083 1459.84 63.7188H1461.32C1461.37 64.0729 1461.46 64.388 1461.61 64.6641C1461.76 64.9349 1461.94 65.1641 1462.17 65.3516C1462.4 65.5443 1462.66 65.6901 1462.96 65.7891C1463.26 65.8828 1463.59 65.9297 1463.95 65.9297C1464.23 65.9297 1464.5 65.8958 1464.77 65.8281C1465.05 65.7552 1465.29 65.6432 1465.51 65.4922C1465.72 65.3464 1465.9 65.1615 1466.03 64.9375C1466.17 64.7083 1466.23 64.4375 1466.23 64.125ZM1476.15 61.7422H1471.4V65.7734H1476.94V67H1469.95V55.625H1476.87V56.8594H1471.4V60.5156H1476.15V61.7422ZM1483.27 62.3594H1480.99V67H1479.55V55.625H1482.89C1483.42 55.6354 1483.92 55.7109 1484.39 55.8516C1484.86 55.9922 1485.27 56.2031 1485.62 56.4844C1485.97 56.7656 1486.25 57.1198 1486.45 57.5469C1486.65 57.9688 1486.75 58.4661 1486.75 59.0391C1486.75 59.4089 1486.7 59.7474 1486.59 60.0547C1486.48 60.362 1486.34 60.6406 1486.15 60.8906C1485.96 61.1406 1485.74 61.362 1485.48 61.5547C1485.22 61.7474 1484.93 61.9115 1484.62 62.0469L1487.03 66.9062L1487.02 67H1485.5L1483.27 62.3594ZM1480.99 61.1719H1482.93C1483.25 61.1667 1483.56 61.1172 1483.84 61.0234C1484.13 60.9245 1484.38 60.7839 1484.6 60.6016C1484.82 60.4193 1484.98 60.1979 1485.11 59.9375C1485.23 59.6719 1485.3 59.3672 1485.3 59.0234C1485.3 58.6589 1485.24 58.3411 1485.12 58.0703C1485 57.7943 1484.83 57.5625 1484.62 57.375C1484.4 57.1927 1484.15 57.0547 1483.85 56.9609C1483.56 56.8672 1483.24 56.8177 1482.89 56.8125H1480.99V61.1719ZM1491.9 67L1488.3 55.625H1489.85L1492.35 64.1172L1492.52 64.6719L1492.69 64.1016L1495.2 55.625H1496.74L1493.16 67H1491.9ZM1504.98 61.7422H1500.23V65.7734H1505.77V67H1498.78V55.625H1505.7V56.8594H1500.23V60.5156H1504.98V61.7422ZM1508.18 67V55.625H1510.81C1511.26 55.6302 1511.67 55.6771 1512.06 55.7656C1512.46 55.849 1512.82 55.9688 1513.16 56.125C1513.62 56.3385 1514.03 56.6198 1514.38 56.9688C1514.74 57.3125 1515.03 57.7109 1515.24 58.1641C1515.43 58.5495 1515.58 58.9714 1515.68 59.4297C1515.78 59.888 1515.84 60.3776 1515.84 60.8984V61.7344C1515.84 62.2344 1515.79 62.7083 1515.7 63.1562C1515.6 63.6042 1515.46 64.0156 1515.28 64.3906C1515.09 64.7812 1514.86 65.1354 1514.57 65.4531C1514.28 65.7708 1513.96 66.0417 1513.61 66.2656C1513.23 66.5 1512.81 66.6797 1512.34 66.8047C1511.87 66.9297 1511.36 66.9948 1510.81 67H1508.18ZM1509.65 56.8125V65.8203H1510.81C1511.23 65.8151 1511.61 65.763 1511.95 65.6641C1512.29 65.5651 1512.59 65.4245 1512.86 65.2422C1513.14 65.0547 1513.38 64.8255 1513.59 64.5547C1513.79 64.2786 1513.96 63.9714 1514.08 63.6328C1514.18 63.3568 1514.26 63.0599 1514.31 62.7422C1514.36 62.4193 1514.39 62.0833 1514.4 61.7344V60.8828C1514.39 60.5286 1514.36 60.1901 1514.3 59.8672C1514.25 59.5391 1514.17 59.2344 1514.06 58.9531C1513.92 58.5885 1513.73 58.2604 1513.49 57.9688C1513.26 57.6719 1512.97 57.4323 1512.62 57.25C1512.38 57.1146 1512.11 57.0104 1511.8 56.9375C1511.5 56.8594 1511.17 56.8177 1510.81 56.8125H1509.65Z" fill="white" fill-opacity="0.5"/>
<ellipse cx="29.4461" cy="29.7324" rx="9.44615" ry="9.73239" fill="#FF5F5A"/>
<ellipse cx="62.1327" cy="29.7324" rx="9.44615" ry="9.73239" fill="#FFBE2E"/>
<ellipse cx="94.8192" cy="29.7324" rx="9.44615" ry="9.73239" fill="#2ACA44"/>
<rect x="379.235" y="90.2354" width="721.475" height="168.729" fill="#5C95FF" fill-opacity="0.05" stroke="#91A7FF" stroke-width="3.29211"/>
<rect x="370.823" y="81.823" width="13.1684" height="13.1684" fill="white" stroke="#91A7FF" stroke-width="1.64606"/>
<rect x="1095.59" y="81.823" width="13.1684" height="13.1684" fill="white" stroke="#91A7FF" stroke-width="1.64606"/>
<rect x="370.823" y="251.315" width="13.1684" height="13.1684" fill="white" stroke="#91A7FF" stroke-width="1.64606"/>
<rect x="1095.59" y="251.315" width="13.1684" height="13.1684" fill="white" stroke="#91A7FF" stroke-width="1.64606"/>
<path d="M425.043 199.001V156.34H431.625V174.624H449.543V156.34H456.125V199.001H449.543V180.596H431.625V199.001H425.043ZM465.221 199.001V168.956H471.498V199.001H465.221ZM468.39 164.873C467.171 164.873 466.135 164.487 465.282 163.715C464.469 162.902 464.063 161.866 464.063 160.607C464.063 159.347 464.469 158.331 465.282 157.559C466.135 156.747 467.171 156.34 468.39 156.34C469.649 156.34 470.685 156.747 471.498 157.559C472.311 158.331 472.717 159.347 472.717 160.607C472.717 161.866 472.311 162.902 471.498 163.715C470.685 164.487 469.649 164.873 468.39 164.873ZM504.616 199.001V162.313H491.513V156.34H524.301V162.313H511.198V199.001H504.616ZM530.45 199.001V156.34H536.727V173.222H537.703C538.109 172.45 538.678 171.698 539.409 170.967C540.181 170.236 541.176 169.647 542.395 169.2C543.655 168.712 545.239 168.468 547.149 168.468C549.424 168.468 551.435 168.976 553.182 169.992C554.97 171.008 556.372 172.45 557.388 174.319C558.403 176.147 558.911 178.362 558.911 180.962V199.001H552.634V181.45C552.634 178.849 551.984 176.94 550.684 175.721C549.384 174.461 547.596 173.831 545.321 173.831C542.72 173.831 540.628 174.685 539.043 176.391C537.499 178.098 536.727 180.576 536.727 183.826V199.001H530.45ZM581.719 199.855C578.671 199.855 576.01 199.225 573.735 197.965C571.46 196.665 569.672 194.857 568.372 192.541C567.112 190.185 566.483 187.463 566.483 184.375V183.644C566.483 180.515 567.112 177.793 568.372 175.477C569.631 173.12 571.378 171.312 573.613 170.053C575.888 168.753 578.509 168.103 581.475 168.103C584.359 168.103 586.879 168.753 589.032 170.053C591.226 171.312 592.932 173.08 594.151 175.355C595.37 177.63 595.98 180.292 595.98 183.339V185.716H572.882C572.963 188.357 573.836 190.469 575.502 192.054C577.209 193.598 579.321 194.37 581.84 194.37C584.197 194.37 585.964 193.842 587.143 192.785C588.362 191.729 589.296 190.51 589.946 189.128L595.126 191.81C594.558 192.948 593.725 194.146 592.628 195.406C591.571 196.665 590.17 197.722 588.422 198.575C586.675 199.428 584.441 199.855 581.719 199.855ZM572.943 180.901H589.58C589.418 178.626 588.605 176.858 587.143 175.599C585.68 174.299 583.77 173.649 581.414 173.649C579.057 173.649 577.127 174.299 575.624 175.599C574.161 176.858 573.268 178.626 572.943 180.901ZM603.536 199.001V168.956H609.691V172.491H610.666C611.154 171.231 611.926 170.317 612.982 169.748C614.079 169.139 615.42 168.834 617.004 168.834H620.6V174.502H616.761C614.729 174.502 613.063 175.071 611.763 176.208C610.463 177.305 609.813 179.012 609.813 181.328V199.001H603.536ZM639.806 199.855C636.759 199.855 634.098 199.225 631.822 197.965C629.547 196.665 627.759 194.857 626.459 192.541C625.2 190.185 624.57 187.463 624.57 184.375V183.644C624.57 180.515 625.2 177.793 626.459 175.477C627.719 173.12 629.466 171.312 631.701 170.053C633.976 168.753 636.596 168.103 639.562 168.103C642.447 168.103 644.966 168.753 647.119 170.053C649.313 171.312 651.02 173.08 652.239 175.355C653.458 177.63 654.067 180.292 654.067 183.339V185.716H630.969C631.05 188.357 631.924 190.469 633.59 192.054C635.296 193.598 637.409 194.37 639.928 194.37C642.285 194.37 644.052 193.842 645.23 192.785C646.449 191.729 647.384 190.51 648.034 189.128L653.214 191.81C652.645 192.948 651.812 194.146 650.715 195.406C649.659 196.665 648.257 197.722 646.51 198.575C644.763 199.428 642.528 199.855 639.806 199.855ZM631.03 180.901H647.668C647.505 178.626 646.693 176.858 645.23 175.599C643.767 174.299 641.858 173.649 639.501 173.649C637.145 173.649 635.215 174.299 633.712 175.599C632.249 176.858 631.355 178.626 631.03 180.901ZM661.268 207.29V203.694H663.34C665.005 203.694 665.838 202.861 665.838 201.195V199.245H664.924C663.502 199.245 662.324 198.819 661.389 197.965C660.455 197.112 659.988 196.036 659.988 194.735C659.988 193.313 660.455 192.176 661.389 191.322C662.324 190.429 663.502 189.982 664.924 189.982C666.346 189.982 667.504 190.449 668.398 191.383C669.333 192.277 669.8 193.456 669.8 194.918V201.256C669.8 205.279 667.789 207.29 663.766 207.29H661.268ZM691.317 199.001V156.34H697.899V199.001H691.317ZM731.832 199.855C729.679 199.855 727.749 199.489 726.043 198.758C724.377 198.026 723.036 196.95 722.02 195.528C721.045 194.106 720.558 192.379 720.558 190.347C720.558 188.275 721.045 186.569 722.02 185.228C723.036 183.847 724.397 182.811 726.104 182.12C727.851 181.429 729.821 181.084 732.015 181.084H741.157V179.134C741.157 177.387 740.629 175.985 739.572 174.928C738.516 173.872 736.891 173.344 734.697 173.344C732.543 173.344 730.898 173.852 729.76 174.868C728.623 175.883 727.871 177.204 727.505 178.829L721.655 176.94C722.142 175.314 722.914 173.852 723.971 172.552C725.068 171.211 726.51 170.134 728.298 169.322C730.085 168.509 732.239 168.103 734.758 168.103C738.658 168.103 741.726 169.098 743.96 171.089C746.195 173.08 747.312 175.904 747.312 179.56V191.932C747.312 193.151 747.881 193.76 749.019 193.76H751.578V199.001H746.886C745.464 199.001 744.306 198.636 743.412 197.904C742.518 197.173 742.071 196.178 742.071 194.918V194.735H741.157C740.832 195.345 740.344 196.056 739.694 196.868C739.044 197.681 738.089 198.392 736.83 199.001C735.57 199.57 733.905 199.855 731.832 199.855ZM732.747 194.674C735.266 194.674 737.297 193.963 738.841 192.541C740.385 191.079 741.157 189.088 741.157 186.569V185.959H732.381C730.715 185.959 729.374 186.325 728.359 187.056C727.343 187.747 726.835 188.783 726.835 190.165C726.835 191.546 727.363 192.643 728.42 193.456C729.476 194.268 730.918 194.674 732.747 194.674ZM757.682 199.001V168.956H763.837V172.491H764.812C765.381 171.434 766.295 170.5 767.555 169.687C768.814 168.875 770.521 168.468 772.674 168.468C774.909 168.468 776.697 168.936 778.037 169.87C779.419 170.764 780.455 171.922 781.145 173.344H782.121C782.811 171.963 783.807 170.805 785.107 169.87C786.448 168.936 788.337 168.468 790.775 168.468C792.725 168.468 794.452 168.875 795.955 169.687C797.458 170.459 798.657 171.637 799.551 173.222C800.444 174.766 800.891 176.696 800.891 179.012V199.001H794.614V179.499C794.614 177.671 794.106 176.269 793.091 175.294C792.115 174.278 790.714 173.771 788.885 173.771C786.935 173.771 785.371 174.4 784.193 175.66C783.014 176.919 782.425 178.727 782.425 181.084V199.001H776.148V179.499C776.148 177.671 775.64 176.269 774.624 175.294C773.649 174.278 772.248 173.771 770.419 173.771C768.469 173.771 766.905 174.4 765.727 175.66C764.548 176.919 763.959 178.727 763.959 181.084V199.001H757.682ZM823.703 199.001V193.151H829.432V162.191H823.703V156.34H840.768C846.456 156.34 850.803 157.783 853.81 160.668C856.857 163.552 858.38 167.9 858.38 173.71V181.693C858.38 187.503 856.857 191.851 853.81 194.735C850.803 197.579 846.456 199.001 840.768 199.001H823.703ZM836.075 193.029H840.828C844.526 193.029 847.268 192.094 849.056 190.225C850.844 188.357 851.738 185.573 851.738 181.876V173.466C851.738 169.728 850.844 166.945 849.056 165.116C847.268 163.288 844.526 162.374 840.828 162.374H836.075V193.029ZM875.325 199.855C873.172 199.855 871.242 199.489 869.536 198.758C867.87 198.026 866.529 196.95 865.513 195.528C864.538 194.106 864.051 192.379 864.051 190.347C864.051 188.275 864.538 186.569 865.513 185.228C866.529 183.847 867.89 182.811 869.597 182.12C871.344 181.429 873.314 181.084 875.508 181.084H884.65V179.134C884.65 177.387 884.122 175.985 883.065 174.928C882.009 173.872 880.384 173.344 878.19 173.344C876.036 173.344 874.391 173.852 873.253 174.868C872.116 175.883 871.364 177.204 870.998 178.829L865.148 176.94C865.635 175.314 866.407 173.852 867.464 172.552C868.561 171.211 870.003 170.134 871.791 169.322C873.578 168.509 875.732 168.103 878.251 168.103C882.151 168.103 885.219 169.098 887.453 171.089C889.688 173.08 890.805 175.904 890.805 179.56V191.932C890.805 193.151 891.374 193.76 892.512 193.76H895.071V199.001H890.379C888.957 199.001 887.799 198.636 886.905 197.904C886.011 197.173 885.564 196.178 885.564 194.918V194.735H884.65C884.325 195.345 883.837 196.056 883.187 196.868C882.537 197.681 881.582 198.392 880.323 199.001C879.063 199.57 877.397 199.855 875.325 199.855ZM876.239 194.674C878.759 194.674 880.79 193.963 882.334 192.541C883.878 191.079 884.65 189.088 884.65 186.569V185.959H875.874C874.208 185.959 872.867 186.325 871.851 187.056C870.836 187.747 870.328 188.783 870.328 190.165C870.328 191.546 870.856 192.643 871.912 193.456C872.969 194.268 874.411 194.674 876.239 194.674ZM901.175 199.001V168.956H907.33V173.466H908.305C908.874 172.247 909.89 171.109 911.352 170.053C912.815 168.997 914.989 168.468 917.874 168.468C920.149 168.468 922.16 168.976 923.907 169.992C925.695 171.008 927.096 172.45 928.112 174.319C929.128 176.147 929.636 178.362 929.636 180.962V199.001H923.358V181.45C923.358 178.849 922.708 176.94 921.408 175.721C920.108 174.461 918.32 173.831 916.045 173.831C913.445 173.831 911.352 174.685 909.768 176.391C908.224 178.098 907.452 180.576 907.452 183.826V199.001H901.175ZM939.218 186.264V156.34H945.617V186.264H939.218ZM942.448 199.855C941.026 199.855 939.828 199.387 938.853 198.453C937.918 197.518 937.451 196.32 937.451 194.857C937.451 193.395 937.918 192.216 938.853 191.322C939.828 190.388 941.026 189.921 942.448 189.921C943.87 189.921 945.049 190.388 945.983 191.322C946.958 192.257 947.446 193.435 947.446 194.857C947.446 196.32 946.958 197.518 945.983 198.453C945.049 199.387 943.87 199.855 942.448 199.855Z" fill="#91A7FF"/>
<path d="M986.236 149.393C982.842 152.31 978.518 162.815 988.38 181.489L1054.48 181.826C1064.35 163.167 1059.63 156.558 1056.23 153.643C1057.84 156.72 1060.06 160.057 1054.48 164.333C1048.91 168.609 1049.84 149.921 1049.84 139.555C1049.48 141.984 1047.44 149.393 1040.73 153.643C1035.01 147.65 1032.58 143.345 1040.73 137.125C1032.69 137.125 1025.18 116.717 1025.72 119.147C1025.01 121.09 1028.72 136.737 1027.86 137.125C1021.43 136.752 1016.7 130.22 1016.7 125.167C1016.7 130.224 1016.96 137.32 1014.64 138.617C1013.8 138.236 1012.62 123.818 1011.83 121.338C1011.55 123.728 1008.98 136.752 1002.14 136.752C1010.28 142.976 1009.92 149.393 1002.14 153.283C996.562 146.28 996.061 141.615 995.704 139.183C995.704 149.558 993.955 168.262 988.38 163.982C982.806 159.702 984.628 152.473 986.236 149.393Z" fill="#F6F8FF"/>
<path d="M1055.04 186.314C1055.04 204.923 1039.96 220.008 1021.35 220.008C1002.74 220.008 987.653 204.923 987.653 186.314C987.653 167.705 1002.74 152.619 1021.35 152.619C1039.96 152.619 1055.04 167.705 1055.04 186.314Z" fill="#F6F8FF"/>
<path d="M1042.49 186.644C1042.49 191.205 1038.79 194.902 1034.23 194.902C1029.67 194.902 1025.97 191.205 1025.97 186.644C1025.97 182.083 1029.67 178.469 1034.23 178.469C1038.79 178.469 1042.49 182.083 1042.49 186.644Z" fill="#03081C"/>
<path d="M1016.84 186.644C1016.84 191.206 1013.14 194.903 1008.58 194.903C1004.02 194.903 1000.32 191.206 1000.32 186.644C1000.32 182.083 1004.02 178.071 1008.58 178.071C1013.14 178.071 1016.84 182.083 1016.84 186.644Z" fill="#03081C"/>
<path d="M1033.65 278.08L1027.96 252.487L1052.29 266.268L1040.38 268.729L1033.65 278.08Z" fill="#91A7FF"/>
<path fill-rule="evenodd" clip-rule="evenodd" d="M1026.46 250.492L1055.09 266.705L1040.99 269.619L1033.14 280.519L1026.46 250.492ZM1029.45 254.483L1034.16 275.642L1039.77 267.84L1049.48 265.832L1029.45 254.483Z" fill="#F5FAFF"/>
<path d="M1214.93 282.113H1051.76V315H1214.93V282.113Z" fill="#91A7FF"/>
<path d="M1061.15 306.271V293.903H1064.97C1066.15 293.903 1067.19 294.168 1068.1 294.698C1069.01 295.216 1069.73 295.941 1070.25 296.871C1070.77 297.802 1071.03 298.874 1071.03 300.087C1071.03 301.288 1070.77 302.354 1070.25 303.285C1069.73 304.215 1069.01 304.945 1068.1 305.475C1067.19 306.005 1066.15 306.271 1064.97 306.271H1061.15ZM1062.88 304.645H1064.97C1065.57 304.645 1066.13 304.533 1066.65 304.309C1067.17 304.074 1067.62 303.75 1068.01 303.338C1068.41 302.914 1068.71 302.425 1068.93 301.871C1069.15 301.318 1069.26 300.723 1069.26 300.087C1069.26 299.451 1069.15 298.856 1068.93 298.302C1068.71 297.749 1068.41 297.266 1068.01 296.853C1067.62 296.429 1067.17 296.106 1066.65 295.882C1066.13 295.646 1065.57 295.528 1064.97 295.528H1062.88V304.645ZM1081.92 306.271L1077.03 293.903H1078.79L1083.77 306.271H1081.92ZM1071.95 306.271L1076.94 293.903H1078.7L1073.81 306.271H1071.95ZM1074.3 302.967V301.412H1081.42V302.967H1074.3ZM1085.5 306.271V293.903H1087.28L1094.28 303.373V293.903H1096.03V306.271H1094.28L1087.23 296.712V306.271H1085.5ZM1099.18 306.271V293.903H1100.91V306.271H1099.18ZM1104.06 306.271V293.903H1105.79V304.68H1111.54V306.271H1104.06ZM1118.39 306.483C1117.19 306.483 1116.12 306.212 1115.19 305.67C1114.26 305.128 1113.53 304.374 1113 303.408C1112.48 302.442 1112.22 301.335 1112.22 300.087C1112.22 298.838 1112.48 297.737 1113 296.783C1113.53 295.817 1114.25 295.063 1115.17 294.521C1116.09 293.968 1117.15 293.691 1118.35 293.691C1119.55 293.691 1120.61 293.968 1121.53 294.521C1122.45 295.063 1123.17 295.817 1123.69 296.783C1124.21 297.737 1124.47 298.838 1124.47 300.087C1124.47 301.335 1124.21 302.442 1123.69 303.408C1123.17 304.374 1122.45 305.128 1121.53 305.67C1120.63 306.212 1119.58 306.483 1118.39 306.483ZM1118.39 304.892C1119.24 304.892 1119.98 304.686 1120.63 304.274C1121.28 303.862 1121.79 303.296 1122.15 302.578C1122.52 301.859 1122.7 301.029 1122.7 300.087C1122.7 299.156 1122.51 298.332 1122.13 297.613C1121.77 296.883 1121.26 296.312 1120.6 295.899C1119.95 295.487 1119.2 295.281 1118.35 295.281C1117.5 295.281 1116.75 295.487 1116.09 295.899C1115.43 296.312 1114.91 296.883 1114.54 297.613C1114.17 298.332 1113.99 299.156 1113.99 300.087C1113.99 301.029 1114.18 301.859 1114.55 302.578C1114.93 303.296 1115.45 303.862 1116.11 304.274C1116.78 304.686 1117.54 304.892 1118.39 304.892ZM1131.12 306.271V293.903H1134.93C1136.11 293.903 1137.15 294.168 1138.06 294.698C1138.98 295.216 1139.7 295.941 1140.22 296.871C1140.73 297.802 1140.99 298.874 1140.99 300.087C1140.99 301.288 1140.73 302.354 1140.22 303.285C1139.7 304.215 1138.98 304.945 1138.06 305.475C1137.15 306.005 1136.11 306.271 1134.93 306.271H1131.12ZM1132.85 304.645H1134.93C1135.53 304.645 1136.09 304.533 1136.61 304.309C1137.13 304.074 1137.58 303.75 1137.97 303.338C1138.37 302.914 1138.68 302.425 1138.89 301.871C1139.11 301.318 1139.23 300.723 1139.23 300.087C1139.23 299.451 1139.11 298.856 1138.89 298.302C1138.68 297.749 1138.37 297.266 1137.97 296.853C1137.58 296.429 1137.13 296.106 1136.61 295.882C1136.09 295.646 1135.53 295.528 1134.93 295.528H1132.85V304.645ZM1148.69 306.483C1147.48 306.483 1146.42 306.212 1145.49 305.67C1144.56 305.128 1143.83 304.374 1143.3 303.408C1142.78 302.442 1142.52 301.335 1142.52 300.087C1142.52 298.838 1142.78 297.737 1143.3 296.783C1143.83 295.817 1144.55 295.063 1145.47 294.521C1146.39 293.968 1147.45 293.691 1148.65 293.691C1149.85 293.691 1150.91 293.968 1151.83 294.521C1152.75 295.063 1153.47 295.817 1153.99 296.783C1154.5 297.737 1154.76 298.838 1154.76 300.087C1154.76 301.335 1154.5 302.442 1153.99 303.408C1153.47 304.374 1152.75 305.128 1151.83 305.67C1150.92 306.212 1149.88 306.483 1148.69 306.483ZM1148.69 304.892C1149.53 304.892 1150.28 304.686 1150.93 304.274C1151.58 303.862 1152.08 303.296 1152.45 302.578C1152.81 301.859 1153 301.029 1153 300.087C1153 299.156 1152.81 298.332 1152.43 297.613C1152.07 296.883 1151.55 296.312 1150.89 295.899C1150.25 295.487 1149.5 295.281 1148.65 295.281C1147.8 295.281 1147.05 295.487 1146.39 295.899C1145.73 296.312 1145.21 296.883 1144.83 297.613C1144.47 298.332 1144.29 299.156 1144.29 300.087C1144.29 301.029 1144.48 301.859 1144.85 302.578C1145.23 303.296 1145.75 303.862 1146.41 304.274C1147.08 304.686 1147.84 304.892 1148.69 304.892ZM1157.1 306.271V293.903H1158.89L1165.88 303.373V293.903H1167.63V306.271H1165.88L1158.83 296.712V306.271H1157.1ZM1179.33 306.271L1174.44 293.903H1176.21L1181.19 306.271H1179.33ZM1169.37 306.271L1174.35 293.903H1176.12L1171.23 306.271H1169.37ZM1171.72 302.967V301.412H1178.84V302.967H1171.72ZM1185.03 306.271V295.493H1181.16V293.903H1190.64V295.493H1186.77V306.271H1185.03ZM1197.77 306.483C1196.57 306.483 1195.51 306.212 1194.58 305.67C1193.64 305.128 1192.91 304.374 1192.38 303.408C1191.87 302.442 1191.61 301.335 1191.61 300.087C1191.61 298.838 1191.87 297.737 1192.38 296.783C1192.91 295.817 1193.64 295.063 1194.56 294.521C1195.48 293.968 1196.54 293.691 1197.74 293.691C1198.94 293.691 1200 293.968 1200.92 294.521C1201.84 295.063 1202.56 295.817 1203.07 296.783C1203.59 297.737 1203.85 298.838 1203.85 300.087C1203.85 301.335 1203.59 302.442 1203.07 303.408C1202.56 304.374 1201.84 305.128 1200.92 305.67C1200.01 306.212 1198.96 306.483 1197.77 306.483ZM1197.77 304.892C1198.62 304.892 1199.37 304.686 1200.02 304.274C1200.67 303.862 1201.17 303.296 1201.54 302.578C1201.9 301.859 1202.08 301.029 1202.08 300.087C1202.08 299.156 1201.9 298.332 1201.52 297.613C1201.15 296.883 1200.64 296.312 1199.98 295.899C1199.33 295.487 1198.59 295.281 1197.74 295.281C1196.89 295.281 1196.14 295.487 1195.48 295.899C1194.82 296.312 1194.3 296.883 1193.92 297.613C1193.56 298.332 1193.37 299.156 1193.37 300.087C1193.37 301.029 1193.56 301.859 1193.94 302.578C1194.32 303.296 1194.83 303.862 1195.49 304.274C1196.17 304.686 1196.93 304.892 1197.77 304.892Z" fill="#0F0F0F"/>
<path d="M1340 364V354.047H1343.19C1343.67 354.047 1344.13 354.102 1344.55 354.211C1344.97 354.316 1345.34 354.478 1345.65 354.696C1345.96 354.915 1346.2 355.195 1346.38 355.537C1346.55 355.874 1346.64 356.275 1346.64 356.74C1346.64 357.023 1346.59 357.287 1346.49 357.533C1346.4 357.775 1346.27 357.989 1346.1 358.176C1345.97 358.312 1345.83 358.433 1345.68 358.538C1345.53 358.638 1345.35 358.729 1345.15 358.812V358.825C1345.45 358.903 1345.7 359.017 1345.91 359.167C1346.12 359.313 1346.3 359.479 1346.44 359.666C1346.58 359.867 1346.69 360.09 1346.77 360.336C1346.84 360.577 1346.88 360.833 1346.88 361.102C1346.89 361.576 1346.8 361.993 1346.63 362.353C1346.46 362.713 1346.22 363.013 1345.91 363.255C1345.61 363.501 1345.24 363.688 1344.82 363.815C1344.4 363.938 1343.94 364 1343.45 364H1340ZM1341.66 359.502V362.646H1343.46C1343.72 362.646 1343.96 362.61 1344.17 362.537C1344.39 362.464 1344.57 362.364 1344.72 362.236C1344.89 362.104 1345.01 361.942 1345.1 361.751C1345.19 361.555 1345.23 361.339 1345.23 361.102C1345.23 360.851 1345.2 360.63 1345.12 360.438C1345.05 360.243 1344.94 360.076 1344.8 359.939C1344.65 359.803 1344.47 359.698 1344.26 359.625C1344.05 359.548 1343.81 359.507 1343.55 359.502H1341.66ZM1341.66 358.251H1343.22C1343.49 358.246 1343.74 358.21 1343.96 358.142C1344.19 358.073 1344.38 357.973 1344.54 357.841C1344.68 357.722 1344.79 357.579 1344.87 357.41C1344.95 357.242 1345 357.048 1345 356.829C1345 356.597 1344.96 356.396 1344.88 356.228C1344.81 356.054 1344.7 355.913 1344.56 355.804C1344.41 355.667 1344.22 355.569 1343.98 355.51C1343.75 355.446 1343.49 355.412 1343.21 355.407H1341.66V358.251ZM1353.26 361.71H1350.14L1349.46 364H1347.75L1350.99 354.047H1352.45L1355.63 364H1353.93L1353.26 361.71ZM1350.55 360.302H1352.86L1351.71 356.364L1350.55 360.302ZM1362.02 361.437C1362.02 361.204 1361.98 360.999 1361.88 360.821C1361.78 360.644 1361.65 360.484 1361.48 360.343C1361.29 360.211 1361.08 360.092 1360.83 359.987C1360.58 359.878 1360.31 359.78 1360 359.693C1359.53 359.561 1359.1 359.399 1358.7 359.208C1358.31 359.012 1357.97 358.793 1357.7 358.552C1357.42 358.306 1357.2 358.028 1357.04 357.718C1356.89 357.403 1356.81 357.05 1356.81 356.658C1356.81 356.234 1356.9 355.854 1357.08 355.517C1357.26 355.175 1357.51 354.883 1357.82 354.642C1358.13 354.405 1358.49 354.225 1358.9 354.102C1359.31 353.974 1359.75 353.91 1360.21 353.91C1360.69 353.91 1361.14 353.985 1361.55 354.136C1361.97 354.282 1362.34 354.487 1362.65 354.751C1362.96 355.02 1363.2 355.341 1363.38 355.715C1363.56 356.084 1363.65 356.494 1363.65 356.945H1362.02C1362 356.695 1361.95 356.467 1361.86 356.262C1361.78 356.052 1361.66 355.872 1361.51 355.722C1361.36 355.576 1361.17 355.462 1360.94 355.38C1360.72 355.293 1360.47 355.25 1360.18 355.25C1359.93 355.25 1359.7 355.284 1359.49 355.353C1359.28 355.416 1359.1 355.507 1358.94 355.626C1358.79 355.749 1358.66 355.897 1358.58 356.07C1358.49 356.243 1358.45 356.437 1358.45 356.651C1358.45 356.879 1358.51 357.08 1358.63 357.253C1358.74 357.422 1358.89 357.57 1359.08 357.697C1359.28 357.825 1359.5 357.937 1359.75 358.032C1360.01 358.128 1360.28 358.217 1360.55 358.299C1360.9 358.399 1361.25 358.524 1361.58 358.675C1361.92 358.821 1362.23 358.998 1362.51 359.208C1362.86 359.472 1363.14 359.789 1363.35 360.158C1363.56 360.523 1363.67 360.944 1363.67 361.423C1363.67 361.865 1363.58 362.255 1363.39 362.592C1363.21 362.929 1362.96 363.209 1362.65 363.433C1362.34 363.665 1361.97 363.84 1361.56 363.959C1361.14 364.073 1360.71 364.13 1360.25 364.13C1359.76 364.13 1359.28 364.055 1358.8 363.904C1358.33 363.749 1357.92 363.526 1357.57 363.234C1357.24 362.961 1356.99 362.64 1356.79 362.271C1356.61 361.901 1356.51 361.478 1356.51 360.999H1358.15C1358.17 361.304 1358.23 361.571 1358.34 361.799C1358.45 362.022 1358.6 362.207 1358.78 362.353C1358.97 362.503 1359.18 362.615 1359.43 362.688C1359.68 362.76 1359.95 362.797 1360.25 362.797C1360.5 362.797 1360.73 362.767 1360.94 362.708C1361.16 362.649 1361.35 362.56 1361.51 362.441C1361.67 362.327 1361.79 362.186 1361.88 362.018C1361.98 361.849 1362.02 361.655 1362.02 361.437ZM1371.09 359.536H1366.98V362.646H1371.79V364H1365.33V354.047H1371.75V355.407H1366.98V358.21H1371.09V359.536ZM1373.58 364V354.047H1376.04C1376.47 354.047 1376.87 354.097 1377.25 354.197C1377.63 354.293 1377.97 354.427 1378.28 354.601C1378.62 354.778 1378.92 355.002 1379.17 355.271C1379.44 355.539 1379.66 355.84 1379.84 356.173C1380.02 356.519 1380.16 356.9 1380.26 357.314C1380.36 357.729 1380.41 358.171 1380.41 358.641V359.42C1380.41 359.871 1380.36 360.299 1380.27 360.705C1380.18 361.106 1380.05 361.473 1379.87 361.806C1379.7 362.129 1379.5 362.423 1379.26 362.688C1379.02 362.952 1378.76 363.177 1378.46 363.364C1378.14 363.569 1377.77 363.727 1377.37 363.836C1376.97 363.945 1376.55 364 1376.09 364H1373.58ZM1375.24 355.387V362.667H1376.09C1376.38 362.667 1376.65 362.633 1376.89 362.564C1377.14 362.492 1377.36 362.389 1377.55 362.257C1377.76 362.12 1377.93 361.949 1378.09 361.744C1378.25 361.535 1378.38 361.295 1378.48 361.026C1378.56 360.799 1378.63 360.55 1378.68 360.281C1378.72 360.012 1378.74 359.725 1378.74 359.42V358.627C1378.74 358.326 1378.72 358.041 1378.68 357.772C1378.63 357.504 1378.56 357.255 1378.48 357.027C1378.37 356.749 1378.22 356.499 1378.04 356.275C1377.86 356.048 1377.64 355.863 1377.39 355.722C1377.21 355.617 1377 355.537 1376.78 355.482C1376.55 355.423 1376.3 355.391 1376.04 355.387H1375.24ZM1390.71 354.047H1396.58V355.407H1394.45V362.646H1396.58V364H1390.71V362.646H1392.79V355.407H1390.71V354.047ZM1405.3 364H1403.65L1400.42 357.15L1400.41 364H1398.75V354.047H1400.42L1403.63 360.869L1403.65 354.047H1405.3V364ZM1420.88 361.437C1420.88 361.204 1420.83 360.999 1420.74 360.821C1420.64 360.644 1420.51 360.484 1420.33 360.343C1420.15 360.211 1419.94 360.092 1419.68 359.987C1419.44 359.878 1419.16 359.78 1418.86 359.693C1418.39 359.561 1417.96 359.399 1417.56 359.208C1417.17 359.012 1416.83 358.793 1416.55 358.552C1416.28 358.306 1416.06 358.028 1415.9 357.718C1415.74 357.403 1415.67 357.05 1415.67 356.658C1415.67 356.234 1415.76 355.854 1415.94 355.517C1416.12 355.175 1416.37 354.883 1416.68 354.642C1416.99 354.405 1417.35 354.225 1417.76 354.102C1418.17 353.974 1418.61 353.91 1419.06 353.91C1419.55 353.91 1419.99 353.985 1420.41 354.136C1420.83 354.282 1421.19 354.487 1421.5 354.751C1421.81 355.02 1422.06 355.341 1422.23 355.715C1422.42 356.084 1422.51 356.494 1422.51 356.945H1420.88C1420.86 356.695 1420.8 356.467 1420.72 356.262C1420.63 356.052 1420.52 355.872 1420.37 355.722C1420.21 355.576 1420.02 355.462 1419.8 355.38C1419.58 355.293 1419.33 355.25 1419.04 355.25C1418.79 355.25 1418.56 355.284 1418.34 355.353C1418.14 355.416 1417.95 355.507 1417.8 355.626C1417.64 355.749 1417.52 355.897 1417.44 356.07C1417.35 356.243 1417.31 356.437 1417.31 356.651C1417.31 356.879 1417.37 357.08 1417.48 357.253C1417.6 357.422 1417.75 357.57 1417.94 357.697C1418.14 357.825 1418.36 357.937 1418.61 358.032C1418.87 358.128 1419.13 358.217 1419.41 358.299C1419.76 358.399 1420.1 358.524 1420.44 358.675C1420.77 358.821 1421.08 358.998 1421.37 359.208C1421.72 359.472 1422 359.789 1422.21 360.158C1422.42 360.523 1422.53 360.944 1422.53 361.423C1422.53 361.865 1422.43 362.255 1422.25 362.592C1422.07 362.929 1421.82 363.209 1421.51 363.433C1421.2 363.665 1420.83 363.84 1420.42 363.959C1420 364.073 1419.56 364.13 1419.1 364.13C1418.62 364.13 1418.14 364.055 1417.66 363.904C1417.19 363.749 1416.77 363.526 1416.42 363.234C1416.1 362.961 1415.84 362.64 1415.65 362.271C1415.46 361.901 1415.37 361.478 1415.36 360.999H1417C1417.03 361.304 1417.09 361.571 1417.2 361.799C1417.31 362.022 1417.45 362.207 1417.64 362.353C1417.82 362.503 1418.04 362.615 1418.28 362.688C1418.53 362.76 1418.81 362.797 1419.1 362.797C1419.35 362.797 1419.59 362.767 1419.8 362.708C1420.02 362.649 1420.21 362.56 1420.37 362.441C1420.52 362.327 1420.65 362.186 1420.74 362.018C1420.83 361.849 1420.88 361.655 1420.88 361.437ZM1428.93 361.71H1425.81L1425.13 364H1423.42L1426.66 354.047H1428.12L1431.31 364H1429.6L1428.93 361.71ZM1426.23 360.302H1428.53L1427.39 356.364L1426.23 360.302ZM1429.83 351.326C1429.83 351.531 1429.79 351.732 1429.72 351.928C1429.65 352.124 1429.56 352.295 1429.43 352.44C1429.31 352.595 1429.15 352.718 1428.97 352.81C1428.8 352.896 1428.6 352.939 1428.39 352.939C1428.2 352.939 1428.03 352.914 1427.88 352.864C1427.74 352.814 1427.61 352.757 1427.48 352.693C1427.36 352.63 1427.23 352.568 1427.12 352.509C1427 352.45 1426.87 352.411 1426.73 352.393C1426.65 352.374 1426.56 352.368 1426.47 352.372C1426.39 352.372 1426.31 352.39 1426.23 352.427C1426.11 352.459 1426.01 352.529 1425.94 352.639C1425.87 352.748 1425.83 352.878 1425.82 353.028L1424.97 352.844C1424.97 352.639 1425 352.438 1425.07 352.242C1425.14 352.046 1425.24 351.873 1425.37 351.723C1425.5 351.568 1425.65 351.445 1425.82 351.354C1426 351.258 1426.2 351.21 1426.41 351.21C1426.6 351.21 1426.77 351.242 1426.92 351.306C1427.08 351.369 1427.24 351.438 1427.39 351.511C1427.53 351.593 1427.68 351.666 1427.83 351.729C1427.99 351.793 1428.15 351.825 1428.33 351.825C1428.42 351.825 1428.5 351.807 1428.58 351.771C1428.67 351.734 1428.74 351.682 1428.8 351.613C1428.85 351.554 1428.89 351.483 1428.93 351.401C1428.96 351.315 1428.98 351.221 1428.98 351.121L1429.83 351.326ZM1439.26 359.687C1439.26 360.088 1439.22 360.475 1439.15 360.849C1439.08 361.222 1438.98 361.576 1438.85 361.908C1438.7 362.241 1438.53 362.549 1438.32 362.831C1438.11 363.109 1437.87 363.348 1437.59 363.549C1437.33 363.731 1437.04 363.875 1436.71 363.979C1436.39 364.084 1436.04 364.137 1435.66 364.137C1435.26 364.137 1434.9 364.082 1434.57 363.973C1434.24 363.859 1433.94 363.704 1433.68 363.508C1433.42 363.307 1433.19 363.066 1432.99 362.783C1432.79 362.501 1432.63 362.191 1432.5 361.854C1432.37 361.53 1432.27 361.186 1432.21 360.821C1432.14 360.452 1432.11 360.074 1432.11 359.687V358.374C1432.11 357.968 1432.15 357.576 1432.21 357.198C1432.28 356.82 1432.39 356.462 1432.52 356.125C1432.65 355.801 1432.82 355.505 1433.01 355.236C1433.2 354.963 1433.43 354.726 1433.7 354.525C1433.95 354.329 1434.24 354.179 1434.57 354.074C1434.89 353.965 1435.25 353.91 1435.65 353.91C1436.04 353.91 1436.41 353.965 1436.74 354.074C1437.07 354.184 1437.37 354.336 1437.64 354.532C1437.9 354.728 1438.13 354.958 1438.33 355.223C1438.52 355.487 1438.69 355.776 1438.82 356.091C1438.96 356.428 1439.07 356.79 1439.15 357.178C1439.22 357.561 1439.26 357.959 1439.26 358.374V359.687ZM1437.6 358.36C1437.6 358.11 1437.58 357.864 1437.55 357.622C1437.53 357.381 1437.49 357.15 1437.43 356.932C1437.36 356.681 1437.27 356.453 1437.16 356.248C1437.05 356.038 1436.91 355.861 1436.75 355.715C1436.61 355.587 1436.45 355.487 1436.27 355.414C1436.09 355.341 1435.88 355.305 1435.65 355.305C1435.42 355.305 1435.22 355.341 1435.04 355.414C1434.87 355.482 1434.71 355.578 1434.58 355.701C1434.42 355.852 1434.29 356.032 1434.18 356.241C1434.07 356.446 1433.98 356.676 1433.92 356.932C1433.87 357.15 1433.83 357.383 1433.8 357.629C1433.78 357.87 1433.77 358.114 1433.77 358.36V359.687C1433.77 359.928 1433.78 360.167 1433.8 360.404C1433.82 360.641 1433.86 360.869 1433.92 361.088C1433.98 361.334 1434.06 361.564 1434.16 361.778C1434.26 361.988 1434.39 362.166 1434.53 362.312C1434.67 362.448 1434.84 362.558 1435.02 362.64C1435.2 362.717 1435.42 362.756 1435.66 362.756C1435.89 362.756 1436.1 362.717 1436.29 362.64C1436.48 362.562 1436.64 362.457 1436.78 362.325C1436.94 362.175 1437.07 361.997 1437.18 361.792C1437.29 361.582 1437.37 361.352 1437.44 361.102C1437.49 360.883 1437.53 360.655 1437.55 360.418C1437.58 360.176 1437.6 359.933 1437.6 359.687V358.36ZM1451.09 360.206V364H1449.45V354.047H1452.78C1453.28 354.051 1453.74 354.127 1454.16 354.272C1454.58 354.418 1454.95 354.626 1455.25 354.895C1455.56 355.163 1455.79 355.489 1455.96 355.872C1456.13 356.255 1456.22 356.686 1456.22 357.164C1456.22 357.624 1456.13 358.041 1455.96 358.415C1455.79 358.784 1455.56 359.101 1455.25 359.365C1454.95 359.634 1454.58 359.841 1454.16 359.987C1453.74 360.133 1453.28 360.206 1452.78 360.206H1451.09ZM1451.09 358.866H1452.78C1453.06 358.862 1453.3 358.818 1453.52 358.736C1453.75 358.65 1453.93 358.531 1454.09 358.381C1454.24 358.23 1454.36 358.053 1454.44 357.848C1454.52 357.643 1454.56 357.419 1454.56 357.178C1454.56 356.913 1454.52 356.674 1454.44 356.46C1454.36 356.241 1454.24 356.052 1454.09 355.893C1453.93 355.733 1453.75 355.61 1453.52 355.523C1453.3 355.437 1453.06 355.391 1452.78 355.387H1451.09V358.866ZM1462.57 361.71H1459.44L1458.77 364H1457.06L1460.3 354.047H1461.75L1464.94 364H1463.24L1462.57 361.71ZM1459.86 360.302H1462.16L1461.02 356.364L1459.86 360.302ZM1472.62 354.047L1472.62 360.705C1472.62 361.22 1472.54 361.689 1472.38 362.113C1472.23 362.533 1472.01 362.893 1471.72 363.193C1471.43 363.494 1471.08 363.727 1470.67 363.891C1470.26 364.055 1469.81 364.137 1469.3 364.137C1468.8 364.137 1468.35 364.057 1467.95 363.897C1467.55 363.733 1467.21 363.501 1466.93 363.2C1466.64 362.899 1466.42 362.537 1466.26 362.113C1466.1 361.689 1466.02 361.22 1466.02 360.705L1466.03 354.047H1467.65L1467.67 360.705C1467.67 361.02 1467.71 361.309 1467.78 361.573C1467.86 361.833 1467.96 362.054 1468.1 362.236C1468.24 362.41 1468.41 362.546 1468.6 362.646C1468.8 362.742 1469.04 362.79 1469.3 362.79C1469.57 362.79 1469.81 362.742 1470.01 362.646C1470.22 362.546 1470.4 362.405 1470.54 362.223C1470.68 362.036 1470.79 361.815 1470.86 361.56C1470.93 361.3 1470.97 361.015 1470.98 360.705L1471 354.047H1472.62ZM1476.34 362.646H1481.09V364H1474.69V354.047H1476.34V362.646ZM1489.71 359.687C1489.71 360.088 1489.67 360.475 1489.6 360.849C1489.53 361.222 1489.43 361.576 1489.29 361.908C1489.15 362.241 1488.98 362.549 1488.77 362.831C1488.56 363.109 1488.32 363.348 1488.04 363.549C1487.78 363.731 1487.49 363.875 1487.16 363.979C1486.84 364.084 1486.49 364.137 1486.11 364.137C1485.71 364.137 1485.35 364.082 1485.02 363.973C1484.69 363.859 1484.39 363.704 1484.13 363.508C1483.87 363.307 1483.64 363.066 1483.44 362.783C1483.24 362.501 1483.08 362.191 1482.94 361.854C1482.82 361.53 1482.72 361.186 1482.66 360.821C1482.59 360.452 1482.56 360.074 1482.56 359.687V358.374C1482.56 357.968 1482.6 357.576 1482.66 357.198C1482.73 356.82 1482.83 356.462 1482.97 356.125C1483.1 355.801 1483.27 355.505 1483.46 355.236C1483.65 354.963 1483.88 354.726 1484.15 354.525C1484.4 354.329 1484.69 354.179 1485.02 354.074C1485.34 353.965 1485.7 353.91 1486.1 353.91C1486.49 353.91 1486.86 353.965 1487.19 354.074C1487.52 354.184 1487.82 354.336 1488.08 354.532C1488.35 354.728 1488.58 354.958 1488.78 355.223C1488.97 355.487 1489.14 355.776 1489.27 356.091C1489.41 356.428 1489.52 356.79 1489.6 357.178C1489.67 357.561 1489.71 357.959 1489.71 358.374V359.687ZM1488.05 358.36C1488.05 358.11 1488.03 357.864 1488 357.622C1487.98 357.381 1487.94 357.15 1487.88 356.932C1487.81 356.681 1487.72 356.453 1487.61 356.248C1487.5 356.038 1487.36 355.861 1487.2 355.715C1487.06 355.587 1486.9 355.487 1486.72 355.414C1486.54 355.341 1486.33 355.305 1486.1 355.305C1485.87 355.305 1485.67 355.341 1485.49 355.414C1485.32 355.482 1485.16 355.578 1485.03 355.701C1484.87 355.852 1484.74 356.032 1484.63 356.241C1484.52 356.446 1484.43 356.676 1484.37 356.932C1484.32 357.15 1484.28 357.383 1484.25 357.629C1484.23 357.87 1484.22 358.114 1484.22 358.36V359.687C1484.22 359.928 1484.23 360.167 1484.25 360.404C1484.27 360.641 1484.31 360.869 1484.37 361.088C1484.43 361.334 1484.51 361.564 1484.61 361.778C1484.71 361.988 1484.84 362.166 1484.98 362.312C1485.12 362.448 1485.28 362.558 1485.47 362.64C1485.65 362.717 1485.87 362.756 1486.11 362.756C1486.34 362.756 1486.55 362.717 1486.74 362.64C1486.93 362.562 1487.09 362.457 1487.23 362.325C1487.39 362.175 1487.52 361.997 1487.63 361.792C1487.74 361.582 1487.82 361.352 1487.89 361.102C1487.94 360.883 1487.98 360.655 1488 360.418C1488.03 360.176 1488.05 359.933 1488.05 359.687V358.36ZM1495.01 363.788C1495.01 364.28 1494.89 364.779 1494.65 365.285C1494.41 365.796 1494.1 366.226 1493.7 366.577L1492.79 366.092C1492.98 365.768 1493.13 365.426 1493.24 365.066C1493.35 364.706 1493.4 364.301 1493.4 363.85V362.407H1495.01V363.788ZM1508.17 364V354.047H1511.35C1511.84 354.047 1512.29 354.102 1512.71 354.211C1513.14 354.316 1513.51 354.478 1513.82 354.696C1514.13 354.915 1514.37 355.195 1514.54 355.537C1514.72 355.874 1514.81 356.275 1514.81 356.74C1514.8 357.023 1514.75 357.287 1514.66 357.533C1514.57 357.775 1514.43 357.989 1514.26 358.176C1514.14 358.312 1514 358.433 1513.84 358.538C1513.69 358.638 1513.52 358.729 1513.32 358.812V358.825C1513.61 358.903 1513.87 359.017 1514.08 359.167C1514.28 359.313 1514.46 359.479 1514.6 359.666C1514.75 359.867 1514.86 360.09 1514.93 360.336C1515.01 360.577 1515.05 360.833 1515.05 361.102C1515.05 361.576 1514.97 361.993 1514.79 362.353C1514.62 362.713 1514.38 363.013 1514.08 363.255C1513.77 363.501 1513.41 363.688 1512.98 363.815C1512.56 363.938 1512.11 364 1511.61 364H1508.17ZM1509.82 359.502V362.646H1511.63C1511.89 362.646 1512.12 362.61 1512.34 362.537C1512.55 362.464 1512.74 362.364 1512.89 362.236C1513.05 362.104 1513.18 361.942 1513.26 361.751C1513.35 361.555 1513.4 361.339 1513.4 361.102C1513.4 360.851 1513.36 360.63 1513.29 360.438C1513.22 360.243 1513.11 360.076 1512.96 359.939C1512.82 359.803 1512.64 359.698 1512.43 359.625C1512.22 359.548 1511.98 359.507 1511.71 359.502H1509.82ZM1509.82 358.251H1511.39C1511.66 358.246 1511.9 358.21 1512.13 358.142C1512.35 358.073 1512.55 357.973 1512.7 357.841C1512.84 357.722 1512.95 357.579 1513.04 357.41C1513.12 357.242 1513.16 357.048 1513.16 356.829C1513.16 356.597 1513.12 356.396 1513.04 356.228C1512.97 356.054 1512.87 355.913 1512.73 355.804C1512.57 355.667 1512.38 355.569 1512.15 355.51C1511.92 355.446 1511.66 355.412 1511.38 355.407H1509.82V358.251ZM1519.93 360.138H1518.25V364H1516.61V354.047H1519.77C1520.28 354.051 1520.76 354.118 1521.19 354.245C1521.62 354.373 1522 354.56 1522.31 354.806C1522.62 355.056 1522.86 355.368 1523.04 355.742C1523.21 356.111 1523.3 356.544 1523.3 357.041C1523.3 357.383 1523.25 357.693 1523.16 357.971C1523.07 358.249 1522.95 358.499 1522.79 358.723C1522.63 358.946 1522.44 359.142 1522.22 359.311C1521.99 359.479 1521.75 359.625 1521.47 359.748L1523.6 363.911V364H1521.84L1519.93 360.138ZM1518.25 358.798H1519.79C1520.08 358.793 1520.34 358.75 1520.58 358.668C1520.81 358.581 1521.01 358.458 1521.18 358.299C1521.32 358.162 1521.44 357.993 1521.52 357.793C1521.6 357.592 1521.64 357.365 1521.64 357.109C1521.64 356.822 1521.6 356.572 1521.51 356.357C1521.42 356.139 1521.29 355.956 1521.12 355.811C1520.96 355.674 1520.76 355.571 1520.54 355.503C1520.31 355.43 1520.05 355.391 1519.77 355.387H1518.25V358.798ZM1529.83 361.71H1526.71L1526.03 364H1524.32L1527.56 354.047H1529.02L1532.2 364H1530.5L1529.83 361.71ZM1527.12 360.302H1529.43L1528.29 356.364L1527.12 360.302ZM1535.03 362.646H1540.06V364H1533.07L1533.07 362.906L1537.95 355.407H1533.11V354.047H1539.9L1539.92 355.113L1535.03 362.646ZM1542.06 354.047H1547.93V355.407H1545.8V362.646H1547.93V364H1542.06V362.646H1544.14V355.407H1542.06V354.047ZM1552.01 362.646H1556.77V364H1550.37V354.047H1552.01V362.646Z" fill="white" fill-opacity="0.5"/>
</svg>
